SplineFontDB: 3.2
FontName: hin54
FullName: hin54
FamilyName: hin54
Weight: Book
Copyright: Copyright 2022 The Noto Project Authors (https://github.com/notofonts/devanagari)
Version: 2.003
ItalicAngle: 0
UnderlinePosition: -125
UnderlineWidth: 50
Ascent: 800
Descent: 200
InvalidEm: 0
sfntRevision: 0x000200c5
LayerCount: 2
Layer: 0 1 "Back" 1
Layer: 1 1 "Fore" 0
XUID: [1021 467 -1121320856 11144362]
StyleMap: 0x0040
FSType: 0
OS2Version: 4
OS2_WeightWidthSlopeOnly: 0
OS2_UseTypoMetrics: 1
CreationTime: 1432194851
ModificationTime: 1674264078
PfmFamily: 81
TTFWeight: 400
TTFWidth: 5
LineGap: 0
VLineGap: 0
Panose: 0 0 0 0 0 0 0 0 0 0
OS2TypoAscent: 896
OS2TypoAOffset: 0
OS2TypoDescent: -408
OS2TypoDOffset: 0
OS2TypoLinegap: 0
OS2WinAscent: 896
OS2WinAOffset: 0
OS2WinDescent: 408
OS2WinDOffset: 0
HheadAscent: 896
HheadAOffset: 0
HheadDescent: -408
HheadDOffset: 0
OS2SubXSize: 650
OS2SubYSize: 600
OS2SubXOff: 0
OS2SubYOff: 75
OS2SupXSize: 650
OS2SupYSize: 600
OS2SupXOff: 0
OS2SupYOff: 350
OS2StrikeYSize: 50
OS2StrikeYPos: 322
OS2CapHeight: 622
OS2XHeight: 536
OS2Vendor: 'GOOG'
OS2CodePages: 00000093.00000000
OS2UnicodeRanges: 80008023.00002046.00000000.00000000
Lookup: 1 0 0 "'aalt' Access All Alternates in Devanagari2 lookup 0" { "'aalt' Access All Alternates in Devanagari2 lookup 0 subtable"  } ['aalt' ('DFLT' <'dflt' > 'dev2' <'MAR ' 'NEP ' 'dflt' > 'latn' <'MOL ' 'ROM ' > ) ]
Lookup: 1 0 0 "Single Substitution lookup 1" { "Single Substitution lookup 1 subtable"  } []
Lookup: 1 0 0 "Single Substitution lookup 2" { "Single Substitution lookup 2 subtable"  } []
Lookup: 1 0 0 "Single Substitution lookup 3" { "Single Substitution lookup 3 subtable"  } []
Lookup: 1 0 0 "Single Substitution lookup 4" { "Single Substitution lookup 4 subtable"  } []
Lookup: 1 0 0 "Single Substitution lookup 5" { "Single Substitution lookup 5 subtable"  } []
Lookup: 1 0 0 "Single Substitution lookup 6" { "Single Substitution lookup 6 subtable"  } []

StartChar: .notdef
Encoding: 65536 -1 0
Width: 600
Flags: W
LayerCount: 2
Fore
SplineSet
94 714 m 1,0,-1
 505 714 l 1,1,-1
 505 0 l 1,2,-1
 94 0 l 1,3,-1
 94 714 l 1,0,-1
454 51 m 1,4,-1
 454 663 l 1,5,-1
 145 663 l 1,6,-1
 145 51 l 1,7,-1
 454 51 l 1,4,-1
EndSplineSet
EndChar

StartChar: binducandradeva
Encoding: 2304 2304 4
Width: 0
GlyphClass: 4
Flags: W
AnchorPoint: "Anchor-5" -180 622 mark 0
AnchorPoint: "Anchor-0" -180 622 mark 0
LayerCount: 2
Fore
SplineSet
-352 713 m 1,0,1
 -328 814 -328 814 -274.5 855 c 128,-1,2
 -221 896 -221 896 -145 896 c 0,3,4
 -73 896 -73 896 -19 852 c 128,-1,5
 35 808 35 808 69 713 c 1,6,-1
 0 689 l 1,7,8
 -26 760 -26 760 -60 795 c 128,-1,9
 -94 830 -94 830 -147 830 c 0,10,11
 -205 830 -205 830 -233 792.5 c 128,-1,12
 -261 755 -261 755 -278 688 c 1,13,-1
 -352 713 l 1,0,1
-94 730 m 256,14,15
 -94 709 -94 709 -109 694.5 c 128,-1,16
 -124 680 -124 680 -144 680 c 256,17,18
 -164 680 -164 680 -179 694.5 c 128,-1,19
 -194 709 -194 709 -194 730 c 256,20,21
 -194 751 -194 751 -179 765.5 c 128,-1,22
 -164 780 -164 780 -144 780 c 256,23,24
 -124 780 -124 780 -109 765.5 c 128,-1,25
 -94 751 -94 751 -94 730 c 256,14,15
EndSplineSet
EndChar

StartChar: uni0901
Encoding: 2305 2305 5
Width: 0
GlyphClass: 4
Flags: W
AnchorPoint: "Anchor-5" -180 622 mark 0
AnchorPoint: "Anchor-0" -180 622 mark 0
LayerCount: 2
Fore
SplineSet
-188 847 m 256,0,1
 -188 868 -188 868 -173.5 882 c 128,-1,2
 -159 896 -159 896 -139 896 c 0,3,4
 -118 896 -118 896 -103.5 882 c 128,-1,5
 -89 868 -89 868 -89 847 c 256,6,7
 -89 826 -89 826 -103.5 811.5 c 128,-1,8
 -118 797 -118 797 -139 797 c 0,9,10
 -159 797 -159 797 -173.5 811.5 c 128,-1,11
 -188 826 -188 826 -188 847 c 256,0,1
69 863 m 1,12,13
 46 763 46 763 -7.5 721.5 c 128,-1,14
 -61 680 -61 680 -138 680 c 0,15,16
 -210 680 -210 680 -264 724.5 c 128,-1,17
 -318 769 -318 769 -352 863 c 1,18,-1
 -283 887 l 1,19,20
 -257 817 -257 817 -223 782 c 128,-1,21
 -189 747 -189 747 -135 747 c 0,22,23
 -77 747 -77 747 -49 784.5 c 128,-1,24
 -21 822 -21 822 -5 889 c 1,25,-1
 69 863 l 1,12,13
EndSplineSet
Substitution2: "Single Substitution lookup 10 subtable" dummymarkdeva
Position2: "Single Positioning lookup 5 per glyph data 1" dx=-90 dy=0 dh=0 dv=0
EndChar

StartChar: uni0902
Encoding: 2306 2306 6
Width: 0
GlyphClass: 4
Flags: W
AnchorPoint: "Anchor-5" -170 622 mark 0
AnchorPoint: "Anchor-0" -170 622 mark 0
LayerCount: 2
Fore
SplineSet
-185 772 m 256,0,1
 -185 796 -185 796 -168.5 813 c 128,-1,2
 -152 830 -152 830 -130 830 c 0,3,4
 -107 830 -107 830 -91 813 c 128,-1,5
 -75 796 -75 796 -75 772 c 256,6,7
 -75 748 -75 748 -91 731 c 128,-1,8
 -107 714 -107 714 -130 714 c 0,9,10
 -152 714 -152 714 -168.5 731 c 128,-1,11
 -185 748 -185 748 -185 772 c 256,0,1
EndSplineSet
Substitution2: "Single Substitution lookup 10 subtable" dummymarkdeva
Position2: "Single Positioning lookup 5 per glyph data 1" dx=-39 dy=0 dh=0 dv=0
EndChar

StartChar: uni0903
Encoding: 2307 2307 7
Width: 272
GlyphClass: 4
Flags: W
LayerCount: 2
Fore
SplineSet
78 118 m 256,0,1
 78 144 78 144 96 163 c 128,-1,2
 114 182 114 182 139 182 c 256,3,4
 164 182 164 182 182 163 c 128,-1,5
 200 144 200 144 200 118 c 256,6,7
 200 92 200 92 182 73 c 128,-1,8
 164 54 164 54 139 54 c 256,9,10
 114 54 114 54 96 73 c 128,-1,11
 78 92 78 92 78 118 c 256,0,1
78 435 m 256,12,13
 78 461 78 461 96 480 c 128,-1,14
 114 499 114 499 139 499 c 256,15,16
 164 499 164 499 182 480 c 128,-1,17
 200 461 200 461 200 435 c 256,18,19
 200 409 200 409 182 390 c 128,-1,20
 164 371 164 371 139 371 c 256,21,22
 114 371 114 371 96 390 c 128,-1,23
 78 409 78 409 78 435 c 256,12,13
EndSplineSet
EndChar

StartChar: ashortdeva
Encoding: 2308 2308 8
Width: 764
Flags: W
LayerCount: 2
Fore
SplineSet
675 551 m 1,0,-1
 675 0 l 1,1,-1
 594 0 l 1,2,-1
 594 551 l 1,3,-1
 521 551 l 1,4,-1
 521 622 l 1,5,-1
 779 622 l 1,6,-1
 779 551 l 1,7,-1
 675 551 l 1,0,-1
298 632 m 0,8,9
 376 632 376 632 417.5 593 c 128,-1,10
 459 554 459 554 459 495 c 0,11,12
 459 452 459 452 436.5 417.5 c 128,-1,13
 414 383 414 383 370 363 c 128,-1,14
 326 343 326 343 260 341 c 1,15,-1
 255 411 l 1,16,17
 323 413 323 413 351.5 435 c 128,-1,18
 380 457 380 457 380 494 c 0,19,20
 380 530 380 530 356.5 546 c 128,-1,21
 333 562 333 562 302 562 c 0,22,23
 265 562 265 562 235 552 c 128,-1,24
 205 542 205 542 171 525 c 1,25,-1
 146 594 l 1,26,27
 172 608 172 608 210.5 620 c 128,-1,28
 249 632 249 632 298 632 c 0,8,9
470 218 m 0,29,30
 470 172 470 172 449 141 c 128,-1,31
 428 110 428 110 392.5 95 c 128,-1,32
 357 80 357 80 312 80 c 0,33,34
 255 80 255 80 206.5 108 c 128,-1,35
 158 136 158 136 114.5 197 c 128,-1,36
 71 258 71 258 29 356 c 1,37,-1
 100 382 l 1,38,39
 129 311 129 311 160.5 259.5 c 128,-1,40
 192 208 192 208 228 180.5 c 128,-1,41
 264 153 264 153 305 153 c 0,42,43
 343 153 343 153 367 170.5 c 128,-1,44
 391 188 391 188 391 227 c 0,45,46
 391 275 391 275 358 310 c 128,-1,47
 325 345 325 345 278 374 c 1,48,-1
 337 377 l 1,49,-1
 380 386 l 1,50,51
 394 374 394 374 411 357 c 128,-1,52
 428 340 428 340 438 323 c 1,53,-1
 443 304 l 1,54,55
 456 285 456 285 463 264 c 128,-1,56
 470 243 470 243 470 218 c 0,29,30
486 350 m 0,57,58
 534 350 534 350 569 357.5 c 128,-1,59
 604 365 604 365 651 382 c 1,60,-1
 651 310 l 1,61,62
 608 291 608 291 573.5 285 c 128,-1,63
 539 279 539 279 498 279 c 0,64,65
 483 279 483 279 463 281.5 c 128,-1,66
 443 284 443 284 425.5 287.5 c 128,-1,67
 408 291 408 291 400 294 c 1,68,-1
 353 350 l 1,69,-1
 359 365 l 1,70,71
 388 358 388 358 420 354 c 128,-1,72
 452 350 452 350 486 350 c 0,57,58
594 615 m 1,73,74
 583 663 583 663 571 690 c 128,-1,75
 559 717 559 717 542 728 c 128,-1,76
 525 739 525 739 500 739 c 0,77,78
 487 739 487 739 474 738 c 128,-1,79
 461 737 461 737 448 737 c 0,80,81
 413 737 413 737 384.5 748 c 128,-1,82
 356 759 356 759 332.5 788.5 c 128,-1,83
 309 818 309 818 289 873 c 1,84,-1
 355 896 l 1,85,86
 366 867 366 867 377.5 847 c 128,-1,87
 389 827 389 827 406.5 817.5 c 128,-1,88
 424 808 424 808 452 808 c 0,89,90
 466 808 466 808 482 810 c 128,-1,91
 498 812 498 812 516 812 c 0,92,93
 544 812 544 812 566.5 802.5 c 128,-1,94
 589 793 589 793 607.5 771 c 128,-1,95
 626 749 626 749 641.5 711 c 128,-1,96
 657 673 657 673 670 615 c 1,97,-1
 594 615 l 1,73,74
EndSplineSet
MultipleSubs2: "Multiple Substitution lookup 47 subtable" uni0905 uni0946
EndChar

StartChar: uni0905
Encoding: 2309 2309 9
Width: 764
Flags: W
LayerCount: 2
Fore
SplineSet
675 551 m 1,0,-1
 675 0 l 1,1,-1
 594 0 l 1,2,-1
 594 551 l 1,3,-1
 521 551 l 1,4,-1
 521 622 l 1,5,-1
 779 622 l 1,6,-1
 779 551 l 1,7,-1
 675 551 l 1,0,-1
298 632 m 0,8,9
 376 632 376 632 417.5 593 c 128,-1,10
 459 554 459 554 459 495 c 0,11,12
 459 452 459 452 436.5 417.5 c 128,-1,13
 414 383 414 383 370 363 c 128,-1,14
 326 343 326 343 260 341 c 1,15,-1
 255 411 l 1,16,17
 323 413 323 413 351.5 435 c 128,-1,18
 380 457 380 457 380 494 c 0,19,20
 380 530 380 530 356.5 546 c 128,-1,21
 333 562 333 562 302 562 c 0,22,23
 265 562 265 562 235 552 c 128,-1,24
 205 542 205 542 171 525 c 1,25,-1
 146 594 l 1,26,27
 172 608 172 608 210.5 620 c 128,-1,28
 249 632 249 632 298 632 c 0,8,9
470 218 m 0,29,30
 470 172 470 172 449 141 c 128,-1,31
 428 110 428 110 392.5 95 c 128,-1,32
 357 80 357 80 312 80 c 0,33,34
 255 80 255 80 206.5 108 c 128,-1,35
 158 136 158 136 114.5 197 c 128,-1,36
 71 258 71 258 29 356 c 1,37,-1
 100 382 l 1,38,39
 129 311 129 311 160.5 259.5 c 128,-1,40
 192 208 192 208 228 180.5 c 128,-1,41
 264 153 264 153 305 153 c 0,42,43
 343 153 343 153 367 170.5 c 128,-1,44
 391 188 391 188 391 227 c 0,45,46
 391 275 391 275 358 310 c 128,-1,47
 325 345 325 345 278 374 c 1,48,-1
 337 377 l 1,49,-1
 380 386 l 1,50,51
 394 374 394 374 411 357 c 128,-1,52
 428 340 428 340 438 323 c 1,53,-1
 443 304 l 1,54,55
 456 285 456 285 463 264 c 128,-1,56
 470 243 470 243 470 218 c 0,29,30
486 350 m 0,57,58
 534 350 534 350 569 357.5 c 128,-1,59
 604 365 604 365 651 382 c 1,60,-1
 651 310 l 1,61,62
 608 291 608 291 573.5 285 c 128,-1,63
 539 279 539 279 498 279 c 0,64,65
 483 279 483 279 463 281.5 c 128,-1,66
 443 284 443 284 425.5 287.5 c 128,-1,67
 408 291 408 291 400 294 c 1,68,-1
 353 350 l 1,69,-1
 359 365 l 1,70,71
 388 358 388 358 420 354 c 128,-1,72
 452 350 452 350 486 350 c 0,57,58
EndSplineSet
EndChar

StartChar: uni0906
Encoding: 2310 2310 10
Width: 1023
Flags: W
LayerCount: 2
Fore
SplineSet
675 551 m 1,0,-1
 675 0 l 1,1,-1
 594 0 l 1,2,-1
 594 551 l 1,3,-1
 521 551 l 1,4,-1
 521 622 l 1,5,-1
 779 622 l 1,6,-1
 779 551 l 1,7,-1
 675 551 l 1,0,-1
298 632 m 0,8,9
 376 632 376 632 417.5 593 c 128,-1,10
 459 554 459 554 459 495 c 0,11,12
 459 452 459 452 436.5 417.5 c 128,-1,13
 414 383 414 383 370 363 c 128,-1,14
 326 343 326 343 260 341 c 1,15,-1
 255 411 l 1,16,17
 323 413 323 413 351.5 435 c 128,-1,18
 380 457 380 457 380 494 c 0,19,20
 380 530 380 530 356.5 546 c 128,-1,21
 333 562 333 562 302 562 c 0,22,23
 265 562 265 562 235 552 c 128,-1,24
 205 542 205 542 171 525 c 1,25,-1
 146 594 l 1,26,27
 172 608 172 608 210.5 620 c 128,-1,28
 249 632 249 632 298 632 c 0,8,9
470 218 m 0,29,30
 470 172 470 172 449 141 c 128,-1,31
 428 110 428 110 392.5 95 c 128,-1,32
 357 80 357 80 312 80 c 0,33,34
 255 80 255 80 206.5 108 c 128,-1,35
 158 136 158 136 114.5 197 c 128,-1,36
 71 258 71 258 29 356 c 1,37,-1
 100 382 l 1,38,39
 129 311 129 311 160.5 259.5 c 128,-1,40
 192 208 192 208 228 180.5 c 128,-1,41
 264 153 264 153 305 153 c 0,42,43
 343 153 343 153 367 170.5 c 128,-1,44
 391 188 391 188 391 227 c 0,45,46
 391 275 391 275 358 310 c 128,-1,47
 325 345 325 345 278 374 c 1,48,-1
 337 377 l 1,49,-1
 380 386 l 1,50,51
 394 374 394 374 411 357 c 128,-1,52
 428 340 428 340 438 323 c 1,53,-1
 443 304 l 1,54,55
 456 285 456 285 463 264 c 128,-1,56
 470 243 470 243 470 218 c 0,29,30
486 350 m 0,57,58
 534 350 534 350 569 357.5 c 128,-1,59
 604 365 604 365 651 382 c 1,60,-1
 651 310 l 1,61,62
 608 291 608 291 573.5 285 c 128,-1,63
 539 279 539 279 498 279 c 0,64,65
 483 279 483 279 463 281.5 c 128,-1,66
 443 284 443 284 425.5 287.5 c 128,-1,67
 408 291 408 291 400 294 c 1,68,-1
 353 350 l 1,69,-1
 359 365 l 1,70,71
 388 358 388 358 420 354 c 128,-1,72
 452 350 452 350 486 350 c 0,57,58
934 551 m 1,73,-1
 934 0 l 1,74,-1
 853 0 l 1,75,-1
 853 551 l 1,76,-1
 764 551 l 1,77,-1
 764 622 l 1,78,-1
 1038 622 l 1,79,-1
 1038 551 l 1,80,-1
 934 551 l 1,73,-1
EndSplineSet
EndChar

StartChar: uni0907
Encoding: 2311 2311 11
Width: 491
GlyphClass: 2
Flags: W
AnchorPoint: "Anchor-0" 314 622 basechar 0
LayerCount: 2
Fore
SplineSet
271 222 m 0,0,1
 242 222 242 222 213 215 c 128,-1,2
 184 208 184 208 161 197 c 1,3,4
 130 216 130 216 104.5 239 c 128,-1,5
 79 262 79 262 64.5 290 c 128,-1,6
 50 318 50 318 50 352 c 0,7,8
 50 380 50 380 60 400 c 128,-1,9
 70 420 70 420 87 433 c 0,10,11
 102 445 102 445 120.5 452 c 128,-1,12
 139 459 139 459 163.5 462 c 128,-1,13
 188 465 188 465 221 465 c 2,14,-1
 314 465 l 1,15,-1
 314 551 l 1,16,-1
 0 551 l 1,17,-1
 0 622 l 1,18,-1
 505 622 l 1,19,-1
 505 551 l 1,20,-1
 395 551 l 1,21,-1
 395 394 l 1,22,-1
 211 394 l 2,23,24
 180 394 180 394 167 391 c 128,-1,25
 154 388 154 388 145 381 c 0,26,27
 138 375 138 375 134 366.5 c 128,-1,28
 130 358 130 358 130 347 c 0,29,30
 130 323 130 323 144 306.5 c 128,-1,31
 158 290 158 290 174 277 c 1,32,33
 197 285 197 285 223 289.5 c 128,-1,34
 249 294 249 294 275 294 c 0,35,36
 349 294 349 294 398 256.5 c 128,-1,37
 447 219 447 219 447 154 c 0,38,39
 447 103 447 103 421 69 c 128,-1,40
 395 35 395 35 346.5 17.5 c 128,-1,41
 298 0 298 0 230 0 c 0,42,43
 218 0 218 0 207 0 c 128,-1,44
 196 0 196 0 185 1 c 0,45,46
 143 3 143 3 112.5 9 c 128,-1,47
 82 15 82 15 65 29 c 128,-1,48
 48 43 48 43 48 65 c 256,49,50
 48 87 48 87 61.5 101.5 c 128,-1,51
 75 116 75 116 101 116 c 0,52,53
 129 116 129 116 159.5 96 c 128,-1,54
 190 76 190 76 241 25 c 1,55,56
 265 13 265 13 293 2 c 128,-1,57
 321 -9 321 -9 352 -19.5 c 128,-1,58
 383 -30 383 -30 415 -40 c 1,59,-1
 382 -110 l 1,60,61
 312 -78 312 -78 249.5 -42.5 c 128,-1,62
 187 -7 187 -7 135 28 c 1,63,-1
 99 92 l 1,64,65
 126 80 126 80 162.5 74 c 128,-1,66
 199 68 199 68 219 68 c 0,67,68
 289 68 289 68 327.5 88.5 c 128,-1,69
 366 109 366 109 366 153 c 0,70,71
 366 175 366 175 355 190.5 c 128,-1,72
 344 206 344 206 323 214 c 128,-1,73
 302 222 302 222 271 222 c 0,0,1
EndSplineSet
EndChar

StartChar: uni0909
Encoding: 2313 2313 13
Width: 548
GlyphClass: 2
Flags: W
AnchorPoint: "Anchor-2" 299 0 basechar 0
AnchorPoint: "Anchor-0" 333 622 basechar 0
LayerCount: 2
Fore
SplineSet
0 622 m 1,0,-1
 563 622 l 1,1,-1
 563 551 l 1,2,-1
 0 551 l 1,3,-1
 0 622 l 1,0,-1
313 616 m 1,4,5
 351 613 351 613 382.5 600.5 c 128,-1,6
 414 588 414 588 437 567.5 c 128,-1,7
 460 547 460 547 472.5 520.5 c 128,-1,8
 485 494 485 494 485 464 c 0,9,10
 485 389 485 389 427.5 342.5 c 128,-1,11
 370 296 370 296 264 294 c 1,12,-1
 259 364 l 1,13,14
 333 366 333 366 368.5 390 c 128,-1,15
 404 414 404 414 404 463 c 0,16,17
 404 502 404 502 380 528 c 128,-1,18
 356 554 356 554 321 563 c 1,19,-1
 313 616 l 1,4,5
387 345 m 1,20,21
 414 323 414 323 440 295 c 128,-1,22
 466 267 466 267 482.5 232 c 128,-1,23
 499 197 499 197 499 152 c 0,24,25
 499 102 499 102 476.5 68 c 128,-1,26
 454 34 454 34 415 17 c 128,-1,27
 376 0 376 0 328 0 c 0,28,29
 271 0 271 0 219.5 30.5 c 128,-1,30
 168 61 168 61 120.5 130 c 128,-1,31
 73 199 73 199 29 313 c 1,32,-1
 100 338 l 1,33,34
 128 260 128 260 161.5 200.5 c 128,-1,35
 195 141 195 141 234.5 107.5 c 128,-1,36
 274 74 274 74 320 74 c 0,37,38
 348 74 348 74 369 82 c 128,-1,39
 390 90 390 90 402 109 c 128,-1,40
 414 128 414 128 414 160 c 0,41,42
 414 208 414 208 383.5 247.5 c 128,-1,43
 353 287 353 287 298 322 c 1,44,-1
 387 345 l 1,20,21
EndSplineSet
EndChar

StartChar: uni090A
Encoding: 2314 2314 14
Width: 765
GlyphClass: 2
Flags: W
AnchorPoint: "Anchor-2" 299 0 basechar 0
AnchorPoint: "Anchor-0" 333 622 basechar 0
LayerCount: 2
Fore
SplineSet
0 622 m 1,0,-1
 780 622 l 1,1,-1
 780 551 l 1,2,-1
 0 551 l 1,3,-1
 0 622 l 1,0,-1
313 616 m 1,4,5
 351 613 351 613 382.5 600.5 c 128,-1,6
 414 588 414 588 437 567.5 c 128,-1,7
 460 547 460 547 472.5 520.5 c 128,-1,8
 485 494 485 494 485 464 c 0,9,10
 485 389 485 389 427.5 342.5 c 128,-1,11
 370 296 370 296 264 294 c 1,12,-1
 259 364 l 1,13,14
 333 366 333 366 368.5 390 c 128,-1,15
 404 414 404 414 404 463 c 0,16,17
 404 502 404 502 380 528 c 128,-1,18
 356 554 356 554 321 563 c 1,19,-1
 313 616 l 1,4,5
387 345 m 1,20,21
 414 323 414 323 440 295 c 128,-1,22
 466 267 466 267 482.5 232 c 128,-1,23
 499 197 499 197 499 152 c 0,24,25
 499 102 499 102 476.5 68 c 128,-1,26
 454 34 454 34 415 17 c 128,-1,27
 376 0 376 0 328 0 c 0,28,29
 271 0 271 0 219.5 30.5 c 128,-1,30
 168 61 168 61 120.5 130 c 128,-1,31
 73 199 73 199 29 313 c 1,32,-1
 100 338 l 1,33,34
 128 260 128 260 161.5 200.5 c 128,-1,35
 195 141 195 141 234.5 107.5 c 128,-1,36
 274 74 274 74 320 74 c 0,37,38
 348 74 348 74 369 82 c 128,-1,39
 390 90 390 90 402 109 c 128,-1,40
 414 128 414 128 414 160 c 0,41,42
 414 208 414 208 383.5 247.5 c 128,-1,43
 353 287 353 287 298 322 c 1,44,-1
 387 345 l 1,20,21
438 282 m 1,45,46
 471 307 471 307 503.5 320 c 128,-1,47
 536 333 536 333 573 333 c 0,48,49
 638 333 638 333 679.5 293.5 c 128,-1,50
 721 254 721 254 721 185 c 0,51,52
 721 139 721 139 706 93 c 128,-1,53
 691 47 691 47 656 0 c 1,54,-1
 584 41 l 1,55,56
 609 70 609 70 625 105.5 c 128,-1,57
 641 141 641 141 641 181 c 0,58,59
 641 225 641 225 620.5 244.5 c 128,-1,60
 600 264 600 264 565 264 c 0,61,62
 537 264 537 264 506.5 244.5 c 128,-1,63
 476 225 476 225 444 185 c 1,64,-1
 438 282 l 1,45,46
EndSplineSet
EndChar

StartChar: uni090B
Encoding: 2315 2315 15
Width: 853
GlyphClass: 2
Flags: W
AnchorPoint: "Anchor-2" 422 0 basechar 0
AnchorPoint: "Anchor-0" 382 622 basechar 0
LayerCount: 2
Fore
SplineSet
462 551 m 1,0,-1
 462 0 l 1,1,-1
 382 0 l 1,2,-1
 382 551 l 1,3,-1
 0 551 l 1,4,-1
 0 622 l 1,5,-1
 867 622 l 1,6,-1
 867 551 l 1,7,-1
 462 551 l 1,0,-1
27 417 m 1,8,9
 61 433 61 433 98 444.5 c 128,-1,10
 135 456 135 456 179 456 c 256,11,12
 223 456 223 456 257 441 c 128,-1,13
 291 426 291 426 325.5 391.5 c 128,-1,14
 360 357 360 357 403 298 c 1,15,-1
 382 266 l 1,16,-1
 343 258 l 1,17,18
 318 291 318 291 298 314.5 c 128,-1,19
 278 338 278 338 260 352.5 c 128,-1,20
 242 367 242 367 223 373.5 c 128,-1,21
 204 380 204 380 181 380 c 0,22,23
 153 380 153 380 124.5 372 c 128,-1,24
 96 364 96 364 55 343 c 1,25,-1
 27 417 l 1,8,9
127 65 m 1,26,-1
 80 132 l 1,27,-1
 369 307 l 1,28,-1
 408 251 l 1,29,-1
 127 65 l 1,26,-1
442 328 m 1,30,31
 482 330 482 330 523.5 335 c 128,-1,32
 565 340 565 340 588 347 c 1,33,-1
 588 338 l 1,34,35
 581 350 581 350 577.5 362 c 128,-1,36
 574 374 574 374 574 387 c 0,37,38
 574 419 574 419 595 434.5 c 128,-1,39
 616 450 616 450 641 450 c 0,40,41
 667 450 667 450 685.5 440 c 128,-1,42
 704 430 704 430 714 412.5 c 128,-1,43
 724 395 724 395 724 373 c 0,44,45
 724 345 724 345 710 328 c 128,-1,46
 696 311 696 311 676 303 c 1,47,48
 690 279 690 279 703.5 257.5 c 128,-1,49
 717 236 717 236 730 217 c 1,50,-1
 719 184 l 1,51,-1
 671 184 l 1,52,53
 663 197 663 197 651.5 215.5 c 128,-1,54
 640 234 640 234 629.5 253.5 c 128,-1,55
 619 273 619 273 613 286 c 1,56,57
 596 280 596 280 568 274 c 128,-1,58
 540 268 540 268 510 264.5 c 128,-1,59
 480 261 480 261 455 260 c 1,60,-1
 442 328 l 1,30,31
840 0 m 1,61,62
 814 -13 814 -13 781 -23.5 c 128,-1,63
 748 -34 748 -34 707 -34 c 0,64,65
 657 -34 657 -34 621 -16 c 128,-1,66
 585 2 585 2 566 34 c 128,-1,67
 547 66 547 66 547 107 c 0,68,69
 547 139 547 139 561.5 166.5 c 128,-1,70
 576 194 576 194 604.5 215 c 128,-1,71
 633 236 633 236 675 245 c 1,72,-1
 719 184 l 1,73,74
 667 176 667 176 644 155.5 c 128,-1,75
 621 135 621 135 621 102 c 0,76,77
 621 68 621 68 645.5 52.5 c 128,-1,78
 670 37 670 37 701 37 c 0,79,80
 733 37 733 37 756.5 44.5 c 128,-1,81
 780 52 780 52 814 70 c 1,82,-1
 840 0 l 1,61,62
EndSplineSet
EndChar

StartChar: uni090C
Encoding: 2316 2316 16
Width: 699
GlyphClass: 2
Flags: W
AnchorPoint: "Anchor-2" 351 0 basechar 0
AnchorPoint: "Anchor-0" 470 622 basechar 0
LayerCount: 2
Fore
SplineSet
714 551 m 1,0,-1
 550 551 l 1,1,-1
 550 378 l 1,2,-1
 470 413 l 1,3,-1
 470 551 l 1,4,-1
 0 551 l 1,5,-1
 0 622 l 1,6,-1
 714 622 l 1,7,-1
 714 551 l 1,0,-1
204 426 m 0,8,9
 237 426 237 426 265 418 c 128,-1,10
 293 410 293 410 319 394.5 c 128,-1,11
 345 379 345 379 369 357 c 1,12,-1
 337 292 l 1,13,14
 306 318 306 318 276.5 335.5 c 128,-1,15
 247 353 247 353 209 353 c 0,16,17
 169 353 169 353 147.5 330 c 128,-1,18
 126 307 126 307 126 271 c 0,19,20
 126 233 126 233 147.5 198.5 c 128,-1,21
 169 164 169 164 210 126.5 c 128,-1,22
 251 89 251 89 309 40 c 1,23,-1
 255 -12 l 1,24,25
 197 38 197 38 149 83.5 c 128,-1,26
 101 129 101 129 73 175.5 c 128,-1,27
 45 222 45 222 45 275 c 0,28,29
 45 315 45 315 59.5 343.5 c 128,-1,30
 74 372 74 372 97.5 390.5 c 128,-1,31
 121 409 121 409 149 417.5 c 128,-1,32
 177 426 177 426 204 426 c 0,8,9
422 30 m 0,33,34
 422 86 422 86 464 126 c 128,-1,35
 506 166 506 166 600 180 c 1,36,-1
 615 114 l 1,37,38
 554 104 554 104 525 82 c 128,-1,39
 496 60 496 60 496 24 c 0,40,41
 496 -10 496 -10 521 -25.5 c 128,-1,42
 546 -41 546 -41 577 -41 c 0,43,44
 609 -41 609 -41 632.5 -33 c 128,-1,45
 656 -25 656 -25 690 -8 c 1,46,-1
 715 -77 l 1,47,48
 690 -90 690 -90 656.5 -100.5 c 128,-1,49
 623 -111 623 -111 582 -111 c 0,50,51
 532 -111 532 -111 496 -93 c 128,-1,52
 460 -75 460 -75 441 -43.5 c 128,-1,53
 422 -12 422 -12 422 30 c 0,33,34
506 426 m 0,54,55
 539 426 539 426 573.5 410 c 128,-1,56
 608 394 608 394 632 358.5 c 128,-1,57
 656 323 656 323 656 264 c 0,58,59
 656 223 656 223 644 184.5 c 128,-1,60
 632 146 632 146 615 114 c 1,61,-1
 530 133 l 1,62,63
 547 162 547 162 561 194 c 128,-1,64
 575 226 575 226 575 268 c 0,65,66
 575 313 575 313 553 334.5 c 128,-1,67
 531 356 531 356 496 356 c 0,68,69
 471 356 471 356 445.5 344 c 128,-1,70
 420 332 420 332 397 300.5 c 128,-1,71
 374 269 374 269 356 208 c 1,72,-1
 279 232 l 1,73,74
 304 327 304 327 362.5 376.5 c 128,-1,75
 421 426 421 426 506 426 c 0,54,55
EndSplineSet
EndChar

StartChar: uni090F
Encoding: 2319 2319 19
Width: 553
GlyphClass: 2
Flags: W
AnchorPoint: "Anchor-2" 276 0 basechar 0
AnchorPoint: "Anchor-0" 395 622 basechar 0
LayerCount: 2
Fore
SplineSet
568 551 m 1,0,-1
 474 551 l 1,1,-1
 474 380 l 2,2,3
 474 329 474 329 466.5 299 c 128,-1,4
 459 269 459 269 441 246 c 0,5,6
 424 224 424 224 393.5 209.5 c 128,-1,7
 363 195 363 195 323 192 c 1,8,-1
 307 266 l 1,9,10
 329 270 329 270 344.5 275.5 c 128,-1,11
 360 281 360 281 370 292 c 0,12,13
 382 304 382 304 387.5 321.5 c 128,-1,14
 393 339 393 339 393 380 c 2,15,-1
 393 551 l 1,16,-1
 160 551 l 1,17,-1
 160 353 l 2,18,19
 160 307 160 307 163 278 c 128,-1,20
 166 249 166 249 176 230 c 128,-1,21
 186 211 186 211 206 195.5 c 128,-1,22
 226 180 226 180 260 160 c 2,23,-1
 370 98 l 2,24,25
 412 74 412 74 437.5 52 c 128,-1,26
 463 30 463 30 474.5 5.5 c 128,-1,27
 486 -19 486 -19 486 -53 c 0,28,29
 486 -93 486 -93 469.5 -128.5 c 128,-1,30
 453 -164 453 -164 439 -184 c 1,31,-1
 367 -142 l 1,32,33
 380 -122 380 -122 391.5 -99.5 c 128,-1,34
 403 -77 403 -77 403 -55 c 0,35,36
 403 -36 403 -36 395 -21.5 c 128,-1,37
 387 -7 387 -7 363 10.5 c 128,-1,38
 339 28 339 28 290 56 c 2,39,-1
 203 106 l 2,40,41
 164 129 164 129 136.5 153.5 c 128,-1,42
 109 178 109 178 95 212 c 0,43,44
 87 231 87 231 83 256 c 128,-1,45
 79 281 79 281 79 316 c 2,46,-1
 79 551 l 1,47,-1
 0 551 l 1,48,-1
 0 622 l 1,49,-1
 568 622 l 1,50,-1
 568 551 l 1,0,-1
EndSplineSet
EndChar

StartChar: uni0915
Encoding: 2325 2325 25
Width: 762
GlyphClass: 2
Flags: W
AnchorPoint: "Anchor-2" 411 0 basechar 0
AnchorPoint: "Anchor-1" 371 0 basechar 0
AnchorPoint: "Anchor-0" 371 622 basechar 0
LayerCount: 2
Fore
SplineSet
777 551 m 1,0,-1
 452 551 l 1,1,-1
 452 336 l 1,2,-1
 448 345 l 1,3,4
 472 371 472 371 503 385 c 128,-1,5
 534 399 534 399 569 399 c 0,6,7
 634 399 634 399 675 357.5 c 128,-1,8
 716 316 716 316 716 239 c 0,9,10
 716 193 716 193 701 141 c 128,-1,11
 686 89 686 89 651 39 c 1,12,-1
 579 80 l 1,13,14
 604 112 604 112 620 154 c 128,-1,15
 636 196 636 196 636 237 c 0,16,17
 636 284 636 284 616.5 307 c 128,-1,18
 597 330 597 330 562 330 c 0,19,20
 535 330 535 330 506 311 c 128,-1,21
 477 292 477 292 447 252 c 1,22,-1
 452 277 l 1,23,-1
 452 0 l 1,24,-1
 371 0 l 1,25,-1
 371 210 l 1,26,-1
 385 186 l 1,27,28
 369 172 369 172 346.5 156 c 128,-1,29
 324 140 324 140 294.5 129 c 128,-1,30
 265 118 265 118 226 118 c 0,31,32
 179 118 179 118 137.5 137 c 128,-1,33
 96 156 96 156 71 194.5 c 128,-1,34
 46 233 46 233 46 290 c 0,35,36
 46 344 46 344 71 383 c 128,-1,37
 96 422 96 422 141 443 c 128,-1,38
 186 464 186 464 244 464 c 0,39,40
 267 464 267 464 295.5 460.5 c 128,-1,41
 324 457 324 457 339 454 c 1,42,-1
 333 381 l 1,43,44
 317 385 317 385 292.5 388 c 128,-1,45
 268 391 268 391 249 391 c 0,46,47
 191 391 191 391 159 365 c 128,-1,48
 127 339 127 339 127 292 c 0,49,50
 127 239 127 239 157.5 213.5 c 128,-1,51
 188 188 188 188 228 188 c 0,52,53
 278 188 278 188 316.5 215 c 128,-1,54
 355 242 355 242 388 278 c 1,55,-1
 371 224 l 1,56,-1
 371 551 l 1,57,-1
 0 551 l 1,58,-1
 0 622 l 1,59,-1
 777 622 l 1,60,-1
 777 551 l 1,0,-1
EndSplineSet
EndChar

StartChar: uni0916
Encoding: 2326 2326 26
Width: 818
Flags: W
LayerCount: 2
Fore
SplineSet
265 551 m 1,0,-1
 276 561 l 1,1,2
 287 542 287 542 292.5 516.5 c 128,-1,3
 298 491 298 491 298 458 c 0,4,5
 298 402 298 402 281.5 362 c 128,-1,6
 265 322 265 322 234 295 c 128,-1,7
 203 268 203 268 159 250 c 1,8,-1
 163 257 l 1,9,10
 210 200 210 200 260 160 c 128,-1,11
 310 120 310 120 367 99.5 c 128,-1,12
 424 79 424 79 490 79 c 0,13,14
 541 79 541 79 586 93.5 c 128,-1,15
 631 108 631 108 674 139 c 1,16,-1
 691 75 l 1,17,18
 652 41 652 41 598 24 c 128,-1,19
 544 7 544 7 488 7 c 0,20,21
 434 7 434 7 382.5 20 c 128,-1,22
 331 33 331 33 281.5 60.5 c 128,-1,23
 232 88 232 88 183 132 c 128,-1,24
 134 176 134 176 85 239 c 0,25,26
 58 274 58 274 49 296.5 c 128,-1,27
 40 319 40 319 40 338 c 0,28,29
 40 359 40 359 55 376 c 128,-1,30
 70 393 70 393 104 393 c 0,31,32
 129 393 129 393 147.5 381.5 c 128,-1,33
 166 370 166 370 181 349.5 c 128,-1,34
 196 329 196 329 209 300 c 1,35,-1
 148 331 l 1,36,37
 176 339 176 339 190.5 359 c 128,-1,38
 205 379 205 379 211 405.5 c 128,-1,39
 217 432 217 432 217 458 c 0,40,41
 217 488 217 488 212 515.5 c 128,-1,42
 207 543 207 543 194 564 c 1,43,-1
 215 551 l 1,44,-1
 0 551 l 1,45,-1
 0 622 l 1,46,-1
 496 622 l 1,47,-1
 496 551 l 1,48,-1
 265 551 l 1,0,-1
729 551 m 1,49,-1
 729 0 l 1,50,-1
 648 0 l 1,51,-1
 648 551 l 1,52,-1
 461 551 l 1,53,-1
 461 622 l 1,54,-1
 833 622 l 1,55,-1
 833 551 l 1,56,-1
 729 551 l 1,49,-1
668 211 m 1,57,58
 646 194 646 194 608.5 179 c 128,-1,59
 571 164 571 164 521 164 c 0,60,61
 474 164 474 164 436.5 183.5 c 128,-1,62
 399 203 399 203 377.5 238 c 128,-1,63
 356 273 356 273 356 319 c 0,64,65
 356 368 356 368 378 402 c 128,-1,66
 400 436 400 436 439.5 454.5 c 128,-1,67
 479 473 479 473 531 473 c 0,68,69
 548 473 548 473 575 470.5 c 128,-1,70
 602 468 602 468 616 463 c 1,71,-1
 610 394 l 1,72,73
 595 398 595 398 576.5 401 c 128,-1,74
 558 404 558 404 540 404 c 0,75,76
 492 404 492 404 464.5 382 c 128,-1,77
 437 360 437 360 437 316 c 0,78,79
 437 273 437 273 464.5 252.5 c 128,-1,80
 492 232 492 232 534 232 c 0,81,82
 581 232 581 232 616.5 256.5 c 128,-1,83
 652 281 652 281 672 306 c 1,84,-1
 668 211 l 1,57,58
EndSplineSet
EndChar

StartChar: uni0917
Encoding: 2327 2327 27
Width: 563
Flags: W
LayerCount: 2
Fore
SplineSet
208 551 m 1,0,-1
 208 234 l 2,1,2
 208 208 208 208 195.5 193 c 128,-1,3
 183 178 183 178 160 178 c 0,4,5
 141 178 141 178 120 190 c 128,-1,6
 99 202 99 202 81 222 c 128,-1,7
 63 242 63 242 52 264.5 c 128,-1,8
 41 287 41 287 41 308 c 0,9,10
 41 331 41 331 54.5 345 c 128,-1,11
 68 359 68 359 102 359 c 2,12,-1
 127 359 l 1,13,-1
 127 551 l 1,14,-1
 0 551 l 1,15,-1
 0 622 l 1,16,-1
 578 622 l 1,17,-1
 578 551 l 1,18,-1
 474 551 l 1,19,-1
 474 0 l 1,20,-1
 393 0 l 1,21,-1
 393 551 l 1,22,-1
 208 551 l 1,0,-1
EndSplineSet
EndChar

StartChar: uni0918
Encoding: 2328 2328 28
Width: 591
Flags: W
LayerCount: 2
Fore
SplineSet
605 551 m 1,0,-1
 502 551 l 1,1,-1
 502 0 l 1,2,-1
 421 0 l 1,3,-1
 421 188 l 1,4,-1
 426 169 l 1,5,6
 405 155 405 155 380.5 143.5 c 128,-1,7
 356 132 356 132 326.5 125 c 128,-1,8
 297 118 297 118 259 118 c 0,9,10
 182 118 182 118 134 158.5 c 128,-1,11
 86 199 86 199 86 266 c 0,12,13
 86 298 86 298 99.5 327.5 c 128,-1,14
 113 357 113 357 141 377 c 1,15,-1
 151 391 l 1,16,17
 174 406 174 406 203 412.5 c 128,-1,18
 232 419 232 419 263 419 c 0,19,20
 275 419 275 419 288 418.5 c 128,-1,21
 301 418 301 418 308 417 c 1,22,-1
 302 347 l 1,23,24
 295 348 295 348 287 348 c 128,-1,25
 279 348 279 348 273 348 c 0,26,27
 240 348 240 348 216.5 339 c 128,-1,28
 193 330 193 330 180 312.5 c 128,-1,29
 167 295 167 295 167 269 c 0,30,31
 167 227 167 227 195 207.5 c 128,-1,32
 223 188 223 188 267 188 c 0,33,34
 321 188 321 188 360 211 c 128,-1,35
 399 234 399 234 424 263 c 1,36,-1
 421 246 l 1,37,-1
 421 551 l 1,38,-1
 0 551 l 1,39,-1
 0 622 l 1,40,-1
 605 622 l 1,41,-1
 605 551 l 1,0,-1
211 348 m 1,42,43
 161 348 161 348 123 368.5 c 128,-1,44
 85 389 85 389 63.5 423 c 128,-1,45
 42 457 42 457 42 497 c 0,46,47
 42 538 42 538 58.5 562.5 c 128,-1,48
 75 587 75 587 100 606 c 1,49,-1
 170 572 l 1,50,51
 149 559 149 559 136 539.5 c 128,-1,52
 123 520 123 520 123 494 c 0,53,54
 123 452 123 452 151 431.5 c 128,-1,55
 179 411 179 411 221 410 c 1,56,-1
 211 348 l 1,42,43
EndSplineSet
EndChar

StartChar: uni0919
Encoding: 2329 2329 29
Width: 647
GlyphClass: 2
Flags: W
AnchorPoint: "Anchor-2" 316 0 basechar 0
AnchorPoint: "Anchor-1" 330 0 basechar 0
AnchorPoint: "Anchor-0" 401 622 basechar 0
LayerCount: 2
Fore
SplineSet
358 222 m 0,0,1
 329 222 329 222 300 215 c 128,-1,2
 271 208 271 208 248 197 c 1,3,4
 218 215 218 215 192.5 238 c 128,-1,5
 167 261 167 261 152 289.5 c 128,-1,6
 137 318 137 318 137 352 c 0,7,8
 137 380 137 380 147 400 c 128,-1,9
 157 420 157 420 174 433 c 0,10,11
 189 445 189 445 207.5 452 c 128,-1,12
 226 459 226 459 250.5 462 c 128,-1,13
 275 465 275 465 308 465 c 2,14,-1
 401 465 l 1,15,-1
 401 551 l 1,16,-1
 0 551 l 1,17,-1
 0 622 l 1,18,-1
 662 622 l 1,19,-1
 662 551 l 1,20,-1
 482 551 l 1,21,-1
 482 394 l 1,22,-1
 298 394 l 2,23,24
 267 394 267 394 254 391 c 128,-1,25
 241 388 241 388 232 381 c 0,26,27
 225 375 225 375 221 366.5 c 128,-1,28
 217 358 217 358 217 347 c 0,29,30
 217 323 217 323 231 306.5 c 128,-1,31
 245 290 245 290 261 277 c 1,32,33
 284 285 284 285 310 289.5 c 128,-1,34
 336 294 336 294 362 294 c 0,35,36
 436 294 436 294 485 256.5 c 128,-1,37
 534 219 534 219 534 154 c 0,38,39
 534 109 534 109 512 74 c 128,-1,40
 490 39 490 39 446.5 19.5 c 128,-1,41
 403 0 403 0 337 0 c 0,42,43
 272 0 272 0 215.5 20 c 128,-1,44
 159 40 159 40 112 76 c 128,-1,45
 65 112 65 112 25 158 c 1,46,-1
 86 207 l 1,47,48
 143 139 143 139 202.5 106.5 c 128,-1,49
 262 74 262 74 337 74 c 0,50,51
 396 74 396 74 424.5 94.5 c 128,-1,52
 453 115 453 115 453 152 c 0,53,54
 453 186 453 186 428.5 204 c 128,-1,55
 404 222 404 222 358 222 c 0,0,1
511 337 m 0,56,57
 511 360 511 360 526 376 c 128,-1,58
 541 392 541 392 563 392 c 256,59,60
 585 392 585 392 600 376 c 128,-1,61
 615 360 615 360 615 337 c 0,62,63
 615 315 615 315 600 298.5 c 128,-1,64
 585 282 585 282 563 282 c 256,65,66
 541 282 541 282 526 298.5 c 128,-1,67
 511 315 511 315 511 337 c 0,56,57
EndSplineSet
Substitution2: "Single Substitution lookup 24 subtable" ngaaltdeva
EndChar

StartChar: uni091A
Encoding: 2330 2330 30
Width: 634
Flags: W
LayerCount: 2
Fore
SplineSet
649 551 m 1,0,-1
 545 551 l 1,1,-1
 545 0 l 1,2,-1
 465 0 l 1,3,-1
 465 186 l 1,4,-1
 468 167 l 1,5,6
 451 156 451 156 429 144.5 c 128,-1,7
 407 133 407 133 379.5 125.5 c 128,-1,8
 352 118 352 118 317 118 c 0,9,10
 240 118 240 118 190.5 161 c 128,-1,11
 141 204 141 204 141 275 c 0,12,13
 141 304 141 304 153.5 329.5 c 128,-1,14
 166 355 166 355 185 371 c 1,15,-1
 38 369 l 1,16,-1
 38 441 l 1,17,-1
 331 441 l 2,18,19
 349 441 349 441 367 440.5 c 128,-1,20
 385 440 385 440 389 440 c 2,21,-1
 382 370 l 1,22,-1
 350 370 l 2,23,24
 292 370 292 370 256.5 345.5 c 128,-1,25
 221 321 221 321 221 274 c 0,26,27
 221 246 221 246 234.5 226.5 c 128,-1,28
 248 207 248 207 270 197.5 c 128,-1,29
 292 188 292 188 317 188 c 0,30,31
 350 188 350 188 377 198 c 128,-1,32
 404 208 404 208 426 225 c 128,-1,33
 448 242 448 242 467 262 c 1,34,-1
 465 249 l 1,35,-1
 465 551 l 1,36,-1
 0 551 l 1,37,-1
 0 622 l 1,38,-1
 649 622 l 1,39,-1
 649 551 l 1,0,-1
EndSplineSet
EndChar

StartChar: uni091B
Encoding: 2331 2331 31
Width: 701
GlyphClass: 2
Flags: W
AnchorPoint: "Anchor-2" 348 0 basechar 0
AnchorPoint: "Anchor-1" 396 0 basechar 0
AnchorPoint: "Anchor-0" 455 622 basechar 0
LayerCount: 2
Fore
SplineSet
535 551 m 1,0,-1
 535 446 l 1,1,-1
 455 446 l 1,2,-1
 455 551 l 1,3,-1
 0 551 l 1,4,-1
 0 622 l 1,5,-1
 715 622 l 1,6,-1
 715 551 l 1,7,-1
 535 551 l 1,0,-1
296 70 m 0,8,9
 353 70 353 70 403.5 88 c 128,-1,10
 454 106 454 106 492.5 138.5 c 128,-1,11
 531 171 531 171 552.5 215 c 128,-1,12
 574 259 574 259 574 310 c 0,13,14
 574 357 574 357 551 388 c 128,-1,15
 528 419 528 419 487 419 c 0,16,17
 453 419 453 419 438.5 401 c 128,-1,18
 424 383 424 383 424 358 c 0,19,20
 424 326 424 326 450.5 300.5 c 128,-1,21
 477 275 477 275 535 261 c 1,22,-1
 502 198 l 1,23,24
 421 221 421 221 384 262.5 c 128,-1,25
 347 304 347 304 347 356 c 0,26,27
 347 411 347 411 383 447 c 128,-1,28
 419 483 419 483 487 483 c 0,29,30
 533 483 533 483 570.5 463.5 c 128,-1,31
 608 444 608 444 630.5 405.5 c 128,-1,32
 653 367 653 367 653 308 c 0,33,34
 653 250 653 250 628 195 c 128,-1,35
 603 140 603 140 556.5 96 c 128,-1,36
 510 52 510 52 444 26 c 128,-1,37
 378 0 378 0 296 0 c 0,38,39
 199 0 199 0 150 41.5 c 128,-1,40
 101 83 101 83 101 147 c 0,41,42
 101 174 101 174 113.5 202 c 128,-1,43
 126 230 126 230 152 249 c 0,44,45
 155 251 155 251 157 255.5 c 128,-1,46
 159 260 159 260 162 262 c 0,47,48
 183 276 183 276 210 283 c 128,-1,49
 237 290 237 290 266 290 c 0,50,51
 277 290 277 290 289 289 c 128,-1,52
 301 288 301 288 308 287 c 1,53,-1
 302 217 l 1,54,55
 296 218 296 218 288.5 218 c 128,-1,56
 281 218 281 218 276 218 c 0,57,58
 230 218 230 218 206 200.5 c 128,-1,59
 182 183 182 183 182 148 c 0,60,61
 182 108 182 108 213 89 c 128,-1,62
 244 70 244 70 296 70 c 0,8,9
199 209 m 1,63,64
 128 224 128 224 85.5 262.5 c 128,-1,65
 43 301 43 301 43 359 c 0,66,67
 43 399 43 399 63.5 426.5 c 128,-1,68
 84 454 84 454 121 468.5 c 128,-1,69
 158 483 158 483 206 483 c 0,70,71
 223 483 223 483 249 480.5 c 128,-1,72
 275 478 275 478 288 473 c 1,73,-1
 282 404 l 1,74,75
 268 408 268 408 250.5 411.5 c 128,-1,76
 233 415 233 415 212 415 c 0,77,78
 169 415 169 415 146.5 398.5 c 128,-1,79
 124 382 124 382 124 350 c 256,80,81
 124 318 124 318 151.5 301.5 c 128,-1,82
 179 285 179 285 219 277 c 1,83,-1
 199 209 l 1,63,64
EndSplineSet
Substitution2: "Single Substitution lookup 24 subtable" chaaltdeva
EndChar

StartChar: uni091C
Encoding: 2332 2332 32
Width: 742
Flags: W
LayerCount: 2
Fore
SplineSet
653 551 m 1,0,-1
 653 0 l 1,1,-1
 572 0 l 1,2,-1
 572 370 l 1,3,-1
 435 370 l 2,4,5
 409 370 409 370 393.5 371 c 128,-1,6
 378 372 378 372 369 375 c 1,7,-1
 362 385 l 1,8,9
 404 356 404 356 431 312 c 128,-1,10
 458 268 458 268 458 218 c 0,11,12
 458 172 458 172 437.5 141 c 128,-1,13
 417 110 417 110 383.5 95 c 128,-1,14
 350 80 350 80 310 80 c 256,15,16
 270 80 270 80 233.5 97 c 128,-1,17
 197 114 197 114 162.5 151.5 c 128,-1,18
 128 189 128 189 95.5 250.5 c 128,-1,19
 63 312 63 312 31 401 c 1,20,-1
 102 426 l 1,21,22
 133 337 133 337 165 276 c 128,-1,23
 197 215 197 215 232 184 c 128,-1,24
 267 153 267 153 306 153 c 0,25,26
 338 153 338 153 358.5 170 c 128,-1,27
 379 187 379 187 379 227 c 0,28,29
 379 271 379 271 348.5 310 c 128,-1,30
 318 349 318 349 273 377 c 1,31,-1
 302 441 l 1,32,-1
 572 441 l 1,33,-1
 572 551 l 1,34,-1
 0 551 l 1,35,-1
 0 622 l 1,36,-1
 757 622 l 1,37,-1
 757 551 l 1,38,-1
 653 551 l 1,0,-1
EndSplineSet
EndChar

StartChar: uni091D
Encoding: 2333 2333 33
Width: 756
Flags: W
LayerCount: 2
Fore
SplineSet
667 551 m 1,0,-1
 667 0 l 1,1,-1
 586 0 l 1,2,-1
 586 551 l 1,3,-1
 489 551 l 1,4,-1
 489 622 l 1,5,-1
 771 622 l 1,6,-1
 771 551 l 1,7,-1
 667 551 l 1,0,-1
271 222 m 0,8,9
 242 222 242 222 213 215 c 128,-1,10
 184 208 184 208 161 197 c 1,11,12
 130 216 130 216 104.5 239 c 128,-1,13
 79 262 79 262 64.5 290 c 128,-1,14
 50 318 50 318 50 352 c 0,15,16
 50 380 50 380 60 400 c 128,-1,17
 70 420 70 420 87 433 c 0,18,19
 102 445 102 445 119.5 452 c 128,-1,20
 137 459 137 459 160.5 462 c 128,-1,21
 184 465 184 465 218 465 c 2,22,-1
 314 465 l 1,23,-1
 314 551 l 1,24,-1
 0 551 l 1,25,-1
 0 622 l 1,26,-1
 505 622 l 1,27,-1
 505 551 l 1,28,-1
 395 551 l 1,29,-1
 395 394 l 1,30,-1
 211 394 l 2,31,32
 180 394 180 394 167 391 c 128,-1,33
 154 388 154 388 145 381 c 0,34,35
 138 375 138 375 134 366.5 c 128,-1,36
 130 358 130 358 130 347 c 0,37,38
 130 323 130 323 144 306.5 c 128,-1,39
 158 290 158 290 174 277 c 1,40,41
 197 285 197 285 223 289.5 c 128,-1,42
 249 294 249 294 275 294 c 0,43,44
 325 294 325 294 363.5 277 c 128,-1,45
 402 260 402 260 424.5 228.5 c 128,-1,46
 447 197 447 197 447 154 c 0,47,48
 447 103 447 103 421 69 c 128,-1,49
 395 35 395 35 346.5 17.5 c 128,-1,50
 298 0 298 0 230 0 c 0,51,52
 218 0 218 0 207 0 c 128,-1,53
 196 0 196 0 185 1 c 0,54,55
 143 3 143 3 112.5 9 c 128,-1,56
 82 15 82 15 65 29 c 128,-1,57
 48 43 48 43 48 65 c 256,58,59
 48 87 48 87 61.5 101.5 c 128,-1,60
 75 116 75 116 101 116 c 0,61,62
 129 116 129 116 159.5 96 c 128,-1,63
 190 76 190 76 241 25 c 1,64,65
 265 13 265 13 293 2 c 128,-1,66
 321 -9 321 -9 352 -19.5 c 128,-1,67
 383 -30 383 -30 415 -40 c 1,68,-1
 382 -110 l 1,69,70
 312 -78 312 -78 249.5 -42.5 c 128,-1,71
 187 -7 187 -7 135 28 c 1,72,-1
 99 92 l 1,73,74
 126 80 126 80 162.5 74 c 128,-1,75
 199 68 199 68 219 68 c 0,76,77
 289 68 289 68 327.5 88.5 c 128,-1,78
 366 109 366 109 366 153 c 0,79,80
 366 175 366 175 355 190.5 c 128,-1,81
 344 206 344 206 323 214 c 128,-1,82
 302 222 302 222 271 222 c 0,8,9
480 268 m 0,83,84
 522 268 522 268 556 275.5 c 128,-1,85
 590 283 590 283 637 300 c 1,86,-1
 637 228 l 1,87,88
 594 209 594 209 561 203 c 128,-1,89
 528 197 528 197 484 197 c 0,90,91
 462 197 462 197 434 203 c 128,-1,92
 406 209 406 209 387 217 c 1,93,-1
 339 268 l 1,94,-1
 345 283 l 1,95,96
 365 279 365 279 385.5 275.5 c 128,-1,97
 406 272 406 272 429.5 270 c 128,-1,98
 453 268 453 268 480 268 c 0,83,84
EndSplineSet
Substitution2: "'locl' Localized Forms in Devanagari2 lookup 30 subtable" jhadevaNEP
Substitution2: "'aalt' Access All Alternates in Devanagari2 lookup 0 subtable" jhadevaNEP
EndChar

StartChar: uni091E
Encoding: 2334 2334 34
Width: 742
Flags: W
LayerCount: 2
Fore
SplineSet
653 551 m 1,0,-1
 653 0 l 1,1,-1
 572 0 l 1,2,-1
 572 551 l 1,3,-1
 0 551 l 1,4,-1
 0 622 l 1,5,-1
 756 622 l 1,6,-1
 756 551 l 1,7,-1
 653 551 l 1,0,-1
646 290 m 1,8,9
 615 269 615 269 576 257 c 128,-1,10
 537 245 537 245 484 245 c 0,11,12
 472 245 472 245 465.5 246 c 128,-1,13
 459 247 459 247 448 249 c 1,14,-1
 437 326 l 1,15,16
 447 322 447 322 461 318.5 c 128,-1,17
 475 315 475 315 493 315 c 0,18,19
 549 315 549 315 584.5 339 c 128,-1,20
 620 363 620 363 646 391 c 1,21,-1
 646 290 l 1,8,9
192 420 m 1,22,23
 223 434 223 434 255.5 440 c 128,-1,24
 288 446 288 446 315 446 c 0,25,26
 389 446 389 446 438 405 c 128,-1,27
 487 364 487 364 487 287 c 0,28,29
 487 237 487 237 469 204 c 128,-1,30
 451 171 451 171 422.5 152 c 128,-1,31
 394 133 394 133 361.5 125.5 c 128,-1,32
 329 118 329 118 300 118 c 0,33,34
 243 118 243 118 194 141.5 c 128,-1,35
 145 165 145 165 104 213.5 c 128,-1,36
 63 262 63 262 29 338 c 1,37,-1
 98 365 l 1,38,39
 139 272 139 272 183.5 232 c 128,-1,40
 228 192 228 192 294 192 c 0,41,42
 349 192 349 192 380 218 c 128,-1,43
 411 244 411 244 411 287 c 0,44,45
 411 333 411 333 382.5 353 c 128,-1,46
 354 373 354 373 313 373 c 0,47,48
 288 373 288 373 265 366 c 128,-1,49
 242 359 242 359 219 348 c 1,50,-1
 192 420 l 1,22,23
EndSplineSet
EndChar

StartChar: uni091F
Encoding: 2335 2335 35
Width: 504
GlyphClass: 2
Flags: W
AnchorPoint: "Anchor-2" 277 0 basechar 0
AnchorPoint: "Anchor-1" 290 0 basechar 0
AnchorPoint: "Anchor-0" 290 622 basechar 0
LayerCount: 2
Fore
SplineSet
519 551 m 1,0,-1
 371 551 l 1,1,-1
 371 349 l 1,2,-1
 316 349 l 2,3,4
 268 349 268 349 236 341 c 128,-1,5
 204 333 204 333 181 318 c 0,6,7
 155 300 155 300 140.5 274 c 128,-1,8
 126 248 126 248 126 215 c 0,9,10
 126 167 126 167 148 135.5 c 128,-1,11
 170 104 170 104 205.5 89 c 128,-1,12
 241 74 241 74 283 74 c 0,13,14
 337 74 337 74 375 86.5 c 128,-1,15
 413 99 413 99 455 121 c 1,16,-1
 482 47 l 1,17,18
 438 27 438 27 388.5 13.5 c 128,-1,19
 339 0 339 0 286 0 c 0,20,21
 217 0 217 0 162.5 26 c 128,-1,22
 108 52 108 52 77 101 c 128,-1,23
 46 150 46 150 46 220 c 0,24,25
 46 285 46 285 80 329.5 c 128,-1,26
 114 374 114 374 169.5 397 c 128,-1,27
 225 420 225 420 288 420 c 2,28,-1
 293 420 l 1,29,-1
 290 416 l 1,30,-1
 290 551 l 1,31,-1
 0 551 l 1,32,-1
 0 622 l 1,33,-1
 519 622 l 1,34,-1
 519 551 l 1,0,-1
EndSplineSet
Substitution2: "Single Substitution lookup 24 subtable" ttaaltdeva
EndChar

StartChar: uni0920
Encoding: 2336 2336 36
Width: 585
GlyphClass: 2
Flags: W
AnchorPoint: "Anchor-2" 292 0 basechar 0
AnchorPoint: "Anchor-1" 322 0 basechar 0
AnchorPoint: "Anchor-0" 290 622 basechar 0
LayerCount: 2
Fore
SplineSet
600 551 m 1,0,-1
 371 551 l 1,1,-1
 371 414 l 1,2,3
 451 384 451 384 495 327.5 c 128,-1,4
 539 271 539 271 539 198 c 0,5,6
 539 128 539 128 506 84.5 c 128,-1,7
 473 41 473 41 418 20.5 c 128,-1,8
 363 0 363 0 297 0 c 0,9,10
 222 0 222 0 165.5 25 c 128,-1,11
 109 50 109 50 77.5 98.5 c 128,-1,12
 46 147 46 147 46 216 c 0,13,14
 46 283 46 283 80 328.5 c 128,-1,15
 114 374 114 374 169.5 397 c 128,-1,16
 225 420 225 420 287 420 c 2,17,-1
 294 420 l 1,18,-1
 290 415 l 1,19,-1
 290 551 l 1,20,-1
 0 551 l 1,21,-1
 0 622 l 1,22,-1
 600 622 l 1,23,-1
 600 551 l 1,0,-1
293 72 m 0,24,25
 341 72 341 72 378 85.5 c 128,-1,26
 415 99 415 99 436.5 127.5 c 128,-1,27
 458 156 458 156 458 200 c 0,28,29
 458 248 458 248 429 286.5 c 128,-1,30
 400 325 400 325 343 349 c 1,31,-1
 308 349 l 2,32,33
 271 349 271 349 240.5 342 c 128,-1,34
 210 335 210 335 187 321 c 0,35,36
 159 304 159 304 142.5 276.5 c 128,-1,37
 126 249 126 249 126 210 c 0,38,39
 126 140 126 140 173.5 106 c 128,-1,40
 221 72 221 72 293 72 c 0,24,25
EndSplineSet
Substitution2: "Single Substitution lookup 24 subtable" tthaaltdeva
EndChar

StartChar: uni0921
Encoding: 2337 2337 37
Width: 577
GlyphClass: 2
Flags: W
AnchorPoint: "Anchor-2" 316 0 basechar 0
AnchorPoint: "Anchor-1" 330 0 basechar 0
AnchorPoint: "Anchor-0" 401 622 basechar 0
LayerCount: 2
Fore
SplineSet
358 222 m 0,0,1
 329 222 329 222 300 215 c 128,-1,2
 271 208 271 208 248 197 c 1,3,4
 217 216 217 216 191.5 239 c 128,-1,5
 166 262 166 262 151.5 290 c 128,-1,6
 137 318 137 318 137 352 c 0,7,8
 137 380 137 380 147 400 c 128,-1,9
 157 420 157 420 174 433 c 0,10,11
 189 445 189 445 207.5 452 c 128,-1,12
 226 459 226 459 250.5 462 c 128,-1,13
 275 465 275 465 308 465 c 2,14,-1
 401 465 l 1,15,-1
 401 551 l 1,16,-1
 0 551 l 1,17,-1
 0 622 l 1,18,-1
 592 622 l 1,19,-1
 592 551 l 1,20,-1
 482 551 l 1,21,-1
 482 394 l 1,22,-1
 298 394 l 2,23,24
 267 394 267 394 254 391 c 128,-1,25
 241 388 241 388 232 381 c 0,26,27
 225 375 225 375 221 366.5 c 128,-1,28
 217 358 217 358 217 347 c 0,29,30
 217 323 217 323 231 306.5 c 128,-1,31
 245 290 245 290 261 277 c 1,32,33
 284 285 284 285 310 289.5 c 128,-1,34
 336 294 336 294 362 294 c 0,35,36
 436 294 436 294 485 256.5 c 128,-1,37
 534 219 534 219 534 154 c 0,38,39
 534 109 534 109 512 74.5 c 128,-1,40
 490 40 490 40 446.5 20 c 128,-1,41
 403 0 403 0 337 0 c 0,42,43
 272 0 272 0 215.5 20 c 128,-1,44
 159 40 159 40 112 76 c 128,-1,45
 65 112 65 112 25 158 c 1,46,-1
 86 207 l 1,47,48
 143 139 143 139 202.5 106.5 c 128,-1,49
 262 74 262 74 337 74 c 0,50,51
 396 74 396 74 424.5 94.5 c 128,-1,52
 453 115 453 115 453 152 c 0,53,54
 453 187 453 187 428.5 204.5 c 128,-1,55
 404 222 404 222 358 222 c 0,0,1
EndSplineSet
Substitution2: "Single Substitution lookup 24 subtable" ddaaltdeva
EndChar

StartChar: uni0922
Encoding: 2338 2338 38
Width: 563
GlyphClass: 2
Flags: W
AnchorPoint: "Anchor-2" 285 0 basechar 0
AnchorPoint: "Anchor-1" 305 0 basechar 0
AnchorPoint: "Anchor-0" 305 622 basechar 0
LayerCount: 2
Fore
SplineSet
307 0 m 0,0,1
 229 0 229 0 170.5 27.5 c 128,-1,2
 112 55 112 55 79 106.5 c 128,-1,3
 46 158 46 158 46 231 c 0,4,5
 46 301 46 301 82 348.5 c 128,-1,6
 118 396 118 396 177.5 420.5 c 128,-1,7
 237 445 237 445 307 446 c 2,8,-1
 314 446 l 1,9,-1
 305 435 l 1,10,-1
 305 551 l 1,11,-1
 0 551 l 1,12,-1
 0 622 l 1,13,-1
 577 622 l 1,14,-1
 577 551 l 1,15,-1
 385 551 l 1,16,-1
 385 375 l 1,17,-1
 346 375 l 2,18,19
 282 375 282 375 247.5 366.5 c 128,-1,20
 213 358 213 358 188 341 c 0,21,22
 158 322 158 322 142 292 c 128,-1,23
 126 262 126 262 126 221 c 0,24,25
 126 178 126 178 143.5 146.5 c 128,-1,26
 161 115 161 115 195 96 c 128,-1,27
 229 77 229 77 276 70 c 0,28,29
 284 69 284 69 298 69.5 c 128,-1,30
 312 70 312 70 320 70 c 0,31,32
 376 70 376 70 412 93 c 128,-1,33
 448 116 448 116 448 157 c 0,34,35
 448 187 448 187 430.5 204 c 128,-1,36
 413 221 413 221 385 221 c 0,37,38
 350 221 350 221 328 199.5 c 128,-1,39
 306 178 306 178 306 140 c 0,40,41
 306 112 306 112 315 88.5 c 128,-1,42
 324 65 324 65 344 36 c 1,43,-1
 273 22 l 1,44,45
 254 57 254 57 243.5 88.5 c 128,-1,46
 233 120 233 120 233 157 c 0,47,48
 233 191 233 191 249.5 221 c 128,-1,49
 266 251 266 251 298.5 269.5 c 128,-1,50
 331 288 331 288 380 288 c 256,51,52
 429 288 429 288 460.5 269.5 c 128,-1,53
 492 251 492 251 507.5 221 c 128,-1,54
 523 191 523 191 523 157 c 0,55,56
 523 87 523 87 465.5 43.5 c 128,-1,57
 408 0 408 0 307 0 c 0,0,1
EndSplineSet
Substitution2: "Single Substitution lookup 24 subtable" ddhaaltdeva
EndChar

StartChar: uni0923
Encoding: 2339 2339 39
Width: 723
Flags: W
LayerCount: 2
Fore
SplineSet
634 551 m 1,0,-1
 634 0 l 1,1,-1
 553 0 l 1,2,-1
 553 551 l 1,3,-1
 420 551 l 1,4,-1
 420 321 l 2,5,6
 420 293 420 293 416 271 c 128,-1,7
 412 249 412 249 404.5 231 c 128,-1,8
 397 213 397 213 385 198 c 0,9,10
 364 173 364 173 331 159.5 c 128,-1,11
 298 146 298 146 251 146 c 256,12,13
 204 146 204 146 170 161 c 128,-1,14
 136 176 136 176 114 205 c 0,15,16
 97 228 97 228 88 263 c 128,-1,17
 79 298 79 298 79 352 c 2,18,-1
 79 551 l 1,19,-1
 0 551 l 1,20,-1
 0 622 l 1,21,-1
 737 622 l 1,22,-1
 737 551 l 1,23,-1
 634 551 l 1,0,-1
249 217 m 0,24,25
 301 217 301 217 321 249 c 0,26,27
 332 266 332 266 335.5 288 c 128,-1,28
 339 310 339 310 339 353 c 2,29,-1
 339 551 l 1,30,-1
 160 551 l 1,31,-1
 160 353 l 2,32,33
 160 314 160 314 164 291 c 128,-1,34
 168 268 168 268 178 251 c 0,35,36
 189 235 189 235 205.5 226 c 128,-1,37
 222 217 222 217 249 217 c 0,24,25
EndSplineSet
EndChar

StartChar: uni0924
Encoding: 2340 2340 40
Width: 570
Flags: W
LayerCount: 2
Fore
SplineSet
481 551 m 1,0,-1
 481 0 l 1,1,-1
 400 0 l 1,2,-1
 400 328 l 1,3,-1
 291 328 l 2,4,5
 230 328 230 328 199.5 322 c 128,-1,6
 169 316 169 316 150 299 c 0,7,8
 138 289 138 289 132 274 c 128,-1,9
 126 259 126 259 126 237 c 0,10,11
 126 204 126 204 142.5 173.5 c 128,-1,12
 159 143 159 143 191.5 110.5 c 128,-1,13
 224 78 224 78 271 40 c 1,14,-1
 217 -12 l 1,15,16
 171 28 171 28 131.5 68 c 128,-1,17
 92 108 92 108 68.5 151 c 128,-1,18
 45 194 45 194 45 242 c 0,19,20
 45 277 45 277 58.5 305 c 128,-1,21
 72 333 72 333 93 351 c 0,22,23
 112 368 112 368 136 378.5 c 128,-1,24
 160 389 160 389 193.5 394 c 128,-1,25
 227 399 227 399 272 399 c 2,26,-1
 400 399 l 1,27,-1
 400 551 l 1,28,-1
 0 551 l 1,29,-1
 0 622 l 1,30,-1
 584 622 l 1,31,-1
 584 551 l 1,32,-1
 481 551 l 1,0,-1
EndSplineSet
EndChar

StartChar: uni0925
Encoding: 2341 2341 41
Width: 642
Flags: W
LayerCount: 2
Fore
SplineSet
472 216 m 1,0,-1
 487 191 l 1,1,2
 468 177 468 177 442 163 c 128,-1,3
 416 149 416 149 383 140.5 c 128,-1,4
 350 132 350 132 308 132 c 0,5,6
 223 132 223 132 163.5 180.5 c 128,-1,7
 104 229 104 229 83 322 c 1,8,9
 146 336 146 336 184 356 c 128,-1,10
 222 376 222 376 238.5 403.5 c 128,-1,11
 255 431 255 431 255 467 c 0,12,13
 255 517 255 517 231.5 542.5 c 128,-1,14
 208 568 208 568 171 568 c 0,15,16
 146 568 146 568 130 556 c 128,-1,17
 114 544 114 544 114 521 c 0,18,19
 114 504 114 504 122.5 491.5 c 128,-1,20
 131 479 131 479 149 471.5 c 128,-1,21
 167 464 167 464 195 461 c 1,22,-1
 187 391 l 1,23,24
 122 400 122 400 84 430.5 c 128,-1,25
 46 461 46 461 46 519 c 0,26,27
 46 557 46 557 62.5 582 c 128,-1,28
 79 607 79 607 108 619.5 c 128,-1,29
 137 632 137 632 172 632 c 0,30,31
 213 632 213 632 250.5 614.5 c 128,-1,32
 288 597 288 597 312 561 c 128,-1,33
 336 525 336 525 336 469 c 0,34,35
 336 416 336 416 315 377 c 128,-1,36
 294 338 294 338 253.5 310.5 c 128,-1,37
 213 283 213 283 154 264 c 1,38,-1
 168 297 l 1,39,40
 195 249 195 249 225.5 226 c 128,-1,41
 256 203 256 203 314 203 c 0,42,43
 373 203 373 203 413.5 228.5 c 128,-1,44
 454 254 454 254 489 293 c 1,45,-1
 472 239 l 1,46,-1
 472 551 l 1,47,-1
 390 551 l 1,48,-1
 390 622 l 1,49,-1
 656 622 l 1,50,-1
 656 551 l 1,51,-1
 553 551 l 1,52,-1
 553 0 l 1,53,-1
 472 0 l 1,54,-1
 472 216 l 1,0,-1
EndSplineSet
EndChar

StartChar: uni0926
Encoding: 2342 2342 42
Width: 520
GlyphClass: 2
Flags: W
AnchorPoint: "Anchor-2" 279 0 basechar 0
AnchorPoint: "Anchor-1" 396 0 basechar 0
AnchorPoint: "Anchor-0" 295 622 basechar 0
LayerCount: 2
Fore
SplineSet
413 -58 m 1,0,1
 397 -32 397 -32 382 -5 c 128,-1,2
 367 22 367 22 355 46.5 c 128,-1,3
 343 71 343 71 335 89 c 2,4,-1
 321 121 l 2,5,6
 315 129 315 129 310.5 147 c 128,-1,7
 306 165 306 165 306 176 c 0,8,9
 306 211 306 211 327 225.5 c 128,-1,10
 348 240 348 240 373 240 c 0,11,12
 416 240 416 240 438.5 215.5 c 128,-1,13
 461 191 461 191 461 162 c 0,14,15
 461 135 461 135 451 118.5 c 128,-1,16
 441 102 441 102 424 93 c 128,-1,17
 407 84 407 84 386 79 c 2,18,-1
 361 77 l 2,19,20
 348 73 348 73 328.5 70.5 c 128,-1,21
 309 68 309 68 287 68 c 0,22,23
 245 68 245 68 202.5 78.5 c 128,-1,24
 160 89 160 89 124.5 112.5 c 128,-1,25
 89 136 89 136 67.5 175.5 c 128,-1,26
 46 215 46 215 46 272 c 0,27,28
 46 316 46 316 61.5 347.5 c 128,-1,29
 77 379 77 379 102 401 c 0,30,31
 135 430 135 430 183 443 c 128,-1,32
 231 456 231 456 290 456 c 2,33,-1
 331 456 l 1,34,-1
 295 420 l 1,35,-1
 295 551 l 1,36,-1
 0 551 l 1,37,-1
 0 622 l 1,38,-1
 534 622 l 1,39,-1
 534 551 l 1,40,-1
 376 551 l 1,41,-1
 376 385 l 1,42,-1
 327 385 l 2,43,44
 269 385 269 385 233.5 378 c 128,-1,45
 198 371 198 371 173 355 c 0,46,47
 151 340 151 340 138.5 317 c 128,-1,48
 126 294 126 294 126 262 c 0,49,50
 126 209 126 209 165.5 174.5 c 128,-1,51
 205 140 205 140 287 140 c 0,52,53
 299 140 299 140 312 141 c 128,-1,54
 325 142 325 142 353 148 c 1,55,-1
 401 104 l 1,56,57
 415 75 415 75 432.5 46 c 128,-1,58
 450 17 450 17 480 -24 c 1,59,-1
 413 -58 l 1,0,1
EndSplineSet
EndChar

StartChar: uni0927
Encoding: 2343 2343 43
Width: 615
Flags: W
LayerCount: 2
Fore
SplineSet
630 551 m 1,0,-1
 526 551 l 1,1,-1
 526 0 l 1,2,-1
 445 0 l 1,3,-1
 445 186 l 1,4,-1
 463 161 l 1,5,6
 439 146 439 146 414.5 132.5 c 128,-1,7
 390 119 390 119 358.5 111 c 128,-1,8
 327 103 327 103 283 103 c 0,9,10
 206 103 206 103 158.5 143.5 c 128,-1,11
 111 184 111 184 111 251 c 0,12,13
 111 283 111 283 124 312.5 c 128,-1,14
 137 342 137 342 166 363 c 0,15,16
 168 365 168 365 170 369.5 c 128,-1,17
 172 374 172 374 176 376 c 0,18,19
 199 391 199 391 228 398 c 128,-1,20
 257 405 257 405 288 405 c 0,21,22
 299 405 299 405 312.5 404 c 128,-1,23
 326 403 326 403 333 402 c 1,24,-1
 326 332 l 1,25,26
 320 333 320 333 311.5 333 c 128,-1,27
 303 333 303 333 298 333 c 0,28,29
 265 333 265 333 241 324 c 128,-1,30
 217 315 217 315 204 297.5 c 128,-1,31
 191 280 191 280 191 254 c 0,32,33
 191 213 191 213 219.5 193 c 128,-1,34
 248 173 248 173 292 173 c 0,35,36
 353 173 353 173 392.5 200.5 c 128,-1,37
 432 228 432 228 459 261 c 1,38,-1
 445 209 l 1,39,-1
 445 551 l 1,40,-1
 383 551 l 1,41,-1
 383 622 l 1,42,-1
 630 622 l 1,43,-1
 630 551 l 1,0,-1
225 330 m 1,44,45
 174 336 174 336 132.5 355 c 128,-1,46
 91 374 91 374 66.5 408 c 128,-1,47
 42 442 42 442 42 493 c 0,48,49
 42 533 42 533 61 564.5 c 128,-1,50
 80 596 80 596 112.5 614 c 128,-1,51
 145 632 145 632 187 632 c 0,52,53
 240 632 240 632 275.5 604 c 128,-1,54
 311 576 311 576 311 531 c 0,55,56
 311 507 311 507 301 485.5 c 128,-1,57
 291 464 291 464 271 443 c 1,58,-1
 210 482 l 1,59,60
 221 492 221 492 225.5 503.5 c 128,-1,61
 230 515 230 515 230 526 c 0,62,63
 230 541 230 541 220 554.5 c 128,-1,64
 210 568 210 568 184 568 c 0,65,66
 156 568 156 568 136 546 c 128,-1,67
 116 524 116 524 116 489 c 256,68,69
 116 454 116 454 134 434.5 c 128,-1,70
 152 415 152 415 179.5 406.5 c 128,-1,71
 207 398 207 398 236 396 c 1,72,-1
 225 330 l 1,44,45
EndSplineSet
EndChar

StartChar: uni0928
Encoding: 2344 2344 44
Width: 555
Flags: W
LayerCount: 2
Fore
SplineSet
0 622 m 1,0,-1
 569 622 l 1,1,-1
 569 551 l 1,2,-1
 466 551 l 1,3,-1
 466 0 l 1,4,-1
 385 0 l 1,5,-1
 385 298 l 1,6,-1
 204 298 l 1,7,-1
 204 244 l 2,8,9
 204 216 204 216 190 202 c 128,-1,10
 176 188 176 188 153 188 c 0,11,12
 135 188 135 188 114.5 200 c 128,-1,13
 94 212 94 212 76.5 232 c 128,-1,14
 59 252 59 252 48 274.5 c 128,-1,15
 37 297 37 297 37 318 c 0,16,17
 37 341 37 341 50.5 355 c 128,-1,18
 64 369 64 369 98 369 c 2,19,-1
 385 369 l 1,20,-1
 385 551 l 1,21,-1
 0 551 l 1,22,-1
 0 622 l 1,0,-1
EndSplineSet
EndChar

StartChar: uni092A
Encoding: 2346 2346 46
Width: 568
Flags: W
LayerCount: 2
Fore
SplineSet
479 551 m 1,0,-1
 479 0 l 1,1,-1
 398 0 l 1,2,-1
 398 227 l 1,3,-1
 417 203 l 1,4,5
 396 189 396 189 372 175.5 c 128,-1,6
 348 162 348 162 319.5 154 c 128,-1,7
 291 146 291 146 254 146 c 0,8,9
 214 146 214 146 181.5 159.5 c 128,-1,10
 149 173 149 173 128 194 c 0,11,12
 111 212 111 212 100 233.5 c 128,-1,13
 89 255 89 255 84 285 c 128,-1,14
 79 315 79 315 79 358 c 2,15,-1
 79 551 l 1,16,-1
 0 551 l 1,17,-1
 0 622 l 1,18,-1
 583 622 l 1,19,-1
 583 551 l 1,20,-1
 479 551 l 1,0,-1
398 551 m 1,21,-1
 160 551 l 1,22,-1
 160 369 l 2,23,24
 160 328 160 328 163 304 c 128,-1,25
 166 280 166 280 172.5 265.5 c 128,-1,26
 179 251 179 251 190 240 c 0,27,28
 202 228 202 228 220 222.5 c 128,-1,29
 238 217 238 217 263 217 c 0,30,31
 294 217 294 217 322.5 229 c 128,-1,32
 351 241 351 241 374.5 259.5 c 128,-1,33
 398 278 398 278 414 298 c 1,34,-1
 398 246 l 1,35,-1
 398 551 l 1,21,-1
EndSplineSet
EndChar

StartChar: uni092B
Encoding: 2347 2347 47
Width: 771
GlyphClass: 2
Flags: W
AnchorPoint: "Anchor-2" 419 0 basechar 0
AnchorPoint: "Anchor-1" 379 0 basechar 0
AnchorPoint: "Anchor-0" 379 622 basechar 0
LayerCount: 2
Fore
SplineSet
460 551 m 1,0,-1
 460 313 l 1,1,-1
 442 330 l 1,2,3
 470 363 470 363 503 381 c 128,-1,4
 536 399 536 399 578 399 c 0,5,6
 643 399 643 399 684 357.5 c 128,-1,7
 725 316 725 316 725 239 c 0,8,9
 725 193 725 193 710 141 c 128,-1,10
 695 89 695 89 660 39 c 1,11,-1
 588 80 l 1,12,13
 613 112 613 112 629 154 c 128,-1,14
 645 196 645 196 645 237 c 0,15,16
 645 284 645 284 625 307 c 128,-1,17
 605 330 605 330 570 330 c 0,18,19
 550 330 550 330 528 318.5 c 128,-1,20
 506 307 506 307 484 284.5 c 128,-1,21
 462 262 462 262 440 230 c 1,22,-1
 460 293 l 1,23,-1
 460 0 l 1,24,-1
 379 0 l 1,25,-1
 379 229 l 1,26,-1
 395 206 l 1,27,28
 370 184 370 184 334.5 165 c 128,-1,29
 299 146 299 146 248 146 c 0,30,31
 208 146 208 146 176 160.5 c 128,-1,32
 144 175 144 175 125 197 c 0,33,34
 109 216 109 216 98.5 238 c 128,-1,35
 88 260 88 260 83.5 288 c 128,-1,36
 79 316 79 316 79 354 c 2,37,-1
 79 551 l 1,38,-1
 0 551 l 1,39,-1
 0 622 l 1,40,-1
 786 622 l 1,41,-1
 786 551 l 1,42,-1
 460 551 l 1,0,-1
160 551 m 1,43,-1
 160 360 l 2,44,45
 160 305 160 305 166 281 c 128,-1,46
 172 257 172 257 188 240 c 0,47,48
 199 228 199 228 214 222.5 c 128,-1,49
 229 217 229 217 248 217 c 0,50,51
 281 217 281 217 307 227.5 c 128,-1,52
 333 238 333 238 355.5 256.5 c 128,-1,53
 378 275 378 275 397 297 c 1,54,-1
 379 243 l 1,55,-1
 379 551 l 1,56,-1
 160 551 l 1,43,-1
EndSplineSet
EndChar

StartChar: uni092C
Encoding: 2348 2348 48
Width: 571
Flags: W
LayerCount: 2
Fore
SplineSet
585 551 m 1,0,-1
 482 551 l 1,1,-1
 482 0 l 1,2,-1
 401 0 l 1,3,-1
 401 201 l 1,4,-1
 416 175 l 1,5,6
 398 162 398 162 373.5 148.5 c 128,-1,7
 349 135 349 135 316.5 126.5 c 128,-1,8
 284 118 284 118 241 118 c 0,9,10
 185 118 185 118 140.5 139 c 128,-1,11
 96 160 96 160 71 197.5 c 128,-1,12
 46 235 46 235 46 286 c 0,13,14
 46 343 46 343 73.5 383 c 128,-1,15
 101 423 101 423 150.5 443.5 c 128,-1,16
 200 464 200 464 265 464 c 0,17,18
 279 464 279 464 299 462.5 c 128,-1,19
 319 461 319 461 338.5 459 c 128,-1,20
 358 457 358 457 369 454 c 1,21,-1
 363 385 l 1,22,23
 343 389 343 389 318 392 c 128,-1,24
 293 395 293 395 268 395 c 0,25,26
 202 395 202 395 164.5 367.5 c 128,-1,27
 127 340 127 340 127 287 c 0,28,29
 127 235 127 235 160.5 209.5 c 128,-1,30
 194 184 194 184 242 184 c 0,31,32
 283 184 283 184 315.5 197 c 128,-1,33
 348 210 348 210 372.5 230 c 128,-1,34
 397 250 397 250 414 271 c 1,35,-1
 401 220 l 1,36,-1
 401 551 l 1,37,-1
 0 551 l 1,38,-1
 0 622 l 1,39,-1
 585 622 l 1,40,-1
 585 551 l 1,0,-1
205 424 m 1,41,-1
 377 209 l 1,42,-1
 331 167 l 1,43,-1
 143 401 l 1,44,-1
 205 424 l 1,41,-1
EndSplineSet
EndChar

StartChar: uni092D
Encoding: 2349 2349 49
Width: 703
Flags: W
LayerCount: 2
Fore
SplineSet
174 632 m 0,0,1
 211 632 211 632 240 621.5 c 128,-1,2
 269 611 269 611 291 586 c 0,3,4
 309 567 309 567 320.5 533 c 128,-1,5
 332 499 332 499 332 437 c 2,6,-1
 332 321 l 1,7,-1
 533 321 l 1,8,-1
 533 551 l 1,9,-1
 402 551 l 1,10,-1
 402 622 l 1,11,-1
 717 622 l 1,12,-1
 717 551 l 1,13,-1
 614 551 l 1,14,-1
 614 0 l 1,15,-1
 533 0 l 1,16,-1
 533 250 l 1,17,-1
 332 250 l 1,18,-1
 332 213 l 2,19,20
 332 180 332 180 317.5 165.5 c 128,-1,21
 303 151 303 151 283 151 c 0,22,23
 264 151 264 151 243 163.5 c 128,-1,24
 222 176 222 176 204 195.5 c 128,-1,25
 186 215 186 215 175 237 c 128,-1,26
 164 259 164 259 164 278 c 0,27,28
 164 296 164 296 177.5 308.5 c 128,-1,29
 191 321 191 321 224 321 c 2,30,-1
 253 321 l 1,31,-1
 253 426 l 2,32,33
 253 473 253 473 248 498 c 128,-1,34
 243 523 243 523 232 538 c 0,35,36
 222 554 222 554 205.5 561 c 128,-1,37
 189 568 189 568 169 568 c 0,38,39
 142 568 142 568 128 555 c 128,-1,40
 114 542 114 542 114 521 c 0,41,42
 114 503 114 503 124 490 c 128,-1,43
 134 477 134 477 157 469.5 c 128,-1,44
 180 462 180 462 218 460 c 1,45,-1
 210 389 l 1,46,47
 135 395 135 395 90.5 425.5 c 128,-1,48
 46 456 46 456 46 520 c 0,49,50
 46 559 46 559 63.5 584 c 128,-1,51
 81 609 81 609 110 620.5 c 128,-1,52
 139 632 139 632 174 632 c 0,0,1
EndSplineSet
EndChar

StartChar: uni092E
Encoding: 2350 2350 50
Width: 598
Flags: W
LayerCount: 2
Fore
SplineSet
509 551 m 1,0,-1
 509 0 l 1,1,-1
 428 0 l 1,2,-1
 428 250 l 1,3,-1
 207 250 l 1,4,-1
 207 213 l 2,5,6
 207 180 207 180 192.5 165.5 c 128,-1,7
 178 151 178 151 159 151 c 256,8,9
 140 151 140 151 119 163.5 c 128,-1,10
 98 176 98 176 80 195.5 c 128,-1,11
 62 215 62 215 50.5 237 c 128,-1,12
 39 259 39 259 39 278 c 0,13,14
 39 296 39 296 52.5 308.5 c 128,-1,15
 66 321 66 321 100 321 c 2,16,-1
 126 321 l 1,17,-1
 126 551 l 1,18,-1
 0 551 l 1,19,-1
 0 622 l 1,20,-1
 612 622 l 1,21,-1
 612 551 l 1,22,-1
 509 551 l 1,0,-1
428 551 m 1,23,-1
 207 551 l 1,24,-1
 207 321 l 1,25,-1
 428 321 l 1,26,-1
 428 551 l 1,23,-1
EndSplineSet
EndChar

StartChar: uni092F
Encoding: 2351 2351 51
Width: 580
Flags: W
LayerCount: 2
Fore
SplineSet
595 622 m 1,0,-1
 595 551 l 1,1,-1
 491 551 l 1,2,-1
 491 0 l 1,3,-1
 410 0 l 1,4,-1
 410 216 l 1,5,-1
 426 191 l 1,6,7
 408 177 408 177 382.5 163 c 128,-1,8
 357 149 357 149 324.5 140.5 c 128,-1,9
 292 132 292 132 253 132 c 0,10,11
 193 132 193 132 148 159.5 c 128,-1,12
 103 187 103 187 75.5 237 c 128,-1,13
 48 287 48 287 38 353 c 1,14,15
 100 366 100 366 130 389.5 c 128,-1,16
 160 413 160 413 160 457 c 0,17,18
 160 492 160 492 143.5 520 c 128,-1,19
 127 548 127 548 110 566 c 1,20,-1
 159 551 l 1,21,-1
 0 551 l 1,22,-1
 0 622 l 1,23,-1
 595 622 l 1,0,-1
175 551 m 1,24,-1
 198 572 l 1,25,26
 218 544 218 544 229 510.5 c 128,-1,27
 240 477 240 477 240 445 c 0,28,29
 240 393 240 393 212.5 356 c 128,-1,30
 185 319 185 319 129 301 c 1,31,32
 149 252 149 252 179.5 227.5 c 128,-1,33
 210 203 210 203 259 203 c 0,34,35
 316 203 316 203 357 230.5 c 128,-1,36
 398 258 398 258 425 292 c 1,37,-1
 410 239 l 1,38,-1
 410 551 l 1,39,-1
 175 551 l 1,24,-1
EndSplineSet
EndChar

StartChar: uni0930
Encoding: 2352 2352 52
Width: 409
GlyphClass: 2
Flags: W
AnchorPoint: "Anchor-2" 205 0 basechar 0
AnchorPoint: "Anchor-1" 216 0 basechar 0
LayerCount: 2
Fore
SplineSet
284 551 m 1,0,-1
 312 566 l 1,1,2
 323 550 323 550 329.5 523 c 128,-1,3
 336 496 336 496 336 458 c 0,4,5
 336 402 336 402 313 363.5 c 128,-1,6
 290 325 290 325 250 298 c 128,-1,7
 210 271 210 271 159 251 c 1,8,-1
 163 259 l 1,9,10
 193 224 193 224 230.5 186.5 c 128,-1,11
 268 149 268 149 310 112.5 c 128,-1,12
 352 76 352 76 395 42 c 1,13,-1
 341 -12 l 1,14,15
 282 37 282 37 230 87 c 128,-1,16
 178 137 178 137 138 181 c 128,-1,17
 98 225 98 225 75 256 c 0,18,19
 53 287 53 287 46.5 305 c 128,-1,20
 40 323 40 323 40 340 c 0,21,22
 40 359 40 359 55 376 c 128,-1,23
 70 393 70 393 104 393 c 0,24,25
 142 393 142 393 166 368 c 128,-1,26
 190 343 190 343 209 300 c 1,27,-1
 147 335 l 1,28,29
 204 354 204 354 230 387.5 c 128,-1,30
 256 421 256 421 256 468 c 0,31,32
 256 497 256 497 248.5 525.5 c 128,-1,33
 241 554 241 554 230 565 c 1,34,-1
 275 551 l 1,35,-1
 0 551 l 1,36,-1
 0 622 l 1,37,-1
 424 622 l 1,38,-1
 424 551 l 1,39,-1
 284 551 l 1,0,-1
EndSplineSet
Substitution2: "Single Substitution lookup 2 subtable" uni090B
Substitution2: "Single Substitution lookup 1 subtable" uni0960
EndChar

StartChar: uni0931
Encoding: 2353 2353 53
Width: 409
GlyphClass: 2
Flags: W
AnchorPoint: "Anchor-1" 216 0 basechar 0
LayerCount: 2
Fore
SplineSet
53 36 m 0,0,1
 53 60 53 60 69.5 77 c 128,-1,2
 86 94 86 94 108 94 c 0,3,4
 131 94 131 94 147 77 c 128,-1,5
 163 60 163 60 163 36 c 0,6,7
 163 11 163 11 147 -5.5 c 128,-1,8
 131 -22 131 -22 108 -22 c 0,9,10
 86 -22 86 -22 69.5 -5.5 c 128,-1,11
 53 11 53 11 53 36 c 0,0,1
284 551 m 1,12,-1
 312 566 l 1,13,14
 323 550 323 550 329.5 523 c 128,-1,15
 336 496 336 496 336 458 c 0,16,17
 336 402 336 402 313 363.5 c 128,-1,18
 290 325 290 325 250 298 c 128,-1,19
 210 271 210 271 159 251 c 1,20,-1
 163 259 l 1,21,22
 193 224 193 224 230.5 186.5 c 128,-1,23
 268 149 268 149 310 112.5 c 128,-1,24
 352 76 352 76 395 42 c 1,25,-1
 341 -12 l 1,26,27
 282 37 282 37 230 87 c 128,-1,28
 178 137 178 137 138 181 c 128,-1,29
 98 225 98 225 75 256 c 0,30,31
 53 287 53 287 46.5 305 c 128,-1,32
 40 323 40 323 40 340 c 0,33,34
 40 359 40 359 55 376 c 128,-1,35
 70 393 70 393 104 393 c 0,36,37
 142 393 142 393 166 368 c 128,-1,38
 190 343 190 343 209 300 c 1,39,-1
 147 335 l 1,40,41
 204 354 204 354 230 387.5 c 128,-1,42
 256 421 256 421 256 468 c 0,43,44
 256 497 256 497 248.5 525.5 c 128,-1,45
 241 554 241 554 230 565 c 1,46,-1
 275 551 l 1,47,-1
 0 551 l 1,48,-1
 0 622 l 1,49,-1
 424 622 l 1,50,-1
 424 551 l 1,51,-1
 284 551 l 1,12,-1
EndSplineSet
Ligature2: "'nukt' Nukta Forms in Devanagari2 lookup 34 subtable" uni0930 uni093C
EndChar

StartChar: uni0932
Encoding: 2354 2354 54
Width: 678
Flags: W
LayerCount: 2
Fore
SplineSet
0 551 m 1,0,-1
 0 622 l 1,1,-1
 693 622 l 1,2,-1
 693 551 l 1,3,-1
 589 551 l 1,4,-1
 589 0 l 1,5,-1
 508 0 l 1,6,-1
 508 377 l 1,7,-1
 552 341 l 2,8,9
 535 351 535 351 520.5 353.5 c 128,-1,10
 506 356 506 356 494 356 c 0,11,12
 470 356 470 356 445 344 c 128,-1,13
 420 332 420 332 397 300.5 c 128,-1,14
 374 269 374 269 356 208 c 1,15,-1
 279 232 l 1,16,17
 304 327 304 327 361.5 376.5 c 128,-1,18
 419 426 419 426 499 426 c 0,19,20
 516 426 516 426 533 423 c 128,-1,21
 550 420 550 420 562 416 c 1,22,-1
 565 394 l 1,23,-1
 508 413 l 1,24,-1
 508 551 l 1,25,-1
 0 551 l 1,0,-1
337 292 m 1,26,27
 306 318 306 318 276.5 335.5 c 128,-1,28
 247 353 247 353 209 353 c 0,29,30
 169 353 169 353 147.5 330 c 128,-1,31
 126 307 126 307 126 271 c 0,32,33
 126 233 126 233 147.5 198.5 c 128,-1,34
 169 164 169 164 210 126.5 c 128,-1,35
 251 89 251 89 309 40 c 1,36,-1
 255 -12 l 1,37,38
 197 38 197 38 149 83.5 c 128,-1,39
 101 129 101 129 73 175.5 c 128,-1,40
 45 222 45 222 45 275 c 0,41,42
 45 315 45 315 59.5 343.5 c 128,-1,43
 74 372 74 372 97.5 390.5 c 128,-1,44
 121 409 121 409 149 417.5 c 128,-1,45
 177 426 177 426 204 426 c 0,46,47
 237 426 237 426 265 418 c 128,-1,48
 293 410 293 410 319 394.5 c 128,-1,49
 345 379 345 379 369 357 c 1,50,-1
 337 292 l 1,26,27
EndSplineSet
Substitution2: "'locl' Localized Forms in Devanagari2 lookup 29 subtable" ladevaMAR
Substitution2: "'aalt' Access All Alternates in Devanagari2 lookup 0 subtable" ladevaMAR
EndChar

StartChar: uni0933
Encoding: 2355 2355 55
Width: 760
GlyphClass: 2
Flags: W
AnchorPoint: "Anchor-1" 514 0 basechar 0
AnchorPoint: "Anchor-0" 514 622 basechar 0
LayerCount: 2
Fore
SplineSet
0 551 m 1,0,-1
 0 622 l 1,1,-1
 775 622 l 1,2,-1
 775 551 l 1,3,-1
 594 551 l 1,4,-1
 594 399 l 1,5,-1
 513 399 l 1,6,-1
 513 551 l 1,7,-1
 0 551 l 1,0,-1
386 272 m 1,8,9
 344 318 344 318 309 343 c 128,-1,10
 274 368 274 368 232 368 c 256,11,12
 190 368 190 368 158.5 340 c 128,-1,13
 127 312 127 312 127 250 c 256,14,15
 127 188 127 188 154 161.5 c 128,-1,16
 181 135 181 135 218 135 c 0,17,18
 244 135 244 135 264 146.5 c 128,-1,19
 284 158 284 158 301 181.5 c 128,-1,20
 318 205 318 205 333 240 c 2,21,-1
 355 289 l 2,22,23
 376 335 376 335 396.5 364 c 128,-1,24
 417 393 417 393 439.5 409.5 c 128,-1,25
 462 426 462 426 487.5 432.5 c 128,-1,26
 513 439 513 439 543 439 c 0,27,28
 591 439 591 439 629.5 417 c 128,-1,29
 668 395 668 395 691 353 c 128,-1,30
 714 311 714 311 714 250 c 0,31,32
 714 197 714 197 692.5 154.5 c 128,-1,33
 671 112 671 112 631.5 88 c 128,-1,34
 592 64 592 64 538 64 c 0,35,36
 475 64 475 64 430.5 92.5 c 128,-1,37
 386 121 386 121 340 167 c 1,38,-1
 374 230 l 1,39,40
 415 184 415 184 450.5 159.5 c 128,-1,41
 486 135 486 135 528 135 c 256,42,43
 570 135 570 135 601.5 162.5 c 128,-1,44
 633 190 633 190 633 252 c 0,45,46
 633 316 633 316 605.5 342 c 128,-1,47
 578 368 578 368 541 368 c 0,48,49
 503 368 503 368 476.5 341.5 c 128,-1,50
 450 315 450 315 426 262 c 2,51,-1
 404 214 l 2,52,53
 385 169 385 169 364 140 c 128,-1,54
 343 111 343 111 320 94.5 c 128,-1,55
 297 78 297 78 271.5 71 c 128,-1,56
 246 64 246 64 216 64 c 0,57,58
 169 64 169 64 130.5 85.5 c 128,-1,59
 92 107 92 107 69 149 c 128,-1,60
 46 191 46 191 46 252 c 0,61,62
 46 308 46 308 68.5 350 c 128,-1,63
 91 392 91 392 131 415.5 c 128,-1,64
 171 439 171 439 222 439 c 0,65,66
 285 439 285 439 329.5 410.5 c 128,-1,67
 374 382 374 382 420 335 c 1,68,-1
 386 272 l 1,8,9
EndSplineSet
Substitution2: "Single Substitution lookup 24 subtable" llaaltdeva
EndChar

StartChar: uni0935
Encoding: 2357 2357 57
Width: 556
Flags: W
LayerCount: 2
Fore
SplineSet
571 551 m 1,0,-1
 467 551 l 1,1,-1
 467 0 l 1,2,-1
 387 0 l 1,3,-1
 387 201 l 1,4,-1
 402 176 l 1,5,6
 375 155 375 155 335 136.5 c 128,-1,7
 295 118 295 118 233 118 c 0,8,9
 179 118 179 118 137 139 c 128,-1,10
 95 160 95 160 70.5 197.5 c 128,-1,11
 46 235 46 235 46 286 c 0,12,13
 46 372 46 372 103.5 418 c 128,-1,14
 161 464 161 464 255 464 c 0,15,16
 268 464 268 464 287.5 462.5 c 128,-1,17
 307 461 307 461 325.5 459 c 128,-1,18
 344 457 344 457 354 454 c 1,19,-1
 349 381 l 1,20,21
 330 385 330 385 306 388 c 128,-1,22
 282 391 282 391 259 391 c 0,23,24
 197 391 197 391 162 364 c 128,-1,25
 127 337 127 337 127 287 c 0,26,27
 127 236 127 236 158.5 212 c 128,-1,28
 190 188 190 188 235 188 c 0,29,30
 275 188 275 188 305.5 201.5 c 128,-1,31
 336 215 336 215 359.5 235 c 128,-1,32
 383 255 383 255 400 274 c 1,33,-1
 387 223 l 1,34,-1
 387 551 l 1,35,-1
 0 551 l 1,36,-1
 0 622 l 1,37,-1
 571 622 l 1,38,-1
 571 551 l 1,0,-1
EndSplineSet
EndChar

StartChar: uni0936
Encoding: 2358 2358 58
Width: 680
Flags: W
LayerCount: 2
Fore
SplineSet
591 551 m 1,0,-1
 591 0 l 1,1,-1
 510 0 l 1,2,-1
 510 551 l 1,3,-1
 421 551 l 1,4,-1
 421 622 l 1,5,-1
 695 622 l 1,6,-1
 695 551 l 1,7,-1
 591 551 l 1,0,-1
122 189 m 0,8,9
 87 189 87 189 63.5 206.5 c 128,-1,10
 40 224 40 224 40 255 c 0,11,12
 40 284 40 284 58 299 c 128,-1,13
 76 314 76 314 104 314 c 0,14,15
 125 314 125 314 148 303.5 c 128,-1,16
 171 293 171 293 212 260 c 1,17,-1
 224 246 l 1,18,19
 259 219 259 219 293.5 184.5 c 128,-1,20
 328 150 328 150 359 113.5 c 128,-1,21
 390 77 390 77 414 43 c 1,22,-1
 350 -1 l 1,23,24
 289 86 289 86 240.5 136.5 c 128,-1,25
 192 187 192 187 149 218 c 1,26,-1
 137 267 l 1,27,28
 184 268 184 268 222 289 c 128,-1,29
 260 310 260 310 282.5 349.5 c 128,-1,30
 305 389 305 389 305 443 c 0,31,32
 305 499 305 499 275.5 532.5 c 128,-1,33
 246 566 246 566 199 566 c 0,34,35
 168 566 168 566 153 552.5 c 128,-1,36
 138 539 138 539 138 516 c 0,37,38
 138 504 138 504 143 491.5 c 128,-1,39
 148 479 148 479 161.5 467.5 c 128,-1,40
 175 456 175 456 201.5 448.5 c 128,-1,41
 228 441 228 441 270 440 c 1,42,-1
 253 370 l 1,43,44
 159 376 159 376 112.5 417.5 c 128,-1,45
 66 459 66 459 66 517 c 0,46,47
 66 568 66 568 101.5 600 c 128,-1,48
 137 632 137 632 204 632 c 0,49,50
 251 632 251 632 292 610.5 c 128,-1,51
 333 589 333 589 358.5 546.5 c 128,-1,52
 384 504 384 504 384 440 c 0,53,54
 384 373 384 373 351.5 315.5 c 128,-1,55
 319 258 319 258 260 223.5 c 128,-1,56
 201 189 201 189 122 189 c 0,8,9
EndSplineSet
Substitution2: "'locl' Localized Forms in Devanagari2 lookup 29 subtable" shadevaMAR
Substitution2: "'aalt' Access All Alternates in Devanagari2 lookup 0 subtable" shadevaMAR
EndChar

StartChar: uni0937
Encoding: 2359 2359 59
Width: 578
Flags: W
LayerCount: 2
Fore
SplineSet
593 622 m 1,0,-1
 593 551 l 1,1,-1
 489 551 l 1,2,-1
 489 0 l 1,3,-1
 408 0 l 1,4,-1
 408 228 l 1,5,-1
 427 203 l 1,6,7
 405 189 405 189 379.5 176 c 128,-1,8
 354 163 354 163 323.5 154.5 c 128,-1,9
 293 146 293 146 254 146 c 0,10,11
 214 146 214 146 181.5 159.5 c 128,-1,12
 149 173 149 173 128 194 c 0,13,14
 111 212 111 212 100 233.5 c 128,-1,15
 89 255 89 255 84 285 c 128,-1,16
 79 315 79 315 79 358 c 2,17,-1
 79 551 l 1,18,-1
 0 551 l 1,19,-1
 0 622 l 1,20,-1
 593 622 l 1,0,-1
408 551 m 1,21,-1
 159 551 l 1,22,-1
 159 369 l 2,23,24
 159 328 159 328 162 304 c 128,-1,25
 165 280 165 280 171.5 265.5 c 128,-1,26
 178 251 178 251 189 240 c 0,27,28
 201 228 201 228 219 222.5 c 128,-1,29
 237 217 237 217 262 217 c 0,30,31
 292 217 292 217 321 227.5 c 128,-1,32
 350 238 350 238 373 253 c 2,33,-1
 408 270 l 1,34,-1
 408 551 l 1,21,-1
138 534 m 1,35,-1
 184 578 l 1,36,-1
 419 273 l 1,37,-1
 370 232 l 1,38,-1
 138 534 l 1,35,-1
EndSplineSet
EndChar

StartChar: uni0938
Encoding: 2360 2360 60
Width: 676
Flags: W
LayerCount: 2
Fore
SplineSet
245 551 m 1,0,-1
 273 566 l 1,1,2
 284 550 284 550 291 523 c 128,-1,3
 298 496 298 496 298 458 c 0,4,5
 298 414 298 414 287.5 381.5 c 128,-1,6
 277 349 277 349 258 328 c 1,7,-1
 257 319 l 1,8,9
 239 296 239 296 214.5 279 c 128,-1,10
 190 262 190 262 159 250 c 1,11,-1
 163 259 l 1,12,13
 204 206 204 206 260.5 149 c 128,-1,14
 317 92 317 92 380 42 c 1,15,-1
 326 -12 l 1,16,17
 270 37 270 37 220.5 87 c 128,-1,18
 171 137 171 137 133 181 c 128,-1,19
 95 225 95 225 73 256 c 256,20,21
 51 287 51 287 45.5 305 c 128,-1,22
 40 323 40 323 40 340 c 0,23,24
 40 359 40 359 55 376 c 128,-1,25
 70 393 70 393 104 393 c 0,26,27
 129 393 129 393 147.5 381.5 c 128,-1,28
 166 370 166 370 181 349.5 c 128,-1,29
 196 329 196 329 209 300 c 1,30,-1
 148 331 l 1,31,32
 176 339 176 339 190.5 359 c 128,-1,33
 205 379 205 379 211 405.5 c 128,-1,34
 217 432 217 432 217 458 c 0,35,36
 217 496 217 496 210 523.5 c 128,-1,37
 203 551 203 551 194 564 c 1,38,-1
 237 551 l 1,39,-1
 0 551 l 1,40,-1
 0 622 l 1,41,-1
 417 622 l 1,42,-1
 417 551 l 1,43,-1
 245 551 l 1,0,-1
587 551 m 1,44,-1
 587 0 l 1,45,-1
 506 0 l 1,46,-1
 506 551 l 1,47,-1
 396 551 l 1,48,-1
 396 622 l 1,49,-1
 691 622 l 1,50,-1
 691 551 l 1,51,-1
 587 551 l 1,44,-1
369 322 m 0,52,53
 403 322 403 322 431 325 c 128,-1,54
 459 328 459 328 487 334.5 c 128,-1,55
 515 341 515 341 547 353 c 1,56,-1
 547 280 l 1,57,58
 504 263 504 263 468.5 257 c 128,-1,59
 433 251 433 251 380 251 c 0,60,61
 347 251 347 251 310.5 255.5 c 128,-1,62
 274 260 274 260 242 268.5 c 128,-1,63
 210 277 210 277 190 287 c 1,64,-1
 210 347 l 1,65,66
 230 340 230 340 256 334 c 128,-1,67
 282 328 282 328 311 325 c 128,-1,68
 340 322 340 322 369 322 c 0,52,53
EndSplineSet
EndChar

StartChar: uni0939
Encoding: 2361 2361 61
Width: 531
GlyphClass: 2
Flags: W
AnchorPoint: "Anchor-2" 266 0 basechar 0
LayerCount: 2
Fore
SplineSet
137 229 m 1,0,1
 112 247 112 247 90.5 277.5 c 128,-1,2
 69 308 69 308 69 352 c 0,3,4
 69 380 69 380 79 400 c 128,-1,5
 89 420 89 420 106 433 c 0,6,7
 121 445 121 445 139 452 c 128,-1,8
 157 459 157 459 179.5 462 c 128,-1,9
 202 465 202 465 229 465 c 2,10,-1
 361 465 l 1,11,-1
 361 551 l 1,12,-1
 0 551 l 1,13,-1
 0 622 l 1,14,-1
 546 622 l 1,15,-1
 546 551 l 1,16,-1
 442 551 l 1,17,-1
 442 394 l 1,18,-1
 230 394 l 2,19,20
 199 394 199 394 186 391 c 128,-1,21
 173 388 173 388 164 381 c 0,22,23
 157 375 157 375 153 366.5 c 128,-1,24
 149 358 149 358 149 347 c 0,25,26
 149 323 149 323 163.5 305 c 128,-1,27
 178 287 178 287 197 274 c 1,28,-1
 137 229 l 1,0,1
321 69 m 1,29,30
 357 80 357 80 380 98 c 128,-1,31
 403 116 403 116 403 148 c 0,32,33
 403 186 403 186 374 207.5 c 128,-1,34
 345 229 345 229 280 229 c 0,35,36
 211 229 211 229 174.5 200.5 c 128,-1,37
 138 172 138 172 138 124 c 0,38,39
 138 101 138 101 144 79.5 c 128,-1,40
 150 58 150 58 167 34 c 128,-1,41
 184 10 184 10 216.5 -20 c 128,-1,42
 249 -50 249 -50 302 -89 c 1,43,-1
 248 -142 l 1,44,45
 187 -94 187 -94 144.5 -51.5 c 128,-1,46
 102 -9 102 -9 80 35 c 128,-1,47
 58 79 58 79 58 130 c 0,48,49
 58 186 58 186 90.5 224 c 128,-1,50
 123 262 123 262 174.5 281 c 128,-1,51
 226 300 226 300 284 300 c 0,52,53
 353 300 353 300 396.5 279 c 128,-1,54
 440 258 440 258 460.5 224.5 c 128,-1,55
 481 191 481 191 481 153 c 0,56,57
 481 95 481 95 447 57 c 128,-1,58
 413 19 413 19 348 2 c 1,59,-1
 321 69 l 1,29,30
EndSplineSet
EndChar

StartChar: oevowelsigndeva
Encoding: 2362 2362 62
Width: 0
GlyphClass: 4
Flags: W
AnchorPoint: "Anchor-5" -170 622 mark 0
AnchorPoint: "Anchor-0" -170 622 mark 0
LayerCount: 2
Fore
SplineSet
-170 615 m 1,0,-1
 -170 805 l 1,1,-1
 -89 805 l 1,2,-1
 -89 615 l 1,3,-1
 -170 615 l 1,0,-1
EndSplineSet
EndChar

StartChar: uni093C
Encoding: 2364 2364 64
Width: 0
GlyphClass: 4
Flags: W
AnchorPoint: "Anchor-8" -283 0 mark 0
AnchorPoint: "Anchor-2" -283 0 mark 0
LayerCount: 2
Fore
SplineSet
-338 -134 m 0,0,1
 -338 -110 -338 -110 -321.5 -93 c 128,-1,2
 -305 -76 -305 -76 -283 -76 c 0,3,4
 -260 -76 -260 -76 -244 -93 c 128,-1,5
 -228 -110 -228 -110 -228 -134 c 0,6,7
 -228 -159 -228 -159 -244 -175.5 c 128,-1,8
 -260 -192 -260 -192 -283 -192 c 0,9,10
 -305 -192 -305 -192 -321.5 -175.5 c 128,-1,11
 -338 -159 -338 -159 -338 -134 c 0,0,1
EndSplineSet
EndChar

StartChar: uni093D
Encoding: 2365 2365 65
Width: 467
GlyphClass: 2
Flags: W
AnchorPoint: "Anchor-3" 193 622 basechar 0
LayerCount: 2
Fore
SplineSet
420 187 m 0,0,1
 420 143 420 143 400.5 110.5 c 128,-1,2
 381 78 381 78 346.5 60 c 128,-1,3
 312 42 312 42 265 42 c 0,4,5
 219 42 219 42 180 59 c 128,-1,6
 141 76 141 76 104 117 c 128,-1,7
 67 158 67 158 26 231 c 1,8,-1
 95 266 l 1,9,10
 133 197 133 197 170 156 c 128,-1,11
 207 115 207 115 257 115 c 0,12,13
 293 115 293 115 315.5 133 c 128,-1,14
 338 151 338 151 338 188 c 0,15,16
 338 214 338 214 328.5 234.5 c 128,-1,17
 319 255 319 255 295.5 279 c 128,-1,18
 272 303 272 303 229 337 c 0,19,20
 185 373 185 373 160.5 401 c 128,-1,21
 136 429 136 429 127 452.5 c 128,-1,22
 118 476 118 476 118 500 c 0,23,24
 118 532 118 532 130 555 c 128,-1,25
 142 578 142 578 164 593 c 0,26,27
 177 603 177 603 194 609 c 128,-1,28
 211 615 211 615 237.5 618.5 c 128,-1,29
 264 622 264 622 306 622 c 2,30,-1
 399 622 l 1,31,-1
 399 551 l 1,32,-1
 297 551 l 2,33,34
 258 551 258 551 243 548 c 128,-1,35
 228 545 228 545 219 540 c 0,36,37
 209 534 209 534 203.5 524 c 128,-1,38
 198 514 198 514 198 499 c 0,39,40
 198 482 198 482 207 466 c 128,-1,41
 216 450 216 450 238 430 c 128,-1,42
 260 410 260 410 298 379 c 0,43,44
 343 343 343 343 370 313 c 128,-1,45
 397 283 397 283 408.5 253.5 c 128,-1,46
 420 224 420 224 420 187 c 0,0,1
EndSplineSet
EndChar

StartChar: uni093E
Encoding: 2366 2366 66
Width: 259
Flags: W
LayerCount: 2
Fore
SplineSet
170 551 m 1,0,-1
 170 0 l 1,1,-1
 89 0 l 1,2,-1
 89 551 l 1,3,-1
 0 551 l 1,4,-1
 0 622 l 1,5,-1
 273 622 l 1,6,-1
 273 551 l 1,7,-1
 170 551 l 1,0,-1
EndSplineSet
EndChar

StartChar: uni0940
Encoding: 2368 2368 68
Width: 259
Flags: W
LayerCount: 2
Fore
SplineSet
-185 615 m 1,0,1
 -202 650 -202 650 -211 682 c 128,-1,2
 -220 714 -220 714 -220 748 c 0,3,4
 -220 813 -220 813 -178 854.5 c 128,-1,5
 -136 896 -136 896 -61 896 c 0,6,7
 -16 896 -16 896 17 880 c 128,-1,8
 50 864 50 864 76 831 c 128,-1,9
 102 798 102 798 123 746 c 128,-1,10
 144 694 144 694 163 622 c 1,11,-1
 273 622 l 1,12,-1
 273 551 l 1,13,-1
 170 551 l 1,14,-1
 170 0 l 1,15,-1
 89 0 l 1,16,-1
 89 551 l 1,17,-1
 0 551 l 1,18,-1
 0 622 l 1,19,-1
 87 622 l 1,20,21
 69 692 69 692 49.5 736.5 c 128,-1,22
 30 781 30 781 5 803 c 128,-1,23
 -20 825 -20 825 -57 825 c 0,24,25
 -97 825 -97 825 -118 800.5 c 128,-1,26
 -139 776 -139 776 -139 733 c 0,27,28
 -139 699 -139 699 -129 671.5 c 128,-1,29
 -119 644 -119 644 -105 615 c 1,30,-1
 -185 615 l 1,0,1
EndSplineSet
Substitution2: "Single Substitution lookup 119 subtable" iivowelsign3deva
Substitution2: "Single Substitution lookup 118 subtable" iivowelsign2deva
Substitution2: "Single Substitution lookup 117 subtable" iivowelsign1deva
EndChar

StartChar: uni0941
Encoding: 2369 2369 69
Width: 0
GlyphClass: 4
Flags: W
AnchorPoint: "Anchor-6" -170 0 mark 0
AnchorPoint: "Anchor-1" -170 0 mark 0
LayerCount: 2
Fore
SplineSet
-248 -12 m 1,0,1
 -222 -1 -222 -1 -193 5 c 128,-1,2
 -164 11 -164 11 -136 11 c 0,3,4
 -61 11 -61 11 -19.5 -27.5 c 128,-1,5
 22 -66 22 -66 22 -129 c 0,6,7
 22 -190 22 -190 -24.5 -229 c 128,-1,8
 -71 -268 -71 -268 -157 -268 c 0,9,10
 -221 -268 -221 -268 -273.5 -247 c 128,-1,11
 -326 -226 -326 -226 -370.5 -188.5 c 128,-1,12
 -415 -151 -415 -151 -455 -100 c 1,13,-1
 -394 -57 l 1,14,15
 -355 -105 -355 -105 -320 -136 c 128,-1,16
 -285 -167 -285 -167 -245.5 -181.5 c 128,-1,17
 -206 -196 -206 -196 -157 -196 c 0,18,19
 -104 -196 -104 -196 -77.5 -177 c 128,-1,20
 -51 -158 -51 -158 -51 -122 c 0,21,22
 -51 -100 -51 -100 -62.5 -85.5 c 128,-1,23
 -74 -71 -74 -71 -92 -64 c 128,-1,24
 -110 -57 -110 -57 -131 -57 c 0,25,26
 -158 -57 -158 -57 -179.5 -62.5 c 128,-1,27
 -201 -68 -201 -68 -222 -79 c 1,28,-1
 -248 -12 l 1,0,1
EndSplineSet
Substitution2: "Single Substitution lookup 26 subtable" vattudeva
Substitution2: "Single Substitution lookup 22 subtable" uvowelsignnarrowdeva
Substitution2: "Single Substitution lookup 18 subtable" uvowelsignlowdeva
EndChar

StartChar: uni0942
Encoding: 2370 2370 70
Width: 0
GlyphClass: 4
Flags: W
AnchorPoint: "Anchor-6" -170 0 mark 0
AnchorPoint: "Anchor-1" -170 0 mark 0
LayerCount: 2
Fore
SplineSet
-63 -245 m 1,0,1
 -88 -255 -88 -255 -116.5 -261.5 c 128,-1,2
 -145 -268 -145 -268 -173 -268 c 0,3,4
 -223 -268 -223 -268 -259 -250 c 128,-1,5
 -295 -232 -295 -232 -314 -200 c 128,-1,6
 -333 -168 -333 -168 -333 -126 c 0,7,8
 -333 -69 -333 -69 -287 -29 c 128,-1,9
 -241 11 -241 11 -162 11 c 0,10,11
 -87 11 -87 11 -31 -17 c 128,-1,12
 25 -45 25 -45 68 -90.5 c 128,-1,13
 111 -136 111 -136 145 -189 c 1,14,-1
 83 -228 l 1,15,16
 47 -173 47 -173 10.5 -135 c 128,-1,17
 -26 -97 -26 -97 -66.5 -77 c 128,-1,18
 -107 -57 -107 -57 -156 -57 c 0,19,20
 -207 -57 -207 -57 -233 -76.5 c 128,-1,21
 -259 -96 -259 -96 -259 -128 c 0,22,23
 -259 -153 -259 -153 -247.5 -168 c 128,-1,24
 -236 -183 -236 -183 -217 -189.5 c 128,-1,25
 -198 -196 -198 -196 -178 -196 c 0,26,27
 -151 -196 -151 -196 -130 -190.5 c 128,-1,28
 -109 -185 -109 -185 -88 -175 c 1,29,-1
 -63 -245 l 1,0,1
EndSplineSet
Substitution2: "Single Substitution lookup 26 subtable" vattudeva
Substitution2: "Single Substitution lookup 18 subtable" uuvowelsignlowdeva
EndChar

StartChar: uni0943
Encoding: 2371 2371 71
Width: 0
GlyphClass: 4
Flags: W
AnchorPoint: "Anchor-6" -170 0 mark 0
AnchorPoint: "Anchor-1" -170 0 mark 0
LayerCount: 2
Fore
SplineSet
27 -233 m 1,0,1
 2 -246 2 -246 -31.5 -257 c 128,-1,2
 -65 -268 -65 -268 -106 -268 c 0,3,4
 -156 -268 -156 -268 -192 -250 c 128,-1,5
 -228 -232 -228 -232 -247 -200 c 128,-1,6
 -266 -168 -266 -168 -266 -126 c 0,7,8
 -266 -70 -266 -70 -221.5 -28.5 c 128,-1,9
 -177 13 -177 13 -89 18 c 1,10,-1
 -82 -48 l 1,11,12
 -140 -55 -140 -55 -166 -77 c 128,-1,13
 -192 -99 -192 -99 -192 -132 c 0,14,15
 -192 -166 -192 -166 -167 -181.5 c 128,-1,16
 -142 -197 -142 -197 -111 -197 c 0,17,18
 -79 -197 -79 -197 -55.5 -189.5 c 128,-1,19
 -32 -182 -32 -182 2 -164 c 1,20,-1
 27 -233 l 1,0,1
EndSplineSet
Substitution2: "Single Substitution lookup 18 subtable" rvocalicvowelsignlowdeva
Substitution2: "Single Substitution lookup 2 subtable" rephdeva
EndChar

StartChar: uni0944
Encoding: 2372 2372 72
Width: 0
GlyphClass: 4
Flags: W
AnchorPoint: "Anchor-6" -170 0 mark 0
AnchorPoint: "Anchor-1" -170 0 mark 0
LayerCount: 2
Fore
SplineSet
27 -204 m 1,0,1
 2 -217 2 -217 -31.5 -227.5 c 128,-1,2
 -65 -238 -65 -238 -106 -238 c 256,3,4
 -147 -238 -147 -238 -183.5 -223 c 128,-1,5
 -220 -208 -220 -208 -243 -179 c 128,-1,6
 -266 -150 -266 -150 -266 -107 c 0,7,8
 -266 -60 -266 -60 -221.5 -23 c 128,-1,9
 -177 14 -177 14 -89 18 c 1,10,-1
 -82 -48 l 1,11,12
 -140 -53 -140 -53 -166 -71.5 c 128,-1,13
 -192 -90 -192 -90 -192 -115 c 0,14,15
 -192 -143 -192 -143 -169.5 -156 c 128,-1,16
 -147 -169 -147 -169 -111 -169 c 0,17,18
 -79 -169 -79 -169 -55.5 -162.5 c 128,-1,19
 -32 -156 -32 -156 2 -141 c 1,20,-1
 27 -204 l 1,0,1
66 -359 m 1,21,22
 41 -372 41 -372 7.5 -383 c 128,-1,23
 -26 -394 -26 -394 -67 -394 c 0,24,25
 -120 -394 -120 -394 -155.5 -377 c 128,-1,26
 -191 -360 -191 -360 -209 -330 c 128,-1,27
 -227 -300 -227 -300 -227 -262 c 0,28,29
 -227 -245 -227 -245 -220 -228 c 128,-1,30
 -213 -211 -213 -211 -201 -195 c 1,31,-1
 -126 -222 l 1,32,33
 -140 -234 -140 -234 -146.5 -245.5 c 128,-1,34
 -153 -257 -153 -257 -153 -271 c 0,35,36
 -153 -299 -153 -299 -131 -311.5 c 128,-1,37
 -109 -324 -109 -324 -72 -324 c 0,38,39
 -40 -324 -40 -324 -16 -317.5 c 128,-1,40
 8 -311 8 -311 42 -296 c 1,41,-1
 66 -359 l 1,21,22
EndSplineSet
Substitution2: "Single Substitution lookup 24 subtable" rrvocaliclowdeva
Substitution2: "Single Substitution lookup 1 subtable" rephdeva
EndChar

StartChar: uni0945
Encoding: 2373 2373 73
Width: 0
GlyphClass: 4
Flags: W
AnchorPoint: "Anchor-5" -180 622 mark 0
AnchorPoint: "Anchor-0" -180 622 mark 0
LayerCount: 2
Fore
SplineSet
69 863 m 1,0,1
 46 763 46 763 -7.5 721.5 c 128,-1,2
 -61 680 -61 680 -138 680 c 0,3,4
 -210 680 -210 680 -264 724.5 c 128,-1,5
 -318 769 -318 769 -352 863 c 1,6,-1
 -281 887 l 1,7,8
 -255 817 -255 817 -221.5 783 c 128,-1,9
 -188 749 -188 749 -135 749 c 0,10,11
 -78 749 -78 749 -50.5 785.5 c 128,-1,12
 -23 822 -23 822 -7 889 c 1,13,-1
 69 863 l 1,0,1
EndSplineSet
EndChar

StartChar: uni0946
Encoding: 2374 2374 74
Width: 0
GlyphClass: 4
Flags: W
AnchorPoint: "Anchor-5" -170 622 mark 0
AnchorPoint: "Anchor-0" -170 622 mark 0
LayerCount: 2
Fore
SplineSet
-170 615 m 1,0,1
 -181 663 -181 663 -193 690 c 128,-1,2
 -205 717 -205 717 -222 728 c 128,-1,3
 -239 739 -239 739 -264 739 c 0,4,5
 -277 739 -277 739 -290 738 c 128,-1,6
 -303 737 -303 737 -316 737 c 0,7,8
 -351 737 -351 737 -379.5 748 c 128,-1,9
 -408 759 -408 759 -431.5 788.5 c 128,-1,10
 -455 818 -455 818 -475 873 c 1,11,-1
 -409 896 l 1,12,13
 -398 867 -398 867 -386.5 847 c 128,-1,14
 -375 827 -375 827 -357.5 817.5 c 128,-1,15
 -340 808 -340 808 -312 808 c 0,16,17
 -298 808 -298 808 -282 810 c 128,-1,18
 -266 812 -266 812 -248 812 c 0,19,20
 -220 812 -220 812 -197.5 802.5 c 128,-1,21
 -175 793 -175 793 -156.5 771 c 128,-1,22
 -138 749 -138 749 -122.5 711 c 128,-1,23
 -107 673 -107 673 -94 615 c 1,24,-1
 -170 615 l 1,0,1
EndSplineSet
EndChar

StartChar: uni0947
Encoding: 2375 2375 75
Width: 0
GlyphClass: 4
Flags: W
AnchorPoint: "Anchor-5" -170 622 mark 0
AnchorPoint: "Anchor-0" -170 622 mark 0
LayerCount: 2
Fore
SplineSet
-169 615 m 1,0,1
 -190 694 -190 694 -210.5 739.5 c 128,-1,2
 -231 785 -231 785 -256 804 c 128,-1,3
 -281 823 -281 823 -315 823 c 0,4,5
 -337 823 -337 823 -354 818.5 c 128,-1,6
 -371 814 -371 814 -385 809 c 1,7,-1
 -409 882 l 1,8,9
 -388 890 -388 890 -367 893 c 128,-1,10
 -346 896 -346 896 -318 896 c 0,11,12
 -277 896 -277 896 -245 882 c 128,-1,13
 -213 868 -213 868 -187 836 c 128,-1,14
 -161 804 -161 804 -138 749.5 c 128,-1,15
 -115 695 -115 695 -94 615 c 1,16,-1
 -169 615 l 1,0,1
EndSplineSet
EndChar

StartChar: uni0948
Encoding: 2376 2376 76
Width: 0
GlyphClass: 4
Flags: W
AnchorPoint: "Anchor-5" -170 622 mark 0
AnchorPoint: "Anchor-0" -170 622 mark 0
LayerCount: 2
Fore
SplineSet
-179 615 m 1,0,1
 -206 655 -206 655 -228.5 673.5 c 128,-1,2
 -251 692 -251 692 -272.5 697.5 c 128,-1,3
 -294 703 -294 703 -320 703 c 0,4,5
 -340 703 -340 703 -361 697 c 128,-1,6
 -382 691 -382 691 -402 682 c 1,7,-1
 -428 751 l 1,8,9
 -405 761 -405 761 -380 767 c 128,-1,10
 -355 773 -355 773 -326 773 c 0,11,12
 -281 773 -281 773 -246 751.5 c 128,-1,13
 -211 730 -211 730 -187 692 c 1,14,-1
 -183 694 l 1,15,16
 -203 746 -203 746 -222 774.5 c 128,-1,17
 -241 803 -241 803 -263 815 c 128,-1,18
 -285 827 -285 827 -316 827 c 0,19,20
 -340 827 -340 827 -356 823 c 128,-1,21
 -372 819 -372 819 -386 813 c 1,22,-1
 -409 882 l 1,23,24
 -388 890 -388 890 -367 893 c 128,-1,25
 -346 896 -346 896 -318 896 c 0,26,27
 -277 896 -277 896 -245 882 c 128,-1,28
 -213 868 -213 868 -187 836 c 128,-1,29
 -161 804 -161 804 -138 749.5 c 128,-1,30
 -115 695 -115 695 -94 615 c 1,31,-1
 -179 615 l 1,0,1
EndSplineSet
EndChar

StartChar: uni094D
Encoding: 2381 2381 81
Width: 0
GlyphClass: 4
Flags: W
AnchorPoint: "Anchor-6" -170 0 mark 0
AnchorPoint: "Anchor-1" -170 0 mark 0
LayerCount: 2
Fore
SplineSet
-179 -44 m 1,0,1
 -168 -42 -168 -42 -156 -40.5 c 128,-1,2
 -144 -39 -144 -39 -131 -39 c 0,3,4
 -63 -39 -63 -39 -12.5 -64.5 c 128,-1,5
 38 -90 38 -90 77.5 -133 c 128,-1,6
 117 -176 117 -176 151 -227 c 1,7,-1
 94 -268 l 1,8,9
 61 -215 61 -215 27.5 -180.5 c 128,-1,10
 -6 -146 -6 -146 -43 -129.5 c 128,-1,11
 -80 -113 -80 -113 -125 -113 c 0,12,13
 -137 -113 -137 -113 -147.5 -114.5 c 128,-1,14
 -158 -116 -158 -116 -167 -118 c 1,15,-1
 -179 -44 l 1,0,1
EndSplineSet
Substitution2: "Single Substitution lookup 18 subtable" viramalowdeva
EndChar

StartChar: uni094E
Encoding: 2382 2382 82
Width: 273
Flags: W
LayerCount: 2
Fore
SplineSet
184 551 m 1,0,-1
 184 0 l 1,1,-1
 103 0 l 1,2,-1
 103 622 l 1,3,-1
 288 622 l 1,4,-1
 288 551 l 1,5,-1
 184 551 l 1,0,-1
EndSplineSet
EndChar

StartChar: uni0950
Encoding: 2384 2384 84
Width: 902
Flags: W
LayerCount: 2
Fore
SplineSet
361 394 m 1,0,1
 387 366 387 366 406 355 c 128,-1,2
 425 344 425 344 446 344 c 0,3,4
 466 344 466 344 482 355.5 c 128,-1,5
 498 367 498 367 516 396 c 2,6,-1
 546 443 l 2,7,8
 569 481 569 481 592 503.5 c 128,-1,9
 615 526 615 526 642 536.5 c 128,-1,10
 669 547 669 547 705 547 c 0,11,12
 743 547 743 547 778 528.5 c 128,-1,13
 813 510 813 510 835.5 470.5 c 128,-1,14
 858 431 858 431 858 368 c 0,15,16
 858 314 858 314 836.5 274.5 c 128,-1,17
 815 235 815 235 776 213 c 128,-1,18
 737 191 737 191 683 191 c 0,19,20
 637 191 637 191 603 208.5 c 128,-1,21
 569 226 569 226 537 254 c 1,22,-1
 586 307 l 1,23,24
 609 286 609 286 632 274 c 128,-1,25
 655 262 655 262 686 262 c 0,26,27
 721 262 721 262 749.5 288.5 c 128,-1,28
 778 315 778 315 778 369 c 0,29,30
 778 421 778 421 756.5 448.5 c 128,-1,31
 735 476 735 476 702 476 c 0,32,33
 674 476 674 476 654 459 c 128,-1,34
 634 442 634 442 610 401 c 2,35,-1
 583 357 l 2,36,37
 569 333 569 333 551.5 314 c 128,-1,38
 534 295 534 295 511 284.5 c 128,-1,39
 488 274 488 274 457 274 c 256,40,41
 426 274 426 274 403.5 283 c 128,-1,42
 381 292 381 292 364.5 308 c 128,-1,43
 348 324 348 324 333 346 c 1,44,-1
 361 394 l 1,0,1
146 594 m 1,45,46
 172 608 172 608 210.5 620 c 128,-1,47
 249 632 249 632 298 632 c 0,48,49
 376 632 376 632 417.5 593 c 128,-1,50
 459 554 459 554 459 495 c 0,51,52
 459 452 459 452 436.5 417.5 c 128,-1,53
 414 383 414 383 370 363 c 128,-1,54
 326 343 326 343 260 341 c 1,55,-1
 255 411 l 1,56,57
 323 413 323 413 351.5 435 c 128,-1,58
 380 457 380 457 380 494 c 0,59,60
 380 530 380 530 356.5 546 c 128,-1,61
 333 562 333 562 302 562 c 0,62,63
 265 562 265 562 235 552 c 128,-1,64
 205 542 205 542 171 525 c 1,65,-1
 146 594 l 1,45,46
470 218 m 0,66,67
 470 172 470 172 449 141 c 128,-1,68
 428 110 428 110 392.5 95 c 128,-1,69
 357 80 357 80 312 80 c 0,70,71
 255 80 255 80 206.5 108 c 128,-1,72
 158 136 158 136 114.5 197 c 128,-1,73
 71 258 71 258 29 356 c 1,74,-1
 100 382 l 1,75,76
 129 311 129 311 160.5 259.5 c 128,-1,77
 192 208 192 208 228 180.5 c 128,-1,78
 264 153 264 153 305 153 c 0,79,80
 343 153 343 153 367 170.5 c 128,-1,81
 391 188 391 188 391 227 c 0,82,83
 391 275 391 275 358 310 c 128,-1,84
 325 345 325 345 278 374 c 1,85,-1
 376 375 l 1,86,-1
 410 341 l 2,87,88
 436 312 436 312 453 282.5 c 128,-1,89
 470 253 470 253 470 218 c 0,66,67
502 816 m 256,90,91
 502 837 502 837 516.5 851.5 c 128,-1,92
 531 866 531 866 552 866 c 0,93,94
 572 866 572 866 587 851.5 c 128,-1,95
 602 837 602 837 602 816 c 256,96,97
 602 795 602 795 587 780.5 c 128,-1,98
 572 766 572 766 552 766 c 0,99,100
 531 766 531 766 516.5 780.5 c 128,-1,101
 502 795 502 795 502 816 c 256,90,91
759 833 m 1,102,103
 736 732 736 732 682.5 690.5 c 128,-1,104
 629 649 629 649 553 649 c 0,105,106
 481 649 481 649 427 693.5 c 128,-1,107
 373 738 373 738 339 833 c 1,108,-1
 408 856 l 1,109,110
 434 786 434 786 468 751 c 128,-1,111
 502 716 502 716 555 716 c 0,112,113
 613 716 613 716 641.5 753.5 c 128,-1,114
 670 791 670 791 686 858 c 1,115,-1
 759 833 l 1,102,103
EndSplineSet
EndChar

StartChar: uni0951
Encoding: 2385 2385 85
Width: 0
GlyphClass: 4
Flags: W
AnchorPoint: "Anchor-9" -170 622 mark 0
AnchorPoint: "Anchor-5" -170 622 mark 0
AnchorPoint: "Anchor-3" -170 622 mark 0
AnchorPoint: "Anchor-0" -170 622 mark 0
LayerCount: 2
Fore
SplineSet
-94 671 m 1,0,-1
 -165 671 l 1,1,-1
 -165 872 l 1,2,-1
 -94 872 l 1,3,-1
 -94 671 l 1,0,-1
EndSplineSet
Position2: "Single Positioning lookup 21 subtable" dx=37 dy=0 dh=0 dv=0
Position2: "Single Positioning lookup 20 subtable" dx=142 dy=0 dh=0 dv=0
Position2: "Single Positioning lookup 19 subtable" dx=317 dy=0 dh=0 dv=0
Position2: "Single Positioning lookup 18 subtable" dx=245 dy=0 dh=0 dv=0
Position2: "Single Positioning lookup 17 subtable" dx=215 dy=0 dh=0 dv=0
Position2: "Single Positioning lookup 16 subtable" dx=159 dy=0 dh=0 dv=0
Position2: "Single Positioning lookup 15 subtable" dx=98 dy=0 dh=0 dv=0
Position2: "Single Positioning lookup 14 subtable" dx=169 dy=0 dh=0 dv=0
Position2: "Single Positioning lookup 13 subtable" dx=98 dy=0 dh=0 dv=0
Position2: "Single Positioning lookup 12 subtable" dx=234 dy=0 dh=0 dv=0
Position2: "Single Positioning lookup 11 subtable" dx=176 dy=0 dh=0 dv=0
Position2: "Single Positioning lookup 10 subtable" dx=269 dy=0 dh=0 dv=0
Position2: "Single Positioning lookup 9 subtable" dx=220 dy=0 dh=0 dv=0
Position2: "Single Positioning lookup 8 subtable" dx=288 dy=0 dh=0 dv=0
Position2: "Single Positioning lookup 7 subtable" dx=317 dy=0 dh=0 dv=0
Position2: "Single Positioning lookup 6 subtable" dx=342 dy=0 dh=0 dv=0
EndChar

StartChar: uni0952
Encoding: 2386 2386 86
Width: 0
GlyphClass: 4
Flags: W
AnchorPoint: "Anchor-8" -249 0 mark 0
AnchorPoint: "Anchor-2" -249 0 mark 0
LayerCount: 2
Fore
SplineSet
-413 -77 m 1,0,-1
 -84 -77 l 1,1,-1
 -84 -148 l 1,2,-1
 -413 -148 l 1,3,-1
 -413 -77 l 1,0,-1
EndSplineSet
Position2: "Single Positioning lookup 4 per glyph data 0" dx=0 dy=-234 dh=0 dv=0
Position2: "Single Positioning lookup 3 per glyph data 0" dx=0 dy=-59 dh=0 dv=0
Position2: "Single Positioning lookup 2 per glyph data 0" dx=0 dy=-127 dh=0 dv=0
Position2: "Single Positioning lookup 1 per glyph data 0" dx=0 dy=-186 dh=0 dv=0
EndChar

StartChar: uni0953
Encoding: 2387 2387 87
Width: 0
GlyphClass: 4
Flags: W
AnchorPoint: "Anchor-5" -170 622 mark 0
AnchorPoint: "Anchor-0" -170 622 mark 0
LayerCount: 2
Fore
SplineSet
-152 683 m 1,0,-1
 -266 873 l 1,1,-1
 -158 873 l 1,2,-1
 -87 683 l 1,3,-1
 -152 683 l 1,0,-1
EndSplineSet
EndChar

StartChar: uni0954
Encoding: 2388 2388 88
Width: 0
GlyphClass: 4
Flags: W
AnchorPoint: "Anchor-5" -170 622 mark 0
AnchorPoint: "Anchor-0" -170 622 mark 0
LayerCount: 2
Fore
SplineSet
0 873 m 1,0,-1
 -113 683 l 1,1,-1
 -178 683 l 1,2,-1
 -107 873 l 1,3,-1
 0 873 l 1,0,-1
EndSplineSet
EndChar

StartChar: candralongevowelsigndeva
Encoding: 2389 2389 89
Width: 0
GlyphClass: 4
Flags: W
AnchorPoint: "Anchor-5" -180 622 mark 0
AnchorPoint: "Anchor-0" -180 622 mark 0
LayerCount: 2
Fore
SplineSet
-306 719 m 1,0,-1
 22 719 l 1,1,-1
 22 655 l 1,2,-1
 -306 655 l 1,3,-1
 -306 719 l 1,0,-1
42 871 m 1,4,5
 29 818 29 818 2 786.5 c 128,-1,6
 -25 755 -25 755 -62.5 741.5 c 128,-1,7
 -100 728 -100 728 -146 728 c 0,8,9
 -210 728 -210 728 -259.5 762 c 128,-1,10
 -309 796 -309 796 -339 871 c 1,11,-1
 -271 895 l 1,12,13
 -249 843 -249 843 -220 820 c 128,-1,14
 -191 797 -191 797 -144 797 c 0,15,16
 -94 797 -94 797 -69 820.5 c 128,-1,17
 -44 844 -44 844 -30 896 c 1,18,-1
 42 871 l 1,4,5
EndSplineSet
EndChar

StartChar: uevowelsigndeva
Encoding: 2390 2390 90
Width: 0
GlyphClass: 4
Flags: W
AnchorPoint: "Anchor-8" -305 0 mark 0
AnchorPoint: "Anchor-2" -305 0 mark 0
LayerCount: 2
Fore
SplineSet
-305 -182 m 256,0,1
 -370 -182 -370 -182 -420 -162.5 c 128,-1,2
 -470 -143 -470 -143 -501 -118 c 1,3,-1
 -478 -52 l 1,4,5
 -443 -77 -443 -77 -404.5 -94 c 128,-1,6
 -366 -111 -366 -111 -305 -111 c 256,7,8
 -244 -111 -244 -111 -205.5 -94 c 128,-1,9
 -167 -77 -167 -77 -133 -52 c 1,10,-1
 -109 -118 l 1,11,12
 -140 -143 -140 -143 -190 -162.5 c 128,-1,13
 -240 -182 -240 -182 -305 -182 c 256,0,1
EndSplineSet
Substitution2: "Single Substitution lookup 18 subtable" uevowelsignlowdeva
Position2: "Single Positioning lookup 0 subtable" dx=0 dy=-44 dh=0 dv=0
EndChar

StartChar: uuevowelsigndeva
Encoding: 2391 2391 91
Width: 0
GlyphClass: 4
Flags: W
AnchorPoint: "Anchor-8" -305 0 mark 0
AnchorPoint: "Anchor-2" -305 0 mark 0
LayerCount: 2
Fore
SplineSet
-305 -150 m 0,0,1
 -369 -150 -369 -150 -419 -131 c 128,-1,2
 -469 -112 -469 -112 -501 -86 c 1,3,-1
 -478 -20 l 1,4,5
 -443 -46 -443 -46 -404.5 -62.5 c 128,-1,6
 -366 -79 -366 -79 -305 -79 c 256,7,8
 -244 -79 -244 -79 -205.5 -62.5 c 128,-1,9
 -167 -46 -167 -46 -133 -20 c 1,10,-1
 -109 -86 l 1,11,12
 -140 -111 -140 -111 -191.5 -130.5 c 128,-1,13
 -243 -150 -243 -150 -305 -150 c 0,0,1
-305 -268 m 256,14,15
 -370 -268 -370 -268 -418 -252 c 128,-1,16
 -466 -236 -466 -236 -501 -216 c 1,17,-1
 -478 -150 l 1,18,19
 -434 -176 -434 -176 -394.5 -186 c 128,-1,20
 -355 -196 -355 -196 -305 -196 c 256,21,22
 -255 -196 -255 -196 -215.5 -186 c 128,-1,23
 -176 -176 -176 -176 -133 -150 c 1,24,-1
 -109 -216 l 1,25,26
 -144 -236 -144 -236 -192 -252 c 128,-1,27
 -240 -268 -240 -268 -305 -268 c 256,14,15
EndSplineSet
Substitution2: "Single Substitution lookup 18 subtable" uuevowelsignlowdeva
Position2: "Single Positioning lookup 0 subtable" dx=0 dy=-71 dh=0 dv=0
EndChar

StartChar: uni0960
Encoding: 2400 2400 100
Width: 853
GlyphClass: 2
Flags: W
AnchorPoint: "Anchor-2" 422 0 basechar 0
AnchorPoint: "Anchor-0" 382 622 basechar 0
LayerCount: 2
Fore
SplineSet
462 551 m 1,0,-1
 462 0 l 1,1,-1
 382 0 l 1,2,-1
 382 551 l 1,3,-1
 0 551 l 1,4,-1
 0 622 l 1,5,-1
 867 622 l 1,6,-1
 867 551 l 1,7,-1
 462 551 l 1,0,-1
27 417 m 1,8,9
 61 433 61 433 98 444.5 c 128,-1,10
 135 456 135 456 179 456 c 256,11,12
 223 456 223 456 257 441 c 128,-1,13
 291 426 291 426 325.5 391.5 c 128,-1,14
 360 357 360 357 403 298 c 1,15,-1
 382 267 l 1,16,-1
 343 258 l 1,17,18
 318 291 318 291 298 314.5 c 128,-1,19
 278 338 278 338 260 352.5 c 128,-1,20
 242 367 242 367 223 373.5 c 128,-1,21
 204 380 204 380 181 380 c 0,22,23
 153 380 153 380 124.5 372 c 128,-1,24
 96 364 96 364 55 343 c 1,25,-1
 27 417 l 1,8,9
127 65 m 1,26,-1
 80 132 l 1,27,-1
 369 307 l 1,28,-1
 408 251 l 1,29,-1
 127 65 l 1,26,-1
442 328 m 1,30,31
 482 330 482 330 523.5 335 c 128,-1,32
 565 340 565 340 588 347 c 1,33,-1
 588 338 l 1,34,35
 581 350 581 350 577.5 362 c 128,-1,36
 574 374 574 374 574 387 c 0,37,38
 574 419 574 419 595 434.5 c 128,-1,39
 616 450 616 450 641 450 c 0,40,41
 667 450 667 450 685.5 440 c 128,-1,42
 704 430 704 430 714 412.5 c 128,-1,43
 724 395 724 395 724 373 c 0,44,45
 724 345 724 345 710 328 c 128,-1,46
 696 311 696 311 676 303 c 1,47,48
 690 279 690 279 703.5 257.5 c 128,-1,49
 717 236 717 236 730 217 c 1,50,-1
 719 184 l 1,51,-1
 671 184 l 1,52,53
 663 197 663 197 651.5 215.5 c 128,-1,54
 640 234 640 234 629.5 253.5 c 128,-1,55
 619 273 619 273 613 286 c 1,56,57
 596 280 596 280 568 274 c 128,-1,58
 540 268 540 268 510 264.5 c 128,-1,59
 480 261 480 261 455 260 c 1,60,-1
 442 328 l 1,30,31
840 27 m 1,61,62
 814 14 814 14 781 3.5 c 128,-1,63
 748 -7 748 -7 707 -7 c 0,64,65
 657 -7 657 -7 621 10.5 c 128,-1,66
 585 28 585 28 566 58 c 128,-1,67
 547 88 547 88 547 125 c 0,68,69
 547 166 547 166 580.5 199.5 c 128,-1,70
 614 233 614 233 682 246 c 1,71,-1
 719 184 l 1,72,73
 664 177 664 177 642.5 157 c 128,-1,74
 621 137 621 137 621 116 c 0,75,76
 621 88 621 88 643 75.5 c 128,-1,77
 665 63 665 63 702 63 c 0,78,79
 734 63 734 63 757.5 69.5 c 128,-1,80
 781 76 781 76 815 90 c 1,81,-1
 840 27 l 1,61,62
879 -127 m 1,82,83
 853 -140 853 -140 820 -151 c 128,-1,84
 787 -162 787 -162 746 -162 c 0,85,86
 693 -162 693 -162 657.5 -145 c 128,-1,87
 622 -128 622 -128 604 -98 c 128,-1,88
 586 -68 586 -68 586 -30 c 0,89,90
 586 -7 586 -7 597 14.5 c 128,-1,91
 608 36 608 36 629 52 c 1,92,-1
 702 20 l 1,93,94
 677 4 677 4 668.5 -9 c 128,-1,95
 660 -22 660 -22 660 -39 c 0,96,97
 660 -67 660 -67 682 -79.5 c 128,-1,98
 704 -92 704 -92 741 -92 c 0,99,100
 773 -92 773 -92 796.5 -85.5 c 128,-1,101
 820 -79 820 -79 854 -64 c 1,102,-1
 879 -127 l 1,82,83
EndSplineSet
EndChar

StartChar: uni0961
Encoding: 2401 2401 101
Width: 699
GlyphClass: 2
Flags: W
AnchorPoint: "Anchor-0" 470 622 basechar 0
LayerCount: 2
Fore
SplineSet
757 -164 m 1,0,1
 731 -177 731 -177 698 -187.5 c 128,-1,2
 665 -198 665 -198 624 -198 c 0,3,4
 571 -198 571 -198 535.5 -181 c 128,-1,5
 500 -164 500 -164 482 -134 c 128,-1,6
 464 -104 464 -104 464 -66 c 0,7,8
 464 -43 464 -43 475 -21.5 c 128,-1,9
 486 0 486 0 507 16 c 1,10,-1
 580 -16 l 1,11,12
 555 -32 555 -32 546.5 -45 c 128,-1,13
 538 -58 538 -58 538 -75 c 0,14,15
 538 -103 538 -103 560 -115.5 c 128,-1,16
 582 -128 582 -128 619 -128 c 0,17,18
 651 -128 651 -128 674.5 -121.5 c 128,-1,19
 698 -115 698 -115 732 -101 c 1,20,-1
 757 -164 l 1,0,1
718 -9 m 1,21,22
 692 -22 692 -22 658.5 -32.5 c 128,-1,23
 625 -43 625 -43 584 -43 c 0,24,25
 534 -43 534 -43 498.5 -25.5 c 128,-1,26
 463 -8 463 -8 444 22 c 128,-1,27
 425 52 425 52 425 88 c 0,28,29
 425 120 425 120 444 147 c 128,-1,30
 463 174 463 174 502.5 192 c 128,-1,31
 542 210 542 210 602 215 c 1,32,-1
 634 152 l 1,33,34
 580 148 580 148 550.5 137 c 128,-1,35
 521 126 521 126 510 111.5 c 128,-1,36
 499 97 499 97 499 80 c 0,37,38
 499 52 499 52 521 39 c 128,-1,39
 543 26 543 26 580 26 c 0,40,41
 612 26 612 26 635.5 33 c 128,-1,42
 659 40 659 40 693 54 c 1,43,-1
 718 -9 l 1,21,22
656 264 m 0,44,45
 656 229 656 229 649 201.5 c 128,-1,46
 642 174 642 174 634 152 c 1,47,-1
 557 183 l 1,48,49
 565 202 565 202 570 222.5 c 128,-1,50
 575 243 575 243 575 268 c 0,51,52
 575 313 575 313 553 334.5 c 128,-1,53
 531 356 531 356 496 356 c 0,54,55
 471 356 471 356 445.5 344 c 128,-1,56
 420 332 420 332 397 300.5 c 128,-1,57
 374 269 374 269 356 208 c 1,58,-1
 279 232 l 1,59,60
 304 327 304 327 362.5 376.5 c 128,-1,61
 421 426 421 426 506 426 c 0,62,63
 539 426 539 426 573.5 410 c 128,-1,64
 608 394 608 394 632 358.5 c 128,-1,65
 656 323 656 323 656 264 c 0,44,45
204 426 m 0,66,67
 237 426 237 426 265 418 c 128,-1,68
 293 410 293 410 319 394.5 c 128,-1,69
 345 379 345 379 369 357 c 1,70,-1
 337 292 l 1,71,72
 306 318 306 318 276.5 335.5 c 128,-1,73
 247 353 247 353 209 353 c 0,74,75
 169 353 169 353 147.5 330 c 128,-1,76
 126 307 126 307 126 271 c 0,77,78
 126 233 126 233 147.5 198.5 c 128,-1,79
 169 164 169 164 210 126.5 c 128,-1,80
 251 89 251 89 309 40 c 1,81,-1
 255 -12 l 1,82,83
 197 38 197 38 149 83.5 c 128,-1,84
 101 129 101 129 73 175.5 c 128,-1,85
 45 222 45 222 45 275 c 0,86,87
 45 315 45 315 59.5 343.5 c 128,-1,88
 74 372 74 372 97.5 390.5 c 128,-1,89
 121 409 121 409 149 417.5 c 128,-1,90
 177 426 177 426 204 426 c 0,66,67
470 551 m 1,91,-1
 0 551 l 1,92,-1
 0 622 l 1,93,-1
 714 622 l 1,94,-1
 714 551 l 1,95,-1
 550 551 l 1,96,-1
 550 378 l 1,97,-1
 470 413 l 1,98,-1
 470 551 l 1,91,-1
EndSplineSet
EndChar

StartChar: uni0962
Encoding: 2402 2402 102
Width: 0
GlyphClass: 4
Flags: W
AnchorPoint: "Anchor-6" -170 0 mark 0
AnchorPoint: "Anchor-1" -170 0 mark 0
LayerCount: 2
Fore
SplineSet
-246 -102 m 1,0,1
 -265 -86 -265 -86 -286 -75.5 c 128,-1,2
 -307 -65 -307 -65 -332 -65 c 0,3,4
 -363 -65 -363 -65 -378.5 -82 c 128,-1,5
 -394 -99 -394 -99 -394 -125 c 0,6,7
 -394 -152 -394 -152 -378 -177.5 c 128,-1,8
 -362 -203 -362 -203 -331.5 -230.5 c 128,-1,9
 -301 -258 -301 -258 -258 -293 c 1,10,-1
 -304 -343 l 1,11,12
 -349 -304 -349 -304 -386 -268.5 c 128,-1,13
 -423 -233 -423 -233 -444.5 -196 c 128,-1,14
 -466 -159 -466 -159 -466 -118 c 0,15,16
 -466 -76 -466 -76 -446.5 -50 c 128,-1,17
 -427 -24 -427 -24 -398 -12 c 128,-1,18
 -369 0 -369 0 -341 0 c 0,19,20
 -303 0 -303 0 -270.5 -14 c 128,-1,21
 -238 -28 -238 -28 -208 -54 c 1,22,-1
 -246 -102 l 1,0,1
-104 0 m 0,23,24
 -78 0 -78 0 -50 -11 c 128,-1,25
 -22 -22 -22 -22 -3 -47.5 c 128,-1,26
 16 -73 16 -73 16 -115 c 0,27,28
 16 -144 16 -144 7.5 -171 c 128,-1,29
 -1 -198 -1 -198 -15 -221 c 1,30,31
 -71 -227 -71 -227 -95 -242.5 c 128,-1,32
 -119 -258 -119 -258 -119 -284 c 0,33,34
 -119 -308 -119 -308 -100.5 -319 c 128,-1,35
 -82 -330 -82 -330 -59 -330 c 0,36,37
 -35 -330 -35 -330 -17.5 -324 c 128,-1,38
 0 -318 0 -318 26 -305 c 1,39,-1
 45 -367 l 1,40,41
 25 -377 25 -377 -1.5 -385.5 c 128,-1,42
 -28 -394 -28 -394 -60 -394 c 0,43,44
 -119 -394 -119 -394 -152.5 -362.5 c 128,-1,45
 -186 -331 -186 -331 -186 -281 c 0,46,47
 -186 -251 -186 -251 -170 -225.5 c 128,-1,48
 -154 -200 -154 -200 -120 -183 c 128,-1,49
 -86 -166 -86 -166 -32 -160 c 1,50,-1
 -80 -188 l 1,51,52
 -69 -171 -69 -171 -63 -154.5 c 128,-1,53
 -57 -138 -57 -138 -57 -118 c 0,54,55
 -57 -89 -57 -89 -73 -76 c 128,-1,56
 -89 -63 -89 -63 -115 -63 c 0,57,58
 -133 -63 -133 -63 -151.5 -72 c 128,-1,59
 -170 -81 -170 -81 -186.5 -105 c 128,-1,60
 -203 -129 -203 -129 -216 -175 c 1,61,-1
 -286 -157 l 1,62,63
 -266 -90 -266 -90 -223 -45 c 128,-1,64
 -180 0 -180 0 -104 0 c 0,23,24
EndSplineSet
Substitution2: "Single Substitution lookup 24 subtable" lvocalicvowelsignlowdeva
Substitution2: "Single Substitution lookup 19 subtable" lvocalicvowelsignleftdeva
EndChar

StartChar: uni0963
Encoding: 2403 2403 103
Width: 0
GlyphClass: 4
Flags: W
AnchorPoint: "Anchor-6" -170 0 mark 0
AnchorPoint: "Anchor-1" -170 0 mark 0
LayerCount: 2
Fore
SplineSet
-1 -277 m 256,0,1
 -33 -277 -33 -277 -62 -266 c 128,-1,2
 -91 -255 -91 -255 -109 -232.5 c 128,-1,3
 -127 -210 -127 -210 -127 -176 c 0,4,5
 -127 -144 -127 -144 -106 -118 c 128,-1,6
 -85 -92 -85 -92 -30 -76 c 1,7,-1
 -55 -116 l 1,8,9
 -61 -88 -61 -88 -75 -75.5 c 128,-1,10
 -89 -63 -89 -63 -115 -63 c 0,11,12
 -133 -63 -133 -63 -151.5 -72 c 128,-1,13
 -170 -81 -170 -81 -186.5 -105 c 128,-1,14
 -203 -129 -203 -129 -216 -175 c 1,15,-1
 -286 -157 l 1,16,17
 -266 -89 -266 -89 -222 -44.5 c 128,-1,18
 -178 0 -178 0 -104 0 c 0,19,20
 -78 0 -78 0 -50 -12 c 128,-1,21
 -22 -24 -22 -24 -3 -50.5 c 128,-1,22
 16 -77 16 -77 16 -120 c 0,23,24
 16 -122 16 -122 16 -124 c 128,-1,25
 16 -126 16 -126 16 -128 c 0,26,27
 -27 -135 -27 -135 -44 -149 c 128,-1,28
 -61 -163 -61 -163 -61 -180 c 0,29,30
 -61 -199 -61 -199 -42 -207.5 c 128,-1,31
 -23 -216 -23 -216 0 -216 c 256,32,33
 23 -216 23 -216 41 -210 c 128,-1,34
 59 -204 59 -204 84 -191 c 1,35,-1
 104 -252 l 1,36,37
 84 -262 84 -262 57.5 -269.5 c 128,-1,38
 31 -277 31 -277 -1 -277 c 256,0,1
-341 0 m 0,39,40
 -303 0 -303 0 -270.5 -14 c 128,-1,41
 -238 -28 -238 -28 -208 -54 c 1,42,-1
 -246 -102 l 1,43,44
 -265 -86 -265 -86 -286 -75.5 c 128,-1,45
 -307 -65 -307 -65 -332 -65 c 0,46,47
 -363 -65 -363 -65 -378.5 -82 c 128,-1,48
 -394 -99 -394 -99 -394 -125 c 0,49,50
 -394 -152 -394 -152 -378 -177.5 c 128,-1,51
 -362 -203 -362 -203 -331.5 -230.5 c 128,-1,52
 -301 -258 -301 -258 -258 -293 c 1,53,-1
 -304 -343 l 1,54,55
 -349 -304 -349 -304 -386 -268.5 c 128,-1,56
 -423 -233 -423 -233 -444.5 -196 c 128,-1,57
 -466 -159 -466 -159 -466 -118 c 0,58,59
 -466 -76 -466 -76 -446.5 -50 c 128,-1,60
 -427 -24 -427 -24 -398 -12 c 128,-1,61
 -369 0 -369 0 -341 0 c 0,39,40
38 -394 m 0,62,63
 -2 -394 -2 -394 -30 -380 c 128,-1,64
 -58 -366 -58 -366 -73 -341 c 128,-1,65
 -88 -316 -88 -316 -88 -283 c 0,66,67
 -88 -272 -88 -272 -86.5 -260.5 c 128,-1,68
 -85 -249 -85 -249 -81 -236 c 1,69,-1
 -21 -272 l 2,70,71
 -21 -268 -21 -268 -21 -273.5 c 128,-1,72
 -21 -279 -21 -279 -21 -287 c 0,73,74
 -21 -310 -21 -310 -2.5 -321 c 128,-1,75
 16 -332 16 -332 39 -332 c 256,76,77
 62 -332 62 -332 80 -326 c 128,-1,78
 98 -320 98 -320 124 -307 c 1,79,-1
 143 -368 l 1,80,81
 123 -378 123 -378 96.5 -386 c 128,-1,82
 70 -394 70 -394 38 -394 c 0,62,63
EndSplineSet
Substitution2: "Single Substitution lookup 24 subtable" llvocalicvowelsignlowdeva
Substitution2: "Single Substitution lookup 19 subtable" llvocalicvowelsignleftdeva
EndChar

StartChar: dandadeva
Encoding: 2404 2404 104
Width: 379
Flags: W
LayerCount: 2
Fore
SplineSet
194 622 m 1,0,-1
 275 622 l 1,1,-1
 275 0 l 1,2,-1
 194 0 l 1,3,-1
 194 622 l 1,0,-1
EndSplineSet
EndChar

StartChar: dbldandadeva
Encoding: 2405 2405 105
Width: 599
Flags: W
LayerCount: 2
Fore
SplineSet
414 622 m 1,0,-1
 495 622 l 1,1,-1
 495 0 l 1,2,-1
 414 0 l 1,3,-1
 414 622 l 1,0,-1
194 622 m 1,4,-1
 275 622 l 1,5,-1
 275 0 l 1,6,-1
 194 0 l 1,7,-1
 194 622 l 1,4,-1
EndSplineSet
EndChar

StartChar: uni0966
Encoding: 2406 2406 106
Width: 551
GlyphClass: 2
Flags: W
AnchorPoint: "Anchor-3" 235 622 basechar 0
LayerCount: 2
Fore
SplineSet
275 121 m 0,0,1
 217 121 217 121 171.5 146.5 c 128,-1,2
 126 172 126 172 100.5 217.5 c 128,-1,3
 75 263 75 263 75 321 c 0,4,5
 75 380 75 380 100.5 424.5 c 128,-1,6
 126 469 126 469 171 494.5 c 128,-1,7
 216 520 216 520 274 520 c 0,8,9
 333 520 333 520 378.5 494.5 c 128,-1,10
 424 469 424 469 450 423.5 c 128,-1,11
 476 378 476 378 476 319 c 0,12,13
 476 261 476 261 450.5 216 c 128,-1,14
 425 171 425 171 379.5 146 c 128,-1,15
 334 121 334 121 275 121 c 0,0,1
273 192 m 0,16,17
 326 192 326 192 360 229 c 128,-1,18
 394 266 394 266 394 322 c 0,19,20
 394 379 394 379 362 414 c 128,-1,21
 330 449 330 449 277 449 c 0,22,23
 225 449 225 449 191 412 c 128,-1,24
 157 375 157 375 157 318 c 0,25,26
 157 262 157 262 189 227 c 128,-1,27
 221 192 221 192 273 192 c 0,16,17
EndSplineSet
EndChar

StartChar: uni0967
Encoding: 2407 2407 107
Width: 551
GlyphClass: 2
Flags: W
AnchorPoint: "Anchor-3" 235 622 basechar 0
AnchorPoint: "Anchor-2" 275 0 basechar 0
LayerCount: 2
Fore
SplineSet
275 632 m 0,0,1
 323 632 323 632 357.5 614.5 c 128,-1,2
 392 597 392 597 410.5 567 c 128,-1,3
 429 537 429 537 429 499 c 0,4,5
 429 468 429 468 418 438 c 128,-1,6
 407 408 407 408 381 377 c 128,-1,7
 355 346 355 346 312.5 310.5 c 128,-1,8
 270 275 270 275 207 232 c 1,9,-1
 212 279 l 1,10,-1
 362 160 l 2,11,12
 389 140 389 140 404.5 120 c 128,-1,13
 420 100 420 100 426.5 79 c 128,-1,14
 433 58 433 58 433 34 c 0,15,16
 433 3 433 3 420.5 -23.5 c 128,-1,17
 408 -50 408 -50 386 -79 c 1,18,-1
 321 -30 l 1,19,20
 335 -15 335 -15 342.5 0 c 128,-1,21
 350 15 350 15 350 34 c 0,22,23
 350 54 350 54 341.5 69 c 128,-1,24
 333 84 333 84 310 103 c 2,25,-1
 128 254 l 1,26,-1
 132 276 l 1,27,28
 203 321 203 321 251 359 c 128,-1,29
 299 397 299 397 323.5 431 c 128,-1,30
 348 465 348 465 348 498 c 0,31,32
 348 530 348 530 327.5 546 c 128,-1,33
 307 562 307 562 276 562 c 256,34,35
 245 562 245 562 227.5 548 c 128,-1,36
 210 534 210 534 210 510 c 0,37,38
 210 488 210 488 225.5 471.5 c 128,-1,39
 241 455 241 455 280 444 c 1,40,-1
 231 386 l 1,41,42
 182 407 182 407 158 438 c 128,-1,43
 134 469 134 469 134 517 c 0,44,45
 134 544 134 544 148.5 570.5 c 128,-1,46
 163 597 163 597 194.5 614.5 c 128,-1,47
 226 632 226 632 275 632 c 0,0,1
EndSplineSet
EndChar

StartChar: uni0968
Encoding: 2408 2408 108
Width: 551
GlyphClass: 2
Flags: W
AnchorPoint: "Anchor-3" 235 622 basechar 0
LayerCount: 2
Fore
SplineSet
202 282 m 1,0,1
 241 281 241 281 277 300.5 c 128,-1,2
 313 320 313 320 336.5 356.5 c 128,-1,3
 360 393 360 393 360 442 c 0,4,5
 360 501 360 501 327.5 531 c 128,-1,6
 295 561 295 561 243 561 c 0,7,8
 208 561 208 561 178 553 c 128,-1,9
 148 545 148 545 110 526 c 1,10,-1
 84 595 l 1,11,12
 121 614 121 614 162.5 623 c 128,-1,13
 204 632 204 632 247 632 c 0,14,15
 302 632 302 632 346.5 611 c 128,-1,16
 391 590 391 590 417 547.5 c 128,-1,17
 443 505 443 505 443 440 c 0,18,19
 443 371 443 371 409 317.5 c 128,-1,20
 375 264 375 264 317.5 234 c 128,-1,21
 260 204 260 204 187 204 c 0,22,23
 164 204 164 204 145 212 c 128,-1,24
 126 220 126 220 115 234.5 c 128,-1,25
 104 249 104 249 104 270 c 0,26,27
 104 299 104 299 122 314 c 128,-1,28
 140 329 140 329 168 329 c 0,29,30
 190 329 190 329 213 318 c 128,-1,31
 236 307 236 307 277 274 c 1,32,-1
 286 260 l 1,33,34
 321 231 321 231 356.5 190.5 c 128,-1,35
 392 150 392 150 423.5 108.5 c 128,-1,36
 455 67 455 67 477 33 c 1,37,-1
 413 -12 l 1,38,39
 376 45 376 45 341 91 c 128,-1,40
 306 137 306 137 273.5 172.5 c 128,-1,41
 241 208 241 208 211 233 c 1,42,-1
 202 282 l 1,0,1
EndSplineSet
EndChar

StartChar: uni0969
Encoding: 2409 2409 109
Width: 551
GlyphClass: 2
Flags: W
AnchorPoint: "Anchor-3" 235 622 basechar 0
AnchorPoint: "Anchor-2" 275 0 basechar 0
LayerCount: 2
Fore
SplineSet
227 161 m 1,0,1
 300 165 300 165 333.5 190.5 c 128,-1,2
 367 216 367 216 367 260 c 0,3,4
 367 297 367 297 337 322 c 128,-1,5
 307 347 307 347 251 346 c 1,6,-1
 307 399 l 1,7,8
 382 385 382 385 416 347 c 128,-1,9
 450 309 450 309 450 257 c 0,10,11
 450 207 450 207 419.5 168.5 c 128,-1,12
 389 130 389 130 332 108.5 c 128,-1,13
 275 87 275 87 193 87 c 0,14,15
 159 87 159 87 135 104.5 c 128,-1,16
 111 122 111 122 111 152 c 256,17,18
 111 182 111 182 129 197 c 128,-1,19
 147 212 147 212 175 212 c 0,20,21
 197 212 197 212 221.5 202.5 c 128,-1,22
 246 193 246 193 284 158 c 1,23,-1
 291 143 l 1,24,25
 317 121 317 121 343.5 93 c 128,-1,26
 370 65 370 65 395.5 35 c 128,-1,27
 421 5 421 5 442 -25 c 1,28,-1
 377 -67 l 1,29,30
 348 -26 348 -26 322.5 8 c 128,-1,31
 297 42 297 42 273.5 69 c 128,-1,32
 250 96 250 96 226 116 c 1,33,-1
 227 161 l 1,0,1
90 594 m 1,34,35
 115 608 115 608 155 620 c 128,-1,36
 195 632 195 632 248 632 c 0,37,38
 302 632 302 632 339.5 615.5 c 128,-1,39
 377 599 377 599 397 569 c 128,-1,40
 417 539 417 539 417 498 c 0,41,42
 417 455 417 455 397.5 423.5 c 128,-1,43
 378 392 378 392 335 371 c 1,44,-1
 327 364 l 1,45,46
 301 353 301 353 267.5 346.5 c 128,-1,47
 234 340 234 340 193 340 c 1,48,-1
 189 411 l 1,49,50
 249 411 249 411 281 421.5 c 128,-1,51
 313 432 313 432 325.5 451 c 128,-1,52
 338 470 338 470 338 495 c 0,53,54
 338 530 338 530 314 546 c 128,-1,55
 290 562 290 562 252 562 c 0,56,57
 218 562 218 562 184 552 c 128,-1,58
 150 542 150 542 115 525 c 1,59,-1
 90 594 l 1,34,35
EndSplineSet
EndChar

StartChar: uni096A
Encoding: 2410 2410 110
Width: 551
GlyphClass: 2
Flags: W
AnchorPoint: "Anchor-3" 235 622 basechar 0
LayerCount: 2
Fore
SplineSet
232 313 m 1,0,1
 175 369 175 369 141.5 408.5 c 128,-1,2
 108 448 108 448 90.5 477.5 c 128,-1,3
 73 507 73 507 67.5 531 c 128,-1,4
 62 555 62 555 62 579 c 0,5,6
 62 591 62 591 64 604.5 c 128,-1,7
 66 618 66 618 69 632 c 1,8,-1
 154 617 l 1,9,10
 150 607 150 607 148.5 597 c 128,-1,11
 147 587 147 587 147 579 c 0,12,13
 147 561 147 561 151.5 542 c 128,-1,14
 156 523 156 523 170 499 c 128,-1,15
 184 475 184 475 211 443 c 128,-1,16
 238 411 238 411 283 367 c 2,17,-1
 314 334 l 2,18,19
 368 282 368 282 392 244.5 c 128,-1,20
 416 207 416 207 422 179.5 c 128,-1,21
 428 152 428 152 428 127 c 0,22,23
 428 72 428 72 387.5 35 c 128,-1,24
 347 -2 347 -2 277 -2 c 0,25,26
 234 -2 234 -2 198.5 14.5 c 128,-1,27
 163 31 163 31 141.5 61 c 128,-1,28
 120 91 120 91 120 131 c 0,29,30
 120 159 120 159 128 185 c 128,-1,31
 136 211 136 211 160 245 c 128,-1,32
 184 279 184 279 233 329 c 2,33,-1
 263 363 l 2,34,35
 308 408 308 408 336 441.5 c 128,-1,36
 364 475 364 475 379.5 499.5 c 128,-1,37
 395 524 395 524 400.5 542.5 c 128,-1,38
 406 561 406 561 406 576 c 0,39,40
 406 585 406 585 404.5 595 c 128,-1,41
 403 605 403 605 399 617 c 1,42,-1
 483 632 l 1,43,44
 487 617 487 617 488.5 604 c 128,-1,45
 490 591 490 591 490 579 c 0,46,47
 490 553 490 553 483.5 528.5 c 128,-1,48
 477 504 477 504 458.5 474.5 c 128,-1,49
 440 445 440 445 406 406.5 c 128,-1,50
 372 368 372 368 318 313 c 2,51,-1
 278 270 l 2,52,53
 244 235 244 235 227 211 c 128,-1,54
 210 187 210 187 205 170 c 128,-1,55
 200 153 200 153 200 138 c 0,56,57
 200 111 200 111 217 90 c 128,-1,58
 234 69 234 69 274 69 c 0,59,60
 308 69 308 69 328 88 c 128,-1,61
 348 107 348 107 348 136 c 0,62,63
 348 152 348 152 342.5 169.5 c 128,-1,64
 337 187 337 187 320 212 c 128,-1,65
 303 237 303 237 267 274 c 2,66,-1
 232 313 l 1,0,1
EndSplineSet
EndChar

StartChar: uni096B
Encoding: 2411 2411 111
Width: 551
GlyphClass: 2
Flags: W
AnchorPoint: "Anchor-3" 235 622 basechar 0
LayerCount: 2
Fore
SplineSet
477 -67 m 1,0,1
 459 -36 459 -36 438.5 5 c 128,-1,2
 418 46 418 46 398.5 88 c 128,-1,3
 379 130 379 130 364.5 165.5 c 128,-1,4
 350 201 350 201 344 221 c 0,5,6
 334 245 334 245 327 271 c 128,-1,7
 320 297 320 297 320 313 c 0,8,9
 320 346 320 346 341.5 361.5 c 128,-1,10
 363 377 363 377 391 377 c 0,11,12
 431 377 431 377 453 352.5 c 128,-1,13
 475 328 475 328 475 298 c 0,14,15
 475 260 475 260 452 240.5 c 128,-1,16
 429 221 429 221 392 214 c 128,-1,17
 355 207 355 207 312 207 c 256,18,19
 269 207 269 207 228 217.5 c 128,-1,20
 187 228 187 228 154.5 253 c 128,-1,21
 122 278 122 278 103 321 c 128,-1,22
 84 364 84 364 84 428 c 0,23,24
 84 474 84 474 98 528.5 c 128,-1,25
 112 583 112 583 143 632 c 1,26,-1
 227 611 l 1,27,28
 199 562 199 562 181.5 515.5 c 128,-1,29
 164 469 164 469 164 417 c 0,30,31
 164 347 164 347 199 311.5 c 128,-1,32
 234 276 234 276 308 276 c 0,33,34
 322 276 322 276 336 278 c 128,-1,35
 350 280 350 280 370 284 c 1,36,-1
 412 235 l 1,37,38
 420 214 420 214 435 180.5 c 128,-1,39
 450 147 450 147 469.5 108 c 128,-1,40
 489 69 489 69 509.5 31.5 c 128,-1,41
 530 -6 530 -6 549 -35 c 1,42,-1
 477 -67 l 1,0,1
EndSplineSet
Substitution2: "'locl' Localized Forms in Devanagari2 lookup 30 subtable" fivedevaNEP
Substitution2: "'aalt' Access All Alternates in Devanagari2 lookup 0 subtable" fivedevaNEP
EndChar

StartChar: uni096C
Encoding: 2412 2412 112
Width: 551
GlyphClass: 2
Flags: W
AnchorPoint: "Anchor-3" 235 622 basechar 0
LayerCount: 2
Fore
SplineSet
470 -67 m 1,0,1
 452 -36 452 -36 432.5 1.5 c 128,-1,2
 413 39 413 39 398.5 71.5 c 128,-1,3
 384 104 384 104 379 120 c 2,4,-1
 369 152 l 1,5,6
 359 163 359 163 355.5 181.5 c 128,-1,7
 352 200 352 200 352 210 c 0,8,9
 352 245 352 245 372.5 259.5 c 128,-1,10
 393 274 393 274 418 274 c 0,11,12
 461 274 461 274 483.5 249.5 c 128,-1,13
 506 225 506 225 506 196 c 0,14,15
 506 156 506 156 480.5 136 c 128,-1,16
 455 116 455 116 415.5 110 c 128,-1,17
 376 104 376 104 335 104 c 0,18,19
 269 104 269 104 223.5 127 c 128,-1,20
 178 150 178 150 155 188.5 c 128,-1,21
 132 227 132 227 132 272 c 0,22,23
 132 303 132 303 147 333.5 c 128,-1,24
 162 364 162 364 194 383 c 1,25,-1
 206 396 l 1,26,27
 232 410 232 410 264.5 416.5 c 128,-1,28
 297 423 297 423 333 423 c 0,29,30
 347 423 347 423 361 422 c 128,-1,31
 375 421 375 421 384 419 c 1,32,-1
 377 350 l 1,33,34
 367 351 367 351 354 351.5 c 128,-1,35
 341 352 341 352 324 352 c 0,36,37
 274 352 274 352 243 331 c 128,-1,38
 212 310 212 310 212 266 c 0,39,40
 212 220 212 220 247 197 c 128,-1,41
 282 174 282 174 332 174 c 0,42,43
 344 174 344 174 357 175 c 128,-1,44
 370 176 370 176 387 182 c 1,45,-1
 444 137 l 1,46,47
 456 104 456 104 483.5 55.5 c 128,-1,48
 511 7 511 7 542 -35 c 1,49,-1
 470 -67 l 1,0,1
240 348 m 1,50,51
 178 366 178 366 140.5 403.5 c 128,-1,52
 103 441 103 441 103 501 c 0,53,54
 103 565 103 565 155.5 598.5 c 128,-1,55
 208 632 208 632 288 632 c 0,56,57
 314 632 314 632 345.5 629 c 128,-1,58
 377 626 377 626 391 622 c 1,59,-1
 385 552 l 1,60,61
 367 556 367 556 344.5 559.5 c 128,-1,62
 322 563 322 563 292 563 c 0,63,64
 238 563 238 563 211 545 c 128,-1,65
 184 527 184 527 184 492 c 0,66,67
 184 456 184 456 210 436.5 c 128,-1,68
 236 417 236 417 276 409 c 1,69,-1
 240 348 l 1,50,51
EndSplineSet
EndChar

StartChar: uni096D
Encoding: 2413 2413 113
Width: 551
GlyphClass: 2
Flags: W
AnchorPoint: "Anchor-3" 235 622 basechar 0
LayerCount: 2
Fore
SplineSet
512 270 m 0,0,1
 512 192 512 192 489 143.5 c 128,-1,2
 466 95 466 95 426 72 c 128,-1,3
 386 49 386 49 334 49 c 0,4,5
 273 49 273 49 224.5 74 c 128,-1,6
 176 99 176 99 139.5 158.5 c 128,-1,7
 103 218 103 218 77.5 319 c 128,-1,8
 52 420 52 420 38 573 c 1,9,-1
 118 588 l 1,10,11
 130 440 130 440 154.5 336 c 128,-1,12
 179 232 179 232 221.5 177.5 c 128,-1,13
 264 123 264 123 330 123 c 0,14,15
 391 123 391 123 411.5 164 c 128,-1,16
 432 205 432 205 432 275 c 0,17,18
 432 326 432 326 419.5 370 c 128,-1,19
 407 414 407 414 382.5 441 c 128,-1,20
 358 468 358 468 322 468 c 0,21,22
 306 468 306 468 294 462 c 128,-1,23
 282 456 282 456 275.5 444.5 c 128,-1,24
 269 433 269 433 269 418 c 0,25,26
 269 400 269 400 280 383.5 c 128,-1,27
 291 367 291 367 320 356 c 128,-1,28
 349 345 349 345 401 342 c 1,29,-1
 384 272 l 1,30,31
 285 280 285 280 239 321 c 128,-1,32
 193 362 193 362 193 420 c 0,33,34
 193 473 193 473 227.5 506 c 128,-1,35
 262 539 262 539 322 539 c 0,36,37
 380 539 380 539 422.5 504 c 128,-1,38
 465 469 465 469 488.5 408 c 128,-1,39
 512 347 512 347 512 270 c 0,0,1
EndSplineSet
EndChar

StartChar: uni096E
Encoding: 2414 2414 114
Width: 551
GlyphClass: 2
Flags: W
AnchorPoint: "Anchor-3" 235 622 basechar 0
LayerCount: 2
Fore
SplineSet
273 0 m 0,0,1
 222 0 222 0 176 18 c 128,-1,2
 130 36 130 36 101 74 c 128,-1,3
 72 112 72 112 72 171 c 0,4,5
 72 202 72 202 81.5 233 c 128,-1,6
 91 264 91 264 114.5 301 c 128,-1,7
 138 338 138 338 180 388 c 2,8,-1
 382 632 l 1,9,-1
 444 579 l 1,10,-1
 233 324 l 2,11,12
 203 287 203 287 185.5 260.5 c 128,-1,13
 168 234 168 234 161 212.5 c 128,-1,14
 154 191 154 191 154 168 c 0,15,16
 154 134 154 134 169 113.5 c 128,-1,17
 184 93 184 93 210 83.5 c 128,-1,18
 236 74 236 74 268 74 c 0,19,20
 319 74 319 74 366 91 c 128,-1,21
 413 108 413 108 465 142 c 1,22,-1
 501 68 l 1,23,24
 455 41 455 41 399 20.5 c 128,-1,25
 343 0 343 0 273 0 c 0,0,1
EndSplineSet
Substitution2: "'locl' Localized Forms in Devanagari2 lookup 30 subtable" eightdevaNEP
Substitution2: "'aalt' Access All Alternates in Devanagari2 lookup 0 subtable" eightdevaNEP
EndChar

StartChar: uni096F
Encoding: 2415 2415 115
Width: 551
GlyphClass: 2
Flags: W
AnchorPoint: "Anchor-3" 235 622 basechar 0
LayerCount: 2
Fore
SplineSet
71 470 m 0,0,1
 71 515 71 515 91.5 552 c 128,-1,2
 112 589 112 589 150 610.5 c 128,-1,3
 188 632 188 632 240 632 c 0,4,5
 291 632 291 632 328.5 610.5 c 128,-1,6
 366 589 366 589 386.5 551.5 c 128,-1,7
 407 514 407 514 407 465 c 0,8,9
 407 417 407 417 387.5 381.5 c 128,-1,10
 368 346 368 346 331.5 326 c 128,-1,11
 295 306 295 306 242 304 c 0,12,13
 235 304 235 304 224.5 305.5 c 128,-1,14
 214 307 214 307 205 309 c 2,15,-1
 254 317 l 1,16,17
 267 310 267 310 283.5 299 c 128,-1,18
 300 288 300 288 317 274 c 2,19,-1
 460 158 l 2,20,21
 484 139 484 139 499 119 c 128,-1,22
 514 99 514 99 520.5 78.5 c 128,-1,23
 527 58 527 58 527 34 c 0,24,25
 527 3 527 3 514.5 -23.5 c 128,-1,26
 502 -50 502 -50 480 -79 c 1,27,-1
 416 -30 l 1,28,29
 430 -15 430 -15 437 0 c 128,-1,30
 444 15 444 15 444 34 c 0,31,32
 444 54 444 54 435.5 69 c 128,-1,33
 427 84 427 84 404 103 c 2,34,-1
 166 300 l 2,35,36
 129 331 129 331 108.5 358.5 c 128,-1,37
 88 386 88 386 79.5 413.5 c 128,-1,38
 71 441 71 441 71 470 c 0,0,1
151 464 m 0,39,40
 151 422 151 422 175 396.5 c 128,-1,41
 199 371 199 371 237 371 c 0,42,43
 278 371 278 371 302 398 c 128,-1,44
 326 425 326 425 326 467 c 0,45,46
 326 508 326 508 302.5 534.5 c 128,-1,47
 279 561 279 561 240 561 c 256,48,49
 201 561 201 561 176 534.5 c 128,-1,50
 151 508 151 508 151 464 c 0,39,40
EndSplineSet
Substitution2: "'locl' Localized Forms in Devanagari2 lookup 30 subtable" ninedevaNEP
Substitution2: "'aalt' Access All Alternates in Devanagari2 lookup 0 subtable" ninedevaNEP
EndChar

StartChar: uni0970
Encoding: 2416 2416 116
Width: 426
Flags: W
LayerCount: 2
Fore
SplineSet
213 279 m 0,0,1
 172 279 172 279 138 297 c 128,-1,2
 104 315 104 315 84 346.5 c 128,-1,3
 64 378 64 378 64 419 c 0,4,5
 64 457 64 457 82.5 488.5 c 128,-1,6
 101 520 101 520 135 539 c 128,-1,7
 169 558 169 558 213 558 c 0,8,9
 256 558 256 558 289 539.5 c 128,-1,10
 322 521 322 521 341.5 490 c 128,-1,11
 361 459 361 459 361 419 c 0,12,13
 361 380 361 380 341.5 348 c 128,-1,14
 322 316 322 316 289 297.5 c 128,-1,15
 256 279 256 279 213 279 c 0,0,1
213 345 m 0,16,17
 248 345 248 345 269.5 365.5 c 128,-1,18
 291 386 291 386 291 419 c 0,19,20
 291 451 291 451 269.5 471.5 c 128,-1,21
 248 492 248 492 213 492 c 0,22,23
 176 492 176 492 155 470.5 c 128,-1,24
 134 449 134 449 134 419 c 0,25,26
 134 386 134 386 156.5 365.5 c 128,-1,27
 179 345 179 345 213 345 c 0,16,17
EndSplineSet
EndChar

StartChar: uni0971
Encoding: 2417 2417 117
Width: 317
Flags: W
LayerCount: 2
Fore
SplineSet
105 590 m 0,0,1
 105 616 105 616 122 633.5 c 128,-1,2
 139 651 139 651 164 651 c 0,3,4
 188 651 188 651 205 633.5 c 128,-1,5
 222 616 222 616 222 590 c 0,6,7
 222 565 222 565 205 546.5 c 128,-1,8
 188 528 188 528 164 528 c 0,9,10
 139 528 139 528 122 546.5 c 128,-1,11
 105 565 105 565 105 590 c 0,0,1
EndSplineSet
EndChar

StartChar: marwariddadeva
Encoding: 2424 2424 124
Width: 555
GlyphClass: 2
Flags: W
AnchorPoint: "Anchor-1" 284 0 basechar 0
LayerCount: 2
Fore
SplineSet
208 551 m 1,0,-1
 208 266 l 2,1,2
 208 241 208 241 195.5 226.5 c 128,-1,3
 183 212 183 212 160 212 c 0,4,5
 141 212 141 212 120 224 c 128,-1,6
 99 236 99 236 81 255 c 128,-1,7
 63 274 63 274 52 295 c 128,-1,8
 41 316 41 316 41 333 c 0,9,10
 41 354 41 354 51 368.5 c 128,-1,11
 61 383 61 383 86 394 c 128,-1,12
 111 405 111 405 156 414 c 1,13,-1
 177 416 l 2,14,15
 206 421 206 421 234 424 c 128,-1,16
 262 427 262 427 291 427 c 0,17,18
 369 427 369 427 417 404 c 128,-1,19
 465 381 465 381 487 338 c 128,-1,20
 509 295 509 295 509 235 c 0,21,22
 509 187 509 187 493.5 134 c 128,-1,23
 478 81 478 81 444 29 c 1,24,-1
 372 70 l 1,25,26
 397 103 397 103 412.5 147 c 128,-1,27
 428 191 428 191 428 234 c 0,28,29
 428 272 428 272 416.5 299.5 c 128,-1,30
 405 327 405 327 376 342 c 128,-1,31
 347 357 347 357 293 357 c 0,32,33
 250 357 250 357 211 349 c 128,-1,34
 172 341 172 341 140 327 c 1,35,-1
 127 376 l 1,36,-1
 127 551 l 1,37,-1
 0 551 l 1,38,-1
 0 622 l 1,39,-1
 569 622 l 1,40,-1
 569 551 l 1,41,-1
 208 551 l 1,0,-1
EndSplineSet
EndChar

StartChar: zhadeva
Encoding: 2425 2425 125
Width: 742
Flags: W
LayerCount: 2
Fore
SplineSet
653 551 m 1,0,-1
 653 0 l 1,1,-1
 572 0 l 1,2,-1
 572 394 l 1,3,-1
 435 394 l 2,4,5
 409 394 409 394 393.5 395 c 128,-1,6
 378 396 378 396 369 398 c 1,7,-1
 362 409 l 1,8,9
 404 381 404 381 431 340 c 128,-1,10
 458 299 458 299 458 253 c 0,11,12
 458 209 458 209 437.5 180 c 128,-1,13
 417 151 417 151 383.5 137 c 128,-1,14
 350 123 350 123 310 123 c 256,15,16
 270 123 270 123 233.5 139 c 128,-1,17
 197 155 197 155 162.5 190 c 128,-1,18
 128 225 128 225 95.5 283 c 128,-1,19
 63 341 63 341 31 425 c 1,20,-1
 102 450 l 1,21,22
 133 367 133 367 165 310.5 c 128,-1,23
 197 254 197 254 232 225.5 c 128,-1,24
 267 197 267 197 306 197 c 0,25,26
 338 197 338 197 358.5 212 c 128,-1,27
 379 227 379 227 379 264 c 0,28,29
 379 304 379 304 348.5 339.5 c 128,-1,30
 318 375 318 375 273 401 c 1,31,-1
 302 465 l 1,32,-1
 572 465 l 1,33,-1
 572 551 l 1,34,-1
 0 551 l 1,35,-1
 0 622 l 1,36,-1
 757 622 l 1,37,-1
 757 551 l 1,38,-1
 653 551 l 1,0,-1
256 -35 m 256,39,40
 256 -13 256 -13 270.5 2 c 128,-1,41
 285 17 285 17 306 17 c 0,42,43
 326 17 326 17 340.5 2 c 128,-1,44
 355 -13 355 -13 355 -35 c 256,45,46
 355 -57 355 -57 340.5 -72 c 128,-1,47
 326 -87 326 -87 306 -87 c 0,48,49
 285 -87 285 -87 270.5 -72 c 128,-1,50
 256 -57 256 -57 256 -35 c 256,39,40
349 55 m 0,51,52
 349 76 349 76 363.5 91.5 c 128,-1,53
 378 107 378 107 398 107 c 0,54,55
 419 107 419 107 433.5 91.5 c 128,-1,56
 448 76 448 76 448 55 c 0,57,58
 448 33 448 33 433.5 17.5 c 128,-1,59
 419 2 419 2 398 2 c 0,60,61
 378 2 378 2 363.5 17.5 c 128,-1,62
 349 33 349 33 349 55 c 0,51,52
163 55 m 0,63,64
 163 76 163 76 178 91.5 c 128,-1,65
 193 107 193 107 213 107 c 256,66,67
 233 107 233 107 248 91.5 c 128,-1,68
 263 76 263 76 263 55 c 0,69,70
 263 33 263 33 248 17.5 c 128,-1,71
 233 2 233 2 213 2 c 256,72,73
 193 2 193 2 178 17.5 c 128,-1,74
 163 33 163 33 163 55 c 0,63,64
EndSplineSet
EndChar

StartChar: heavyyadeva
Encoding: 2426 2426 126
Width: 580
Flags: W
LayerCount: 2
Fore
SplineSet
491 551 m 1,0,-1
 491 0 l 1,1,-1
 410 0 l 1,2,-1
 410 216 l 1,3,-1
 426 191 l 1,4,5
 398 169 398 169 355 150.5 c 128,-1,6
 312 132 312 132 253 132 c 0,7,8
 193 132 193 132 148 159.5 c 128,-1,9
 103 187 103 187 75.5 237 c 128,-1,10
 48 287 48 287 38 353 c 1,11,12
 100 366 100 366 130 389.5 c 128,-1,13
 160 413 160 413 160 457 c 0,14,15
 160 489 160 489 145 516.5 c 128,-1,16
 130 544 130 544 114 562 c 1,17,-1
 148 551 l 1,18,-1
 0 551 l 1,19,-1
 0 622 l 1,20,-1
 595 622 l 1,21,-1
 595 551 l 1,22,-1
 491 551 l 1,0,-1
181 551 m 1,23,-1
 208 556 l 1,24,25
 225 522 225 522 230 497.5 c 128,-1,26
 235 473 235 473 235 445 c 2,27,-1
 232 422 l 2,28,29
 228 373 228 373 196 339.5 c 128,-1,30
 164 306 164 306 99 293 c 1,31,-1
 119 330 l 1,32,33
 139 267 139 267 171 235 c 128,-1,34
 203 203 203 203 259 203 c 0,35,36
 300 203 300 203 329.5 214.5 c 128,-1,37
 359 226 359 226 377 240 c 128,-1,38
 395 254 395 254 402 263 c 1,39,-1
 410 263 l 1,40,-1
 410 551 l 1,41,-1
 181 551 l 1,23,-1
419 266 m 1,42,-1
 372 226 l 1,43,-1
 273 346 l 2,44,45
 255 368 255 368 236.5 393 c 128,-1,46
 218 418 218 418 200.5 443 c 128,-1,47
 183 468 183 468 170 487 c 1,48,-1
 210 531 l 1,49,-1
 419 266 l 1,42,-1
EndSplineSet
EndChar

StartChar: gabardeva
Encoding: 2427 2427 127
Width: 563
Flags: W
LayerCount: 2
Fore
SplineSet
208 551 m 1,0,-1
 208 253 l 2,1,2
 208 228 208 228 195.5 213 c 128,-1,3
 183 198 183 198 160 198 c 0,4,5
 141 198 141 198 120 210 c 128,-1,6
 99 222 99 222 81 241.5 c 128,-1,7
 63 261 63 261 52 283.5 c 128,-1,8
 41 306 41 306 41 327 c 0,9,10
 41 350 41 350 54.5 364 c 128,-1,11
 68 378 68 378 102 378 c 2,12,-1
 128 378 l 1,13,-1
 128 551 l 1,14,-1
 0 551 l 1,15,-1
 0 622 l 1,16,-1
 578 622 l 1,17,-1
 578 551 l 1,18,-1
 474 551 l 1,19,-1
 474 0 l 1,20,-1
 394 0 l 1,21,-1
 394 551 l 1,22,-1
 208 551 l 1,0,-1
82 71 m 1,23,-1
 437 71 l 1,24,-1
 437 0 l 1,25,-1
 82 0 l 1,26,-1
 82 71 l 1,23,-1
EndSplineSet
EndChar

StartChar: jabardeva
Encoding: 2428 2428 128
Width: 723
Flags: W
LayerCount: 2
Fore
SplineSet
633 551 m 1,0,-1
 633 0 l 1,1,-1
 553 0 l 1,2,-1
 553 394 l 1,3,-1
 435 394 l 2,4,5
 409 394 409 394 393.5 395 c 128,-1,6
 378 396 378 396 369 398 c 1,7,-1
 362 409 l 1,8,9
 404 381 404 381 431 340 c 128,-1,10
 458 299 458 299 458 253 c 0,11,12
 458 209 458 209 437.5 180 c 128,-1,13
 417 151 417 151 383.5 137 c 128,-1,14
 350 123 350 123 310 123 c 256,15,16
 270 123 270 123 233.5 139 c 128,-1,17
 197 155 197 155 162.5 190 c 128,-1,18
 128 225 128 225 95.5 283 c 128,-1,19
 63 341 63 341 31 425 c 1,20,-1
 102 450 l 1,21,22
 133 367 133 367 165 310.5 c 128,-1,23
 197 254 197 254 232 225.5 c 128,-1,24
 267 197 267 197 306 197 c 0,25,26
 338 197 338 197 358.5 212 c 128,-1,27
 379 227 379 227 379 264 c 0,28,29
 379 304 379 304 348.5 339.5 c 128,-1,30
 318 375 318 375 273 401 c 1,31,-1
 302 465 l 1,32,-1
 553 465 l 1,33,-1
 553 551 l 1,34,-1
 0 551 l 1,35,-1
 0 622 l 1,36,-1
 737 622 l 1,37,-1
 737 551 l 1,38,-1
 633 551 l 1,0,-1
82 71 m 1,39,-1
 585 71 l 1,40,-1
 585 0 l 1,41,-1
 82 0 l 1,42,-1
 82 71 l 1,39,-1
EndSplineSet
EndChar

StartChar: uni097D
Encoding: 2429 2429 129
Width: 469
Flags: W
LayerCount: 2
Fore
SplineSet
222 632 m 0,0,1
 286 632 286 632 330.5 609 c 128,-1,2
 375 586 375 586 399 545 c 128,-1,3
 423 504 423 504 423 449 c 0,4,5
 423 401 423 401 402.5 362.5 c 128,-1,6
 382 324 382 324 345.5 298.5 c 128,-1,7
 309 273 309 273 260 262 c 1,8,-1
 260 0 l 1,9,-1
 180 0 l 1,10,-1
 180 327 l 1,11,12
 235 328 235 328 270 344.5 c 128,-1,13
 305 361 305 361 322 389.5 c 128,-1,14
 339 418 339 418 339 454 c 0,15,16
 339 507 339 507 303.5 534 c 128,-1,17
 268 561 268 561 223 561 c 0,18,19
 179 561 179 561 149 551.5 c 128,-1,20
 119 542 119 542 88 528 c 1,21,-1
 63 598 l 1,22,23
 95 611 95 611 136 621.5 c 128,-1,24
 177 632 177 632 222 632 c 0,0,1
EndSplineSet
EndChar

StartChar: ddabardeva
Encoding: 2430 2430 130
Width: 577
GlyphClass: 2
Flags: W
AnchorPoint: "Anchor-1" 330 0 basechar 0
AnchorPoint: "Anchor-0" 401 622 basechar 0
LayerCount: 2
Fore
SplineSet
358 266 m 0,0,1
 329 266 329 266 297 260 c 128,-1,2
 265 254 265 254 242 244 c 1,3,4
 212 261 212 261 188.5 281.5 c 128,-1,5
 165 302 165 302 151 327 c 128,-1,6
 137 352 137 352 137 381 c 0,7,8
 137 405 137 405 146.5 423 c 128,-1,9
 156 441 156 441 172 452 c 0,10,11
 187 462 187 462 204 468.5 c 128,-1,12
 221 475 221 475 244 478 c 128,-1,13
 267 481 267 481 301 481 c 2,14,-1
 401 481 l 1,15,-1
 401 551 l 1,16,-1
 0 551 l 1,17,-1
 0 622 l 1,18,-1
 592 622 l 1,19,-1
 592 551 l 1,20,-1
 482 551 l 1,21,-1
 482 410 l 1,22,-1
 286 410 l 2,23,24
 253 410 253 410 235 403.5 c 128,-1,25
 217 397 217 397 217 374 c 0,26,27
 217 357 217 357 228 344 c 128,-1,28
 239 331 239 331 254 322 c 1,29,30
 277 329 277 329 305 333 c 128,-1,31
 333 337 333 337 359 337 c 0,32,33
 415 337 415 337 454 322.5 c 128,-1,34
 493 308 493 308 513.5 280.5 c 128,-1,35
 534 253 534 253 534 215 c 256,36,37
 534 177 534 177 512.5 146.5 c 128,-1,38
 491 116 491 116 447.5 99 c 128,-1,39
 404 82 404 82 337 82 c 0,40,41
 273 82 273 82 216 99 c 128,-1,42
 159 116 159 116 110.5 147 c 128,-1,43
 62 178 62 178 22 220 c 1,44,-1
 81 271 l 1,45,46
 136 213 136 213 197 183.5 c 128,-1,47
 258 154 258 154 337 154 c 0,48,49
 399 154 399 154 426 169 c 128,-1,50
 453 184 453 184 453 214 c 0,51,52
 453 230 453 230 443.5 241.5 c 128,-1,53
 434 253 434 253 413 259.5 c 128,-1,54
 392 266 392 266 358 266 c 0,0,1
62 71 m 1,55,-1
 531 71 l 1,56,-1
 531 0 l 1,57,-1
 62 0 l 1,58,-1
 62 71 l 1,55,-1
EndSplineSet
EndChar

StartChar: babardeva
Encoding: 2431 2431 131
Width: 571
Flags: W
LayerCount: 2
Fore
SplineSet
585 551 m 1,0,-1
 481 551 l 1,1,-1
 481 0 l 1,2,-1
 401 0 l 1,3,-1
 401 221 l 1,4,-1
 416 195 l 1,5,6
 398 182 398 182 373.5 168.5 c 128,-1,7
 349 155 349 155 316.5 146 c 128,-1,8
 284 137 284 137 241 137 c 0,9,10
 185 137 185 137 140.5 158 c 128,-1,11
 96 179 96 179 71 217 c 128,-1,12
 46 255 46 255 46 306 c 0,13,14
 46 363 46 363 73.5 402.5 c 128,-1,15
 101 442 101 442 150.5 462.5 c 128,-1,16
 200 483 200 483 265 483 c 0,17,18
 279 483 279 483 299 481.5 c 128,-1,19
 319 480 319 480 338.5 478 c 128,-1,20
 358 476 358 476 369 473 c 1,21,-1
 363 404 l 1,22,23
 343 408 343 408 318 411.5 c 128,-1,24
 293 415 293 415 268 415 c 0,25,26
 202 415 202 415 164.5 387 c 128,-1,27
 127 359 127 359 127 306 c 0,28,29
 127 254 127 254 160.5 229 c 128,-1,30
 194 204 194 204 242 204 c 0,31,32
 283 204 283 204 315.5 217 c 128,-1,33
 348 230 348 230 372.5 250.5 c 128,-1,34
 397 271 397 271 414 291 c 1,35,-1
 401 240 l 1,36,-1
 401 551 l 1,37,-1
 0 551 l 1,38,-1
 0 622 l 1,39,-1
 585 622 l 1,40,-1
 585 551 l 1,0,-1
203 455 m 1,41,-1
 389 204 l 1,42,-1
 339 165 l 1,43,-1
 144 429 l 1,44,-1
 203 455 l 1,41,-1
82 71 m 1,45,-1
 437 71 l 1,46,-1
 437 0 l 1,47,-1
 82 0 l 1,48,-1
 82 71 l 1,45,-1
EndSplineSet
EndChar

StartChar: uni200C
Encoding: 8204 8204 132
Width: 0
GlyphClass: 4
Flags: W
LayerCount: 2
Fore
SplineSet
-26 788 m 1,0,-1
 26 788 l 1,1,-1
 26 -166 l 1,2,-1
 -26 -166 l 1,3,-1
 -26 788 l 1,0,-1
EndSplineSet
EndChar

StartChar: uni200D
Encoding: 8205 8205 133
Width: 0
GlyphClass: 4
Flags: W
LayerCount: 2
Fore
SplineSet
146 539 m 1,0,-1
 109 503 l 1,1,-1
 26 585 l 1,2,-1
 26 -165 l 1,3,-1
 -26 -165 l 1,4,-1
 -26 585 l 1,5,-1
 -109 503 l 1,6,-1
 -146 539 l 1,7,-1
 -36 646 l 1,8,-1
 -146 752 l 1,9,-1
 -109 788 l 1,10,-1
 0 680 l 1,11,-1
 109 788 l 1,12,-1
 146 751 l 1,13,-1
 36 646 l 1,14,-1
 146 539 l 1,0,-1
EndSplineSet
EndChar

StartChar: uni25CC
Encoding: 9676 9676 134
Width: 510
GlyphClass: 2
Flags: W
AnchorPoint: "Anchor-9" 290 622 basechar 0
AnchorPoint: "Anchor-8" 255 0 basechar 0
AnchorPoint: "Anchor-7" 0 -200 basechar 0
AnchorPoint: "Anchor-6" 320 0 basechar 0
AnchorPoint: "Anchor-5" 298 622 basechar 0
LayerCount: 2
Fore
SplineSet
384 407 m 256,0,1
 355 407 355 407 355 436 c 256,2,3
 355 465 355 465 384 465 c 256,4,5
 413 465 413 465 413 436 c 256,6,7
 413 407 413 407 384 407 c 256,0,1
125 158 m 0,8,9
 97 158 97 158 97 187 c 256,10,11
 97 216 97 216 125 216 c 0,12,13
 154 216 154 216 154 187 c 256,14,15
 154 158 154 158 125 158 c 0,8,9
81 283 m 0,16,17
 52 283 52 283 52 312 c 0,18,19
 52 340 52 340 81 340 c 0,20,21
 109 340 109 340 109 312 c 0,22,23
 109 283 109 283 81 283 c 0,16,17
254 108 m 0,24,25
 226 108 226 108 226 137 c 256,26,27
 226 166 226 166 254 166 c 0,28,29
 284 166 284 166 284 137 c 256,30,31
 284 108 284 108 254 108 c 0,24,25
125 407 m 0,32,33
 97 407 97 407 97 436 c 256,34,35
 97 465 97 465 125 465 c 0,36,37
 154 465 154 465 154 436 c 256,38,39
 154 407 154 407 125 407 c 0,32,33
384 158 m 256,40,41
 355 158 355 158 355 187 c 256,42,43
 355 216 355 216 384 216 c 256,44,45
 413 216 413 216 413 187 c 256,46,47
 413 158 413 158 384 158 c 256,40,41
254 457 m 0,48,49
 226 457 226 457 226 486 c 0,50,51
 226 514 226 514 254 514 c 0,52,53
 284 514 284 514 284 486 c 0,54,55
 284 457 284 457 254 457 c 0,48,49
429 283 m 256,56,57
 400 283 400 283 400 312 c 0,58,59
 400 340 400 340 429 340 c 256,60,61
 458 340 458 340 458 312 c 0,62,63
 458 283 458 283 429 283 c 256,56,57
EndSplineSet
EndChar

StartChar: sanuktadeva
Encoding: 65578 -1 176
Width: 671
Flags: W
LayerCount: 2
Fore
SplineSet
53 36 m 0,0,1
 53 60 53 60 69.5 77 c 128,-1,2
 86 94 86 94 108 94 c 0,3,4
 131 94 131 94 147 77 c 128,-1,5
 163 60 163 60 163 36 c 0,6,7
 163 11 163 11 147 -5.5 c 128,-1,8
 131 -22 131 -22 108 -22 c 0,9,10
 86 -22 86 -22 69.5 -5.5 c 128,-1,11
 53 11 53 11 53 36 c 0,0,1
245 551 m 1,12,-1
 273 566 l 1,13,14
 284 550 284 550 291 523 c 128,-1,15
 298 496 298 496 298 458 c 0,16,17
 298 414 298 414 287.5 381.5 c 128,-1,18
 277 349 277 349 258 328 c 1,19,-1
 257 319 l 1,20,21
 239 296 239 296 214.5 279 c 128,-1,22
 190 262 190 262 159 250 c 1,23,-1
 163 259 l 1,24,25
 204 206 204 206 260.5 149 c 128,-1,26
 317 92 317 92 380 42 c 1,27,-1
 326 -12 l 1,28,29
 270 37 270 37 220.5 87 c 128,-1,30
 171 137 171 137 133 181 c 128,-1,31
 95 225 95 225 73 256 c 256,32,33
 51 287 51 287 45.5 305 c 128,-1,34
 40 323 40 323 40 340 c 0,35,36
 40 359 40 359 55 376 c 128,-1,37
 70 393 70 393 104 393 c 0,38,39
 129 393 129 393 147.5 381.5 c 128,-1,40
 166 370 166 370 181 349.5 c 128,-1,41
 196 329 196 329 209 300 c 1,42,-1
 148 331 l 1,43,44
 176 339 176 339 190.5 359 c 128,-1,45
 205 379 205 379 211 405.5 c 128,-1,46
 217 432 217 432 217 458 c 0,47,48
 217 496 217 496 210 523.5 c 128,-1,49
 203 551 203 551 194 564 c 1,50,-1
 237 551 l 1,51,-1
 0 551 l 1,52,-1
 0 622 l 1,53,-1
 417 622 l 1,54,-1
 417 551 l 1,55,-1
 245 551 l 1,12,-1
587 551 m 1,56,-1
 587 0 l 1,57,-1
 506 0 l 1,58,-1
 506 551 l 1,59,-1
 396 551 l 1,60,-1
 396 622 l 1,61,-1
 691 622 l 1,62,-1
 691 551 l 1,63,-1
 587 551 l 1,56,-1
369 322 m 0,64,65
 403 322 403 322 431 325 c 128,-1,66
 459 328 459 328 487 334.5 c 128,-1,67
 515 341 515 341 547 353 c 1,68,-1
 547 280 l 1,69,70
 504 263 504 263 468.5 257 c 128,-1,71
 433 251 433 251 380 251 c 0,72,73
 347 251 347 251 310.5 255.5 c 128,-1,74
 274 260 274 260 242 268.5 c 128,-1,75
 210 277 210 277 190 287 c 1,76,-1
 210 347 l 1,77,78
 230 340 230 340 256 334 c 128,-1,79
 282 328 282 328 311 325 c 128,-1,80
 340 322 340 322 369 322 c 0,64,65
EndSplineSet
Ligature2: "'nukt' Nukta Forms in Devanagari2 lookup 34 subtable" uni0938 uni093C
EndChar

StartChar: hanuktadeva
Encoding: 65579 -1 177
Width: 531
Flags: W
LayerCount: 2
Fore
SplineSet
71 -184 m 0,0,1
 71 -160 71 -160 87.5 -143 c 128,-1,2
 104 -126 104 -126 126 -126 c 0,3,4
 149 -126 149 -126 165 -143 c 128,-1,5
 181 -160 181 -160 181 -184 c 0,6,7
 181 -209 181 -209 165 -225.5 c 128,-1,8
 149 -242 149 -242 126 -242 c 0,9,10
 104 -242 104 -242 87.5 -225.5 c 128,-1,11
 71 -209 71 -209 71 -184 c 0,0,1
137 229 m 1,12,13
 112 247 112 247 90.5 277.5 c 128,-1,14
 69 308 69 308 69 352 c 0,15,16
 69 380 69 380 79 400 c 128,-1,17
 89 420 89 420 106 433 c 0,18,19
 121 445 121 445 139 452 c 128,-1,20
 157 459 157 459 179.5 462 c 128,-1,21
 202 465 202 465 229 465 c 2,22,-1
 361 465 l 1,23,-1
 361 551 l 1,24,-1
 0 551 l 1,25,-1
 0 622 l 1,26,-1
 546 622 l 1,27,-1
 546 551 l 1,28,-1
 442 551 l 1,29,-1
 442 394 l 1,30,-1
 230 394 l 2,31,32
 199 394 199 394 186 391 c 128,-1,33
 173 388 173 388 164 381 c 0,34,35
 157 375 157 375 153 366.5 c 128,-1,36
 149 358 149 358 149 347 c 0,37,38
 149 323 149 323 163.5 305 c 128,-1,39
 178 287 178 287 197 274 c 1,40,-1
 137 229 l 1,12,13
321 69 m 1,41,42
 357 80 357 80 380 98 c 128,-1,43
 403 116 403 116 403 148 c 0,44,45
 403 186 403 186 374 207.5 c 128,-1,46
 345 229 345 229 280 229 c 0,47,48
 211 229 211 229 174.5 200.5 c 128,-1,49
 138 172 138 172 138 124 c 0,50,51
 138 101 138 101 144 79.5 c 128,-1,52
 150 58 150 58 167 34 c 128,-1,53
 184 10 184 10 216.5 -20 c 128,-1,54
 249 -50 249 -50 302 -89 c 1,55,-1
 248 -142 l 1,56,57
 187 -94 187 -94 144.5 -51.5 c 128,-1,58
 102 -9 102 -9 80 35 c 128,-1,59
 58 79 58 79 58 130 c 0,60,61
 58 186 58 186 90.5 224 c 128,-1,62
 123 262 123 262 174.5 281 c 128,-1,63
 226 300 226 300 284 300 c 0,64,65
 353 300 353 300 396.5 279 c 128,-1,66
 440 258 440 258 460.5 224.5 c 128,-1,67
 481 191 481 191 481 153 c 0,68,69
 481 95 481 95 447 57 c 128,-1,70
 413 19 413 19 348 2 c 1,71,-1
 321 69 l 1,41,42
EndSplineSet
Ligature2: "'nukt' Nukta Forms in Devanagari2 lookup 34 subtable" uni0939 uni093C
EndChar

StartChar: kassadeva
Encoding: 65580 -1 178
Width: 712
Flags: W
LayerCount: 2
Fore
SplineSet
623 551 m 1,0,-1
 623 0 l 1,1,-1
 542 0 l 1,2,-1
 542 361 l 1,3,-1
 549 328 l 1,4,5
 517 312 517 312 480 302.5 c 128,-1,6
 443 293 443 293 390 293 c 0,7,8
 333 293 333 293 286.5 305.5 c 128,-1,9
 240 318 240 318 208 334 c 2,10,-1
 189 346 l 2,11,12
 134 377 134 377 104 416 c 128,-1,13
 74 455 74 455 74 507 c 0,14,15
 74 543 74 543 92 571 c 128,-1,16
 110 599 110 599 145.5 615.5 c 128,-1,17
 181 632 181 632 231 632 c 0,18,19
 293 632 293 632 337.5 603 c 128,-1,20
 382 574 382 574 382 515 c 0,21,22
 382 479 382 479 368.5 451.5 c 128,-1,23
 355 424 355 424 330.5 401.5 c 128,-1,24
 306 379 306 379 271 357 c 1,25,-1
 256 344 l 1,26,27
 215 321 215 321 186.5 300.5 c 128,-1,28
 158 280 158 280 143 258 c 128,-1,29
 128 236 128 236 128 208 c 0,30,31
 128 188 128 188 138 167.5 c 128,-1,32
 148 147 148 147 174 133.5 c 128,-1,33
 200 120 200 120 247 120 c 0,34,35
 261 120 261 120 275 121.5 c 128,-1,36
 289 123 289 123 307 127 c 1,37,-1
 350 85 l 1,38,39
 373 55 373 55 394.5 31 c 128,-1,40
 416 7 416 7 448 -24 c 1,41,-1
 390 -65 l 1,42,43
 359 -29 359 -29 331.5 6 c 128,-1,44
 304 41 304 41 288 69 c 1,45,-1
 282 97 l 1,46,47
 273 108 273 108 268 124.5 c 128,-1,48
 263 141 263 141 263 157 c 0,49,50
 263 189 263 189 283 202.5 c 128,-1,51
 303 216 303 216 328 216 c 0,52,53
 369 216 369 216 391 190 c 128,-1,54
 413 164 413 164 413 136 c 0,55,56
 413 101 413 101 393.5 84 c 128,-1,57
 374 67 374 67 337 57 c 1,58,-1
 317 56 l 2,59,60
 305 53 305 53 284.5 51.5 c 128,-1,61
 264 50 264 50 245 50 c 0,62,63
 186 50 186 50 141 70.5 c 128,-1,64
 96 91 96 91 71 126.5 c 128,-1,65
 46 162 46 162 46 205 c 0,66,67
 46 246 46 246 65.5 276.5 c 128,-1,68
 85 307 85 307 117.5 330.5 c 128,-1,69
 150 354 150 354 187 374 c 1,70,-1
 197 381 l 1,71,72
 234 401 234 401 257.5 421 c 128,-1,73
 281 441 281 441 292 462 c 128,-1,74
 303 483 303 483 303 506 c 0,75,76
 303 530 303 530 286 548 c 128,-1,77
 269 566 269 566 229 566 c 0,78,79
 195 566 195 566 174 549 c 128,-1,80
 153 532 153 532 153 502 c 0,81,82
 153 476 153 476 166 454 c 128,-1,83
 179 432 179 432 202 415.5 c 128,-1,84
 225 399 225 399 253 388 c 2,85,-1
 273 381 l 2,86,87
 296 371 296 371 323 367.5 c 128,-1,88
 350 364 350 364 379 364 c 0,89,90
 427 364 427 364 468.5 375.5 c 128,-1,91
 510 387 510 387 550 417 c 1,92,-1
 542 396 l 1,93,-1
 542 551 l 1,94,-1
 453 551 l 1,95,-1
 453 622 l 1,96,-1
 727 622 l 1,97,-1
 727 551 l 1,98,-1
 623 551 l 1,0,-1
EndSplineSet
Ligature2: "'akhn' Akhand in Devanagari2 lookup 35 subtable" uni0915 uni094D uni0937
EndChar

StartChar: janyadeva
Encoding: 65581 -1 179
Width: 641
Flags: W
LayerCount: 2
Fore
SplineSet
552 551 m 1,0,-1
 552 0 l 1,1,-1
 471 0 l 1,2,-1
 471 551 l 1,3,-1
 0 551 l 1,4,-1
 0 622 l 1,5,-1
 656 622 l 1,6,-1
 656 551 l 1,7,-1
 552 551 l 1,0,-1
268 224 m 0,8,9
 268 256 268 256 249.5 282.5 c 128,-1,10
 231 309 231 309 191 332 c 128,-1,11
 151 355 151 355 87 374 c 1,12,-1
 111 441 l 1,13,-1
 502 441 l 1,14,-1
 487 370 l 1,15,-1
 326 370 l 2,16,17
 278 370 278 370 252 372.5 c 128,-1,18
 226 375 226 375 217 378 c 2,19,-1
 202 389 l 1,20,21
 279 356 279 356 313 314 c 128,-1,22
 347 272 347 272 347 218 c 0,23,24
 347 176 347 176 327 145.5 c 128,-1,25
 307 115 307 115 273 99 c 128,-1,26
 239 83 239 83 195 81 c 0,27,28
 191 81 191 81 193.5 77 c 128,-1,29
 196 73 196 73 182 73 c 0,30,31
 140 73 140 73 107 78 c 128,-1,32
 74 83 74 83 54.5 97 c 128,-1,33
 35 111 35 111 35 136 c 0,34,35
 35 159 35 159 48.5 173.5 c 128,-1,36
 62 188 62 188 88 188 c 0,37,38
 116 188 116 188 146.5 169.5 c 128,-1,39
 177 151 177 151 228 99 c 1,40,41
 247 86 247 86 272.5 73.5 c 128,-1,42
 298 61 298 61 326.5 50 c 128,-1,43
 355 39 355 39 381 31 c 1,44,-1
 348 -39 l 1,45,46
 287 -15 287 -15 228 24 c 128,-1,47
 169 63 169 63 125 102 c 1,48,-1
 78 166 l 1,49,50
 104 154 104 154 123 144.5 c 128,-1,51
 142 135 142 135 166 141 c 1,52,53
 214 142 214 142 241 166 c 128,-1,54
 268 190 268 190 268 224 c 0,8,9
EndSplineSet
Ligature2: "'akhn' Akhand in Devanagari2 lookup 35 subtable" uni091C uni094D uni091E
EndChar

StartChar: rephdeva
Encoding: 65582 -1 180
Width: 0
GlyphClass: 4
Flags: W
AnchorPoint: "Anchor-5" -170 622 mark 0
AnchorPoint: "Anchor-0" -170 622 mark 0
LayerCount: 2
Fore
SplineSet
-190 615 m 1,0,1
 -211 650 -211 650 -225.5 688 c 128,-1,2
 -240 726 -240 726 -240 762 c 0,3,4
 -240 807 -240 807 -219.5 836.5 c 128,-1,5
 -199 866 -199 866 -164 881 c 128,-1,6
 -129 896 -129 896 -85 896 c 0,7,8
 -53 896 -53 896 -26 889.5 c 128,-1,9
 1 883 1 883 21 872 c 1,10,-1
 -1 806 l 1,11,12
 -18 815 -18 815 -37 821 c 128,-1,13
 -56 827 -56 827 -78 827 c 0,14,15
 -118 827 -118 827 -139 804.5 c 128,-1,16
 -160 782 -160 782 -160 747 c 0,17,18
 -160 714 -160 714 -146.5 682.5 c 128,-1,19
 -133 651 -133 651 -108 615 c 1,20,-1
 -190 615 l 1,0,1
EndSplineSet
Ligature2: "'rphf' Reph Form in Devanagari2 lookup 36 subtable" uni0930 uni094D
Substitution2: "Single Substitution lookup 10 subtable" dummymarkdeva
Substitution2: "Single Substitution lookup 2 subtable" uni0943
Substitution2: "Single Substitution lookup 1 subtable" uni0944
Position2: "Single Positioning lookup 5 per glyph data 1" dx=-49 dy=0 dh=0 dv=0
EndChar

StartChar: vattudeva
Encoding: 65583 -1 181
Width: 0
GlyphClass: 4
Flags: W
LayerCount: 2
Fore
SplineSet
-466 -165 m 1,0,-1
 -218 -12 l 1,1,-1
 -178 -12 l 1,2,-1
 -32 -192 l 1,3,-1
 -91 -230 l 1,4,-1
 -208 -85 l 1,5,-1
 -419 -230 l 1,6,-1
 -466 -165 l 1,0,-1
EndSplineSet
Substitution2: "Single Substitution lookup 107 subtable" dummymarkdeva
Substitution2: "Single Substitution lookup 106 subtable" dummymarkdeva
Ligature2: "Ligature Substitution lookup 33 subtable" uni094D uni0930
EndChar

StartChar: kaprehalfdeva
Encoding: 65584 -1 182
Width: 603
Flags: W
LayerCount: 2
Fore
SplineSet
618 551 m 1,0,-1
 452 551 l 1,1,-1
 452 298 l 1,2,-1
 434 321 l 1,3,4
 460 341 460 341 490 354.5 c 128,-1,5
 520 368 520 368 567 368 c 2,6,-1
 631 368 l 1,7,-1
 631 297 l 1,8,-1
 580 297 l 2,9,10
 544 297 544 297 520.5 291 c 128,-1,11
 497 285 497 285 476.5 271 c 128,-1,12
 456 257 456 257 429 233 c 1,13,-1
 452 288 l 1,14,-1
 452 0 l 1,15,-1
 371 0 l 1,16,-1
 371 210 l 1,17,-1
 385 186 l 1,18,19
 369 172 369 172 346.5 156 c 128,-1,20
 324 140 324 140 294.5 129 c 128,-1,21
 265 118 265 118 226 118 c 0,22,23
 179 118 179 118 137.5 137 c 128,-1,24
 96 156 96 156 71 194.5 c 128,-1,25
 46 233 46 233 46 290 c 0,26,27
 46 344 46 344 71 383 c 128,-1,28
 96 422 96 422 141 443 c 128,-1,29
 186 464 186 464 244 464 c 0,30,31
 267 464 267 464 295.5 460.5 c 128,-1,32
 324 457 324 457 339 454 c 1,33,-1
 333 381 l 1,34,35
 317 385 317 385 292.5 388 c 128,-1,36
 268 391 268 391 249 391 c 0,37,38
 191 391 191 391 159 365 c 128,-1,39
 127 339 127 339 127 292 c 0,40,41
 127 239 127 239 157.5 213.5 c 128,-1,42
 188 188 188 188 228 188 c 0,43,44
 278 188 278 188 316.5 215 c 128,-1,45
 355 242 355 242 388 278 c 1,46,-1
 371 224 l 1,47,-1
 371 551 l 1,48,-1
 0 551 l 1,49,-1
 0 622 l 1,50,-1
 618 622 l 1,51,-1
 618 551 l 1,0,-1
EndSplineSet
Ligature2: "'half' Half Forms in Devanagari2 lookup 38 subtable" uni0915 uni094D
Ligature2: "'half' Half Forms in Devanagari2 lookup 37 subtable" uni0915 uni094D
EndChar

StartChar: khaprehalfdeva
Encoding: 65585 -1 183
Width: 648
Flags: W
LayerCount: 2
Fore
SplineSet
265 551 m 1,0,-1
 277 561 l 1,1,2
 287 542 287 542 292.5 516.5 c 128,-1,3
 298 491 298 491 298 458 c 0,4,5
 298 402 298 402 281.5 362 c 128,-1,6
 265 322 265 322 234 295 c 128,-1,7
 203 268 203 268 159 250 c 1,8,-1
 163 257 l 1,9,10
 210 200 210 200 260 160 c 128,-1,11
 310 120 310 120 367 99.5 c 128,-1,12
 424 79 424 79 490 79 c 0,13,14
 541 79 541 79 585 93 c 128,-1,15
 629 107 629 107 676 140 c 1,16,-1
 700 74 l 1,17,18
 659 49 659 49 610 28 c 128,-1,19
 561 7 561 7 488 7 c 0,20,21
 434 7 434 7 382.5 20 c 128,-1,22
 331 33 331 33 281.5 60.5 c 128,-1,23
 232 88 232 88 183 132 c 128,-1,24
 134 176 134 176 85 239 c 0,25,26
 57 274 57 274 48.5 296.5 c 128,-1,27
 40 319 40 319 40 338 c 0,28,29
 40 359 40 359 55 376 c 128,-1,30
 70 393 70 393 104 393 c 0,31,32
 129 393 129 393 147.5 381.5 c 128,-1,33
 166 370 166 370 181 349.5 c 128,-1,34
 196 329 196 329 209 300 c 1,35,-1
 148 331 l 1,36,37
 176 339 176 339 190.5 359 c 128,-1,38
 205 379 205 379 211 405.5 c 128,-1,39
 217 432 217 432 217 458 c 0,40,41
 217 488 217 488 211.5 514.5 c 128,-1,42
 206 541 206 541 195 564 c 1,43,-1
 215 551 l 1,44,-1
 0 551 l 1,45,-1
 0 622 l 1,46,-1
 663 622 l 1,47,-1
 663 551 l 1,48,-1
 265 551 l 1,0,-1
673 215 m 1,49,50
 645 193 645 193 606 178.5 c 128,-1,51
 567 164 567 164 521 164 c 0,52,53
 474 164 474 164 436.5 183.5 c 128,-1,54
 399 203 399 203 377.5 238 c 128,-1,55
 356 273 356 273 356 319 c 0,56,57
 356 368 356 368 378 402 c 128,-1,58
 400 436 400 436 439.5 454.5 c 128,-1,59
 479 473 479 473 531 473 c 0,60,61
 548 473 548 473 575 470.5 c 128,-1,62
 602 468 602 468 616 463 c 1,63,-1
 610 394 l 1,64,65
 595 398 595 398 576.5 401 c 128,-1,66
 558 404 558 404 540 404 c 0,67,68
 492 404 492 404 464.5 382 c 128,-1,69
 437 360 437 360 437 316 c 0,70,71
 437 273 437 273 464.5 252.5 c 128,-1,72
 492 232 492 232 534 232 c 0,73,74
 569 232 569 232 598 246.5 c 128,-1,75
 627 261 627 261 648 280 c 1,76,-1
 673 215 l 1,49,50
EndSplineSet
Ligature2: "'half' Half Forms in Devanagari2 lookup 38 subtable" uni0916 uni094D
Ligature2: "'half' Half Forms in Devanagari2 lookup 37 subtable" uni0916 uni094D
EndChar

StartChar: gaprehalfdeva
Encoding: 65586 -1 184
Width: 281
Flags: W
LayerCount: 2
Fore
SplineSet
208 551 m 1,0,-1
 208 234 l 2,1,2
 208 208 208 208 195.5 193 c 128,-1,3
 183 178 183 178 160 178 c 0,4,5
 141 178 141 178 120 190 c 128,-1,6
 99 202 99 202 81 222 c 128,-1,7
 63 242 63 242 52 264.5 c 128,-1,8
 41 287 41 287 41 308 c 0,9,10
 41 331 41 331 54.5 345 c 128,-1,11
 68 359 68 359 102 359 c 2,12,-1
 127 359 l 1,13,-1
 127 551 l 1,14,-1
 0 551 l 1,15,-1
 0 622 l 1,16,-1
 296 622 l 1,17,-1
 296 551 l 1,18,-1
 208 551 l 1,0,-1
EndSplineSet
Ligature2: "'half' Half Forms in Devanagari2 lookup 38 subtable" uni0917 uni094D
Ligature2: "'half' Half Forms in Devanagari2 lookup 37 subtable" uni0917 uni094D
EndChar

StartChar: ghaprehalfdeva
Encoding: 65587 -1 185
Width: 351
Flags: W
LayerCount: 2
Fore
SplineSet
167 269 m 0,0,1
 167 227 167 227 195 207.5 c 128,-1,2
 223 188 223 188 267 188 c 0,3,4
 321 188 321 188 357.5 209.5 c 128,-1,5
 394 231 394 231 421 259 c 1,6,-1
 462 199 l 1,7,8
 430 170 430 170 381 144 c 128,-1,9
 332 118 332 118 259 118 c 0,10,11
 182 118 182 118 134 158.5 c 128,-1,12
 86 199 86 199 86 266 c 0,13,14
 86 298 86 298 99.5 327.5 c 128,-1,15
 113 357 113 357 141 377 c 1,16,-1
 151 391 l 1,17,18
 174 406 174 406 203 412.5 c 128,-1,19
 232 419 232 419 263 419 c 0,20,21
 275 419 275 419 288 418.5 c 128,-1,22
 301 418 301 418 308 417 c 1,23,-1
 302 347 l 1,24,25
 295 348 295 348 287 348 c 128,-1,26
 279 348 279 348 273 348 c 0,27,28
 240 348 240 348 216.5 339 c 128,-1,29
 193 330 193 330 180 312.5 c 128,-1,30
 167 295 167 295 167 269 c 0,0,1
170 572 m 1,31,32
 149 559 149 559 136 539.5 c 128,-1,33
 123 520 123 520 123 494 c 0,34,35
 123 452 123 452 151 431.5 c 128,-1,36
 179 411 179 411 221 410 c 1,37,-1
 211 348 l 1,38,39
 161 348 161 348 123 368.5 c 128,-1,40
 85 389 85 389 63.5 423 c 128,-1,41
 42 457 42 457 42 497 c 0,42,43
 42 538 42 538 58.5 562.5 c 128,-1,44
 75 587 75 587 100 606 c 1,45,-1
 170 572 l 1,31,32
366 551 m 1,46,-1
 0 551 l 1,47,-1
 0 622 l 1,48,-1
 366 622 l 1,49,-1
 366 551 l 1,46,-1
EndSplineSet
Ligature2: "'half' Half Forms in Devanagari2 lookup 38 subtable" uni0918 uni094D
Ligature2: "'half' Half Forms in Devanagari2 lookup 37 subtable" uni0918 uni094D
EndChar

StartChar: caprehalfdeva
Encoding: 65589 -1 187
Width: 396
Flags: W
LayerCount: 2
Fore
SplineSet
509 200 m 1,0,1
 491 185 491 185 464.5 165.5 c 128,-1,2
 438 146 438 146 401.5 132 c 128,-1,3
 365 118 365 118 317 118 c 0,4,5
 240 118 240 118 190.5 161 c 128,-1,6
 141 204 141 204 141 275 c 0,7,8
 141 304 141 304 153.5 329.5 c 128,-1,9
 166 355 166 355 185 371 c 1,10,-1
 38 369 l 1,11,-1
 38 441 l 1,12,-1
 331 441 l 2,13,14
 349 441 349 441 367 440.5 c 128,-1,15
 385 440 385 440 389 440 c 2,16,-1
 382 370 l 1,17,-1
 350 370 l 2,18,19
 292 370 292 370 256.5 345.5 c 128,-1,20
 221 321 221 321 221 274 c 0,21,22
 221 246 221 246 234.5 226.5 c 128,-1,23
 248 207 248 207 270 197.5 c 128,-1,24
 292 188 292 188 317 188 c 0,25,26
 368 188 368 188 404.5 210.5 c 128,-1,27
 441 233 441 233 469 262 c 1,28,-1
 509 200 l 1,0,1
0 622 m 1,29,-1
 410 622 l 1,30,-1
 410 551 l 1,31,-1
 0 551 l 1,32,-1
 0 622 l 1,29,-1
EndSplineSet
Ligature2: "'half' Half Forms in Devanagari2 lookup 38 subtable" uni091A uni094D
Ligature2: "'half' Half Forms in Devanagari2 lookup 37 subtable" uni091A uni094D
EndChar

StartChar: chaprehalfdeva
Encoding: 65590 -1 188
Width: 701
Flags: W
LayerCount: 2
Fore
SplineSet
0 551 m 1,0,-1
 0 622 l 1,1,-1
 715 622 l 1,2,-1
 715 551 l 1,3,-1
 0 551 l 1,0,-1
296 70 m 0,4,5
 353 70 353 70 403.5 88 c 128,-1,6
 454 106 454 106 492.5 138.5 c 128,-1,7
 531 171 531 171 552.5 215 c 128,-1,8
 574 259 574 259 574 310 c 0,9,10
 574 357 574 357 551 388 c 128,-1,11
 528 419 528 419 487 419 c 0,12,13
 453 419 453 419 438.5 401 c 128,-1,14
 424 383 424 383 424 358 c 0,15,16
 424 326 424 326 450.5 300.5 c 128,-1,17
 477 275 477 275 535 261 c 1,18,-1
 502 198 l 1,19,20
 421 221 421 221 384 262.5 c 128,-1,21
 347 304 347 304 347 356 c 0,22,23
 347 411 347 411 383 447 c 128,-1,24
 419 483 419 483 487 483 c 0,25,26
 533 483 533 483 570.5 463.5 c 128,-1,27
 608 444 608 444 630.5 405.5 c 128,-1,28
 653 367 653 367 653 308 c 0,29,30
 653 250 653 250 628 195 c 128,-1,31
 603 140 603 140 556.5 96 c 128,-1,32
 510 52 510 52 444 26 c 128,-1,33
 378 0 378 0 296 0 c 0,34,35
 199 0 199 0 150 41.5 c 128,-1,36
 101 83 101 83 101 147 c 0,37,38
 101 174 101 174 113.5 202 c 128,-1,39
 126 230 126 230 152 249 c 0,40,41
 155 251 155 251 157 255.5 c 128,-1,42
 159 260 159 260 162 262 c 0,43,44
 183 276 183 276 210 283 c 128,-1,45
 237 290 237 290 266 290 c 0,46,47
 277 290 277 290 289 289 c 128,-1,48
 301 288 301 288 308 287 c 1,49,-1
 302 217 l 1,50,51
 296 218 296 218 288.5 218 c 128,-1,52
 281 218 281 218 276 218 c 0,53,54
 230 218 230 218 206 200.5 c 128,-1,55
 182 183 182 183 182 148 c 0,56,57
 182 108 182 108 213 89 c 128,-1,58
 244 70 244 70 296 70 c 0,4,5
199 209 m 1,59,60
 128 224 128 224 85.5 262.5 c 128,-1,61
 43 301 43 301 43 359 c 0,62,63
 43 399 43 399 63.5 426.5 c 128,-1,64
 84 454 84 454 121 468.5 c 128,-1,65
 158 483 158 483 206 483 c 0,66,67
 223 483 223 483 249 480.5 c 128,-1,68
 275 478 275 478 288 473 c 1,69,-1
 282 404 l 1,70,71
 268 408 268 408 250.5 411.5 c 128,-1,72
 233 415 233 415 212 415 c 0,73,74
 169 415 169 415 146.5 398.5 c 128,-1,75
 124 382 124 382 124 350 c 256,76,77
 124 318 124 318 151.5 301.5 c 128,-1,78
 179 285 179 285 219 277 c 1,79,-1
 199 209 l 1,59,60
EndSplineSet
Ligature2: "'half' Half Forms in Devanagari2 lookup 38 subtable" uni091B uni094D uni200D
Ligature2: "'half' Half Forms in Devanagari2 lookup 37 subtable" uni091B uni094D
EndChar

StartChar: japrehalfdeva
Encoding: 65591 -1 189
Width: 572
Flags: W
LayerCount: 2
Fore
SplineSet
0 622 m 1,0,-1
 587 622 l 1,1,-1
 587 551 l 1,2,-1
 0 551 l 1,3,-1
 0 622 l 1,0,-1
572 370 m 1,4,-1
 435 370 l 2,5,6
 409 370 409 370 393.5 371 c 128,-1,7
 378 372 378 372 369 375 c 1,8,-1
 362 385 l 1,9,10
 404 356 404 356 431 312 c 128,-1,11
 458 268 458 268 458 218 c 0,12,13
 458 172 458 172 437.5 141 c 128,-1,14
 417 110 417 110 383.5 95 c 128,-1,15
 350 80 350 80 310 80 c 256,16,17
 270 80 270 80 233.5 97 c 128,-1,18
 197 114 197 114 162.5 151.5 c 128,-1,19
 128 189 128 189 95.5 250.5 c 128,-1,20
 63 312 63 312 31 401 c 1,21,-1
 102 426 l 1,22,23
 133 337 133 337 165 276 c 128,-1,24
 197 215 197 215 232 184 c 128,-1,25
 267 153 267 153 306 153 c 0,26,27
 338 153 338 153 358.5 170 c 128,-1,28
 379 187 379 187 379 227 c 0,29,30
 379 271 379 271 348.5 310 c 128,-1,31
 318 349 318 349 273 377 c 1,32,-1
 302 441 l 1,33,-1
 572 441 l 1,34,-1
 572 370 l 1,4,-1
EndSplineSet
Ligature2: "'half' Half Forms in Devanagari2 lookup 38 subtable" uni091C uni094D
Ligature2: "'half' Half Forms in Devanagari2 lookup 37 subtable" uni091C uni094D
EndChar

StartChar: jhaprehalfdeva
Encoding: 65592 -1 190
Width: 497
Flags: W
LayerCount: 2
Fore
SplineSet
271 222 m 0,0,1
 242 222 242 222 213 215 c 128,-1,2
 184 208 184 208 161 197 c 1,3,4
 130 216 130 216 104.5 239 c 128,-1,5
 79 262 79 262 64.5 290 c 128,-1,6
 50 318 50 318 50 352 c 0,7,8
 50 380 50 380 60 400 c 128,-1,9
 70 420 70 420 87 433 c 0,10,11
 102 445 102 445 119.5 452 c 128,-1,12
 137 459 137 459 160.5 462 c 128,-1,13
 184 465 184 465 218 465 c 2,14,-1
 314 465 l 1,15,-1
 314 551 l 1,16,-1
 0 551 l 1,17,-1
 0 622 l 1,18,-1
 512 622 l 1,19,-1
 512 551 l 1,20,-1
 395 551 l 1,21,-1
 395 394 l 1,22,-1
 211 394 l 2,23,24
 180 394 180 394 167 391 c 128,-1,25
 154 388 154 388 145 381 c 0,26,27
 138 375 138 375 134 366.5 c 128,-1,28
 130 358 130 358 130 347 c 0,29,30
 130 323 130 323 144 306.5 c 128,-1,31
 158 290 158 290 174 277 c 1,32,33
 197 285 197 285 223 289.5 c 128,-1,34
 249 294 249 294 275 294 c 0,35,36
 325 294 325 294 363.5 277 c 128,-1,37
 402 260 402 260 424.5 228.5 c 128,-1,38
 447 197 447 197 447 154 c 0,39,40
 447 103 447 103 421 69 c 128,-1,41
 395 35 395 35 346.5 17.5 c 128,-1,42
 298 0 298 0 230 0 c 0,43,44
 218 0 218 0 207 0 c 128,-1,45
 196 0 196 0 185 1 c 0,46,47
 143 3 143 3 112.5 9 c 128,-1,48
 82 15 82 15 65 29 c 128,-1,49
 48 43 48 43 48 65 c 256,50,51
 48 87 48 87 61.5 101.5 c 128,-1,52
 75 116 75 116 101 116 c 0,53,54
 129 116 129 116 159.5 96 c 128,-1,55
 190 76 190 76 241 25 c 1,56,57
 265 13 265 13 293 2 c 128,-1,58
 321 -9 321 -9 352 -19.5 c 128,-1,59
 383 -30 383 -30 415 -40 c 1,60,-1
 382 -110 l 1,61,62
 312 -78 312 -78 249.5 -42.5 c 128,-1,63
 187 -7 187 -7 135 28 c 1,64,-1
 99 92 l 1,65,66
 126 80 126 80 162.5 74 c 128,-1,67
 199 68 199 68 219 68 c 0,68,69
 289 68 289 68 327.5 88.5 c 128,-1,70
 366 109 366 109 366 153 c 0,71,72
 366 175 366 175 355 190.5 c 128,-1,73
 344 206 344 206 323 214 c 128,-1,74
 302 222 302 222 271 222 c 0,0,1
480 268 m 0,75,76
 517 268 517 268 542.5 272.5 c 128,-1,77
 568 277 568 277 586 283 c 1,78,-1
 599 214 l 1,79,80
 577 206 577 206 551 201.5 c 128,-1,81
 525 197 525 197 484 197 c 0,82,83
 462 197 462 197 434 203 c 128,-1,84
 406 209 406 209 387 217 c 1,85,-1
 339 268 l 1,86,-1
 345 283 l 1,87,88
 365 279 365 279 385.5 275.5 c 128,-1,89
 406 272 406 272 429.5 270 c 128,-1,90
 453 268 453 268 480 268 c 0,75,76
EndSplineSet
Ligature2: "'half' Half Forms in Devanagari2 lookup 37 subtable" uni091D uni094D
Substitution2: "'locl' Localized Forms in Devanagari2 lookup 30 subtable" jhaprehalfdevaNEP
Substitution2: "'aalt' Access All Alternates in Devanagari2 lookup 0 subtable" jhaprehalfdevaNEP
EndChar

StartChar: nyaprehalfdeva
Encoding: 65593 -1 191
Width: 540
Flags: W
LayerCount: 2
Fore
SplineSet
0 622 m 1,0,-1
 554 622 l 1,1,-1
 554 551 l 1,2,-1
 0 551 l 1,3,-1
 0 622 l 1,0,-1
572 255 m 1,4,5
 552 251 552 251 530.5 248 c 128,-1,6
 509 245 509 245 484 245 c 0,7,8
 472 245 472 245 465.5 246 c 128,-1,9
 459 247 459 247 448 249 c 1,10,-1
 437 326 l 1,11,12
 447 322 447 322 461 318.5 c 128,-1,13
 475 315 475 315 493 315 c 0,14,15
 516 315 516 315 536 320 c 128,-1,16
 556 325 556 325 572 332 c 1,17,-1
 572 255 l 1,4,5
192 420 m 1,18,19
 223 434 223 434 255.5 440 c 128,-1,20
 288 446 288 446 315 446 c 0,21,22
 389 446 389 446 438 405 c 128,-1,23
 487 364 487 364 487 287 c 0,24,25
 487 237 487 237 469 204 c 128,-1,26
 451 171 451 171 422.5 152 c 128,-1,27
 394 133 394 133 361.5 125.5 c 128,-1,28
 329 118 329 118 300 118 c 0,29,30
 243 118 243 118 194 141.5 c 128,-1,31
 145 165 145 165 104 213.5 c 128,-1,32
 63 262 63 262 29 338 c 1,33,-1
 98 365 l 1,34,35
 139 272 139 272 183.5 232 c 128,-1,36
 228 192 228 192 294 192 c 0,37,38
 349 192 349 192 380 218 c 128,-1,39
 411 244 411 244 411 287 c 0,40,41
 411 333 411 333 382.5 353 c 128,-1,42
 354 373 354 373 313 373 c 0,43,44
 288 373 288 373 265 366 c 128,-1,45
 242 359 242 359 219 348 c 1,46,-1
 192 420 l 1,18,19
EndSplineSet
Ligature2: "'half' Half Forms in Devanagari2 lookup 38 subtable" uni091E uni094D
Ligature2: "'half' Half Forms in Devanagari2 lookup 37 subtable" uni091E uni094D
EndChar

StartChar: nnaprehalfdeva
Encoding: 65598 -1 196
Width: 467
Flags: W
LayerCount: 2
Fore
SplineSet
251 146 m 256,0,1
 204 146 204 146 170 161 c 128,-1,2
 136 176 136 176 114 205 c 0,3,4
 97 228 97 228 88 263 c 128,-1,5
 79 298 79 298 79 352 c 2,6,-1
 79 551 l 1,7,-1
 0 551 l 1,8,-1
 0 622 l 1,9,-1
 481 622 l 1,10,-1
 481 551 l 1,11,-1
 420 551 l 1,12,-1
 420 321 l 2,13,14
 420 293 420 293 416 271 c 128,-1,15
 412 249 412 249 404.5 231 c 128,-1,16
 397 213 397 213 385 198 c 0,17,18
 364 173 364 173 331 159.5 c 128,-1,19
 298 146 298 146 251 146 c 256,0,1
249 217 m 0,20,21
 301 217 301 217 321 249 c 0,22,23
 332 266 332 266 335.5 288 c 128,-1,24
 339 310 339 310 339 353 c 2,25,-1
 339 551 l 1,26,-1
 160 551 l 1,27,-1
 160 353 l 2,28,29
 160 314 160 314 164 291 c 128,-1,30
 168 268 168 268 178 251 c 0,31,32
 189 235 189 235 205.5 226 c 128,-1,33
 222 217 222 217 249 217 c 0,20,21
EndSplineSet
Ligature2: "'half' Half Forms in Devanagari2 lookup 38 subtable" uni0923 uni094D
Ligature2: "'half' Half Forms in Devanagari2 lookup 37 subtable" uni0923 uni094D
EndChar

StartChar: taprehalfdeva
Encoding: 65599 -1 197
Width: 349
Flags: W
LayerCount: 2
Fore
SplineSet
45 242 m 0,0,1
 45 277 45 277 58.5 305 c 128,-1,2
 72 333 72 333 93 351 c 0,3,4
 112 368 112 368 136 378.5 c 128,-1,5
 160 389 160 389 193.5 394 c 128,-1,6
 227 399 227 399 272 399 c 2,7,-1
 380 399 l 1,8,-1
 380 328 l 1,9,-1
 291 328 l 2,10,11
 230 328 230 328 199.5 322 c 128,-1,12
 169 316 169 316 150 299 c 0,13,14
 138 289 138 289 132 274 c 128,-1,15
 126 259 126 259 126 237 c 0,16,17
 126 204 126 204 142.5 173.5 c 128,-1,18
 159 143 159 143 191.5 110.5 c 128,-1,19
 224 78 224 78 271 40 c 1,20,-1
 217 -12 l 1,21,22
 171 28 171 28 131.5 68 c 128,-1,23
 92 108 92 108 68.5 151 c 128,-1,24
 45 194 45 194 45 242 c 0,0,1
0 622 m 1,25,-1
 363 622 l 1,26,-1
 363 551 l 1,27,-1
 0 551 l 1,28,-1
 0 622 l 1,25,-1
EndSplineSet
Ligature2: "'half' Half Forms in Devanagari2 lookup 38 subtable" uni0924 uni094D
Ligature2: "'half' Half Forms in Devanagari2 lookup 37 subtable" uni0924 uni094D
EndChar

StartChar: thaprehalfdeva
Encoding: 65600 -1 198
Width: 389
Flags: W
LayerCount: 2
Fore
SplineSet
187 391 m 1,0,1
 122 400 122 400 84 430.5 c 128,-1,2
 46 461 46 461 46 519 c 0,3,4
 46 557 46 557 62.5 582 c 128,-1,5
 79 607 79 607 108 619.5 c 128,-1,6
 137 632 137 632 172 632 c 0,7,8
 213 632 213 632 250.5 614.5 c 128,-1,9
 288 597 288 597 312 561 c 128,-1,10
 336 525 336 525 336 469 c 0,11,12
 336 420 336 420 318 383 c 128,-1,13
 300 346 300 346 266 319.5 c 128,-1,14
 232 293 232 293 182 273 c 1,15,16
 205 238 205 238 234 220.5 c 128,-1,17
 263 203 263 203 314 203 c 256,18,19
 365 203 365 203 403 223 c 128,-1,20
 441 243 441 243 472 275 c 1,21,-1
 509 208 l 1,22,23
 484 187 484 187 454.5 169.5 c 128,-1,24
 425 152 425 152 389 142 c 128,-1,25
 353 132 353 132 308 132 c 0,26,27
 223 132 223 132 163.5 180.5 c 128,-1,28
 104 229 104 229 83 322 c 1,29,30
 146 336 146 336 184 356 c 128,-1,31
 222 376 222 376 238.5 403.5 c 128,-1,32
 255 431 255 431 255 467 c 0,33,34
 255 517 255 517 231.5 542.5 c 128,-1,35
 208 568 208 568 171 568 c 0,36,37
 146 568 146 568 130 556 c 128,-1,38
 114 544 114 544 114 521 c 0,39,40
 114 504 114 504 122.5 491.5 c 128,-1,41
 131 479 131 479 149 471.5 c 128,-1,42
 167 464 167 464 195 461 c 1,43,-1
 187 391 l 1,0,1
EndSplineSet
Ligature2: "'half' Half Forms in Devanagari2 lookup 38 subtable" uni0925 uni094D
Ligature2: "'half' Half Forms in Devanagari2 lookup 37 subtable" uni0925 uni094D
EndChar

StartChar: dhaprehalfdeva
Encoding: 65602 -1 200
Width: 362
Flags: W
LayerCount: 2
Fore
SplineSet
482 178 m 1,0,1
 445 147 445 147 399.5 125 c 128,-1,2
 354 103 354 103 283 103 c 0,3,4
 206 103 206 103 158.5 143.5 c 128,-1,5
 111 184 111 184 111 251 c 0,6,7
 111 283 111 283 124 312.5 c 128,-1,8
 137 342 137 342 166 363 c 0,9,10
 168 365 168 365 170 369.5 c 128,-1,11
 172 374 172 374 176 376 c 0,12,13
 199 391 199 391 228 398 c 128,-1,14
 257 405 257 405 288 405 c 0,15,16
 299 405 299 405 312.5 404 c 128,-1,17
 326 403 326 403 333 402 c 1,18,-1
 326 332 l 1,19,20
 320 333 320 333 311.5 333 c 128,-1,21
 303 333 303 333 298 333 c 0,22,23
 265 333 265 333 241 324 c 128,-1,24
 217 315 217 315 204 297.5 c 128,-1,25
 191 280 191 280 191 254 c 0,26,27
 191 213 191 213 219.5 193 c 128,-1,28
 248 173 248 173 292 173 c 0,29,30
 345 173 345 173 382 195 c 128,-1,31
 419 217 419 217 445 245 c 1,32,-1
 482 178 l 1,0,1
225 330 m 1,33,34
 174 336 174 336 132.5 355 c 128,-1,35
 91 374 91 374 66.5 408 c 128,-1,36
 42 442 42 442 42 493 c 0,37,38
 42 533 42 533 61 564.5 c 128,-1,39
 80 596 80 596 112.5 614 c 128,-1,40
 145 632 145 632 187 632 c 0,41,42
 240 632 240 632 275.5 604 c 128,-1,43
 311 576 311 576 311 531 c 0,44,45
 311 507 311 507 301 485.5 c 128,-1,46
 291 464 291 464 271 443 c 1,47,-1
 210 482 l 1,48,49
 221 492 221 492 225.5 503.5 c 128,-1,50
 230 515 230 515 230 526 c 0,51,52
 230 541 230 541 220 554.5 c 128,-1,53
 210 568 210 568 184 568 c 0,54,55
 156 568 156 568 136 546 c 128,-1,56
 116 524 116 524 116 489 c 256,57,58
 116 454 116 454 134 434.5 c 128,-1,59
 152 415 152 415 179.5 406.5 c 128,-1,60
 207 398 207 398 236 396 c 1,61,-1
 225 330 l 1,33,34
EndSplineSet
Ligature2: "'half' Half Forms in Devanagari2 lookup 38 subtable" uni0927 uni094D
Ligature2: "'half' Half Forms in Devanagari2 lookup 37 subtable" uni0927 uni094D
EndChar

StartChar: naprehalfdeva
Encoding: 65603 -1 201
Width: 358
Flags: W
LayerCount: 2
Fore
SplineSet
204 298 m 1,0,-1
 204 244 l 2,1,2
 204 216 204 216 190 202 c 128,-1,3
 176 188 176 188 153 188 c 0,4,5
 135 188 135 188 114.5 200 c 128,-1,6
 94 212 94 212 76.5 232 c 128,-1,7
 59 252 59 252 48 274.5 c 128,-1,8
 37 297 37 297 37 318 c 0,9,10
 37 341 37 341 50.5 355 c 128,-1,11
 64 369 64 369 98 369 c 2,12,-1
 385 369 l 1,13,-1
 385 298 l 1,14,-1
 204 298 l 1,0,-1
0 622 m 1,15,-1
 373 622 l 1,16,-1
 373 551 l 1,17,-1
 0 551 l 1,18,-1
 0 622 l 1,15,-1
EndSplineSet
Ligature2: "'half' Half Forms in Devanagari2 lookup 38 subtable" uni0928 uni094D
Ligature2: "'half' Half Forms in Devanagari2 lookup 37 subtable" uni0928 uni094D
EndChar

StartChar: paprehalfdeva
Encoding: 65604 -1 202
Width: 308
Flags: W
LayerCount: 2
Fore
SplineSet
160 551 m 1,0,-1
 160 369 l 2,1,2
 160 328 160 328 163 304 c 128,-1,3
 166 280 166 280 172.5 265.5 c 128,-1,4
 179 251 179 251 190 240 c 0,5,6
 202 228 202 228 220 222.5 c 128,-1,7
 238 217 238 217 263 217 c 0,8,9
 304 217 304 217 339.5 237 c 128,-1,10
 375 257 375 257 400 282 c 1,11,-1
 436 214 l 1,12,13
 410 196 410 196 383 180.5 c 128,-1,14
 356 165 356 165 325 155.5 c 128,-1,15
 294 146 294 146 254 146 c 256,16,17
 214 146 214 146 181.5 159.5 c 128,-1,18
 149 173 149 173 128 194 c 0,19,20
 111 212 111 212 100 233.5 c 128,-1,21
 89 255 89 255 84 285 c 128,-1,22
 79 315 79 315 79 358 c 2,23,-1
 79 551 l 1,24,-1
 0 551 l 1,25,-1
 0 622 l 1,26,-1
 322 622 l 1,27,-1
 322 551 l 1,28,-1
 160 551 l 1,0,-1
EndSplineSet
Ligature2: "'half' Half Forms in Devanagari2 lookup 38 subtable" uni092A uni094D
Ligature2: "'half' Half Forms in Devanagari2 lookup 37 subtable" uni092A uni094D
EndChar

StartChar: phaprehalfdeva
Encoding: 65605 -1 203
Width: 612
Flags: W
LayerCount: 2
Fore
SplineSet
626 551 m 1,0,-1
 460 551 l 1,1,-1
 460 301 l 1,2,-1
 442 324 l 1,3,4
 460 338 460 338 478.5 348 c 128,-1,5
 497 358 497 358 520.5 363 c 128,-1,6
 544 368 544 368 576 368 c 2,7,-1
 640 368 l 1,8,-1
 640 297 l 1,9,-1
 588 297 l 2,10,11
 552 297 552 297 528.5 293 c 128,-1,12
 505 289 505 289 485 276 c 128,-1,13
 465 263 465 263 437 236 c 1,14,-1
 460 293 l 1,15,-1
 460 0 l 1,16,-1
 379 0 l 1,17,-1
 379 229 l 1,18,-1
 394 206 l 1,19,20
 370 184 370 184 334.5 165 c 128,-1,21
 299 146 299 146 248 146 c 0,22,23
 208 146 208 146 176 160.5 c 128,-1,24
 144 175 144 175 125 197 c 0,25,26
 109 216 109 216 98.5 238 c 128,-1,27
 88 260 88 260 83.5 288 c 128,-1,28
 79 316 79 316 79 354 c 2,29,-1
 79 551 l 1,30,-1
 0 551 l 1,31,-1
 0 622 l 1,32,-1
 626 622 l 1,33,-1
 626 551 l 1,0,-1
160 551 m 1,34,-1
 160 360 l 2,35,36
 160 305 160 305 166 281 c 128,-1,37
 172 257 172 257 188 240 c 0,38,39
 199 228 199 228 214 222.5 c 128,-1,40
 229 217 229 217 248 217 c 0,41,42
 297 217 297 217 332.5 240.5 c 128,-1,43
 368 264 368 264 396 299 c 1,44,-1
 379 244 l 1,45,-1
 379 551 l 1,46,-1
 160 551 l 1,34,-1
EndSplineSet
Ligature2: "'half' Half Forms in Devanagari2 lookup 38 subtable" uni092B uni094D
Ligature2: "'half' Half Forms in Devanagari2 lookup 37 subtable" uni092B uni094D
EndChar

StartChar: baprehalfdeva
Encoding: 65606 -1 204
Width: 401
Flags: W
LayerCount: 2
Fore
SplineSet
439 193 m 1,0,1
 402 162 402 162 354 140 c 128,-1,2
 306 118 306 118 241 118 c 0,3,4
 185 118 185 118 140.5 139 c 128,-1,5
 96 160 96 160 71 197.5 c 128,-1,6
 46 235 46 235 46 286 c 0,7,8
 46 343 46 343 73.5 383 c 128,-1,9
 101 423 101 423 150.5 443.5 c 128,-1,10
 200 464 200 464 265 464 c 0,11,12
 279 464 279 464 299 462.5 c 128,-1,13
 319 461 319 461 338.5 459 c 128,-1,14
 358 457 358 457 369 454 c 1,15,-1
 363 385 l 1,16,17
 343 389 343 389 318 392 c 128,-1,18
 293 395 293 395 268 395 c 0,19,20
 202 395 202 395 164.5 367.5 c 128,-1,21
 127 340 127 340 127 287 c 0,22,23
 127 235 127 235 160.5 209.5 c 128,-1,24
 194 184 194 184 242 184 c 0,25,26
 295 184 295 184 335 206.5 c 128,-1,27
 375 229 375 229 401 256 c 1,28,-1
 439 193 l 1,0,1
0 622 m 1,29,-1
 416 622 l 1,30,-1
 416 551 l 1,31,-1
 0 551 l 1,32,-1
 0 622 l 1,29,-1
205 424 m 1,33,-1
 377 209 l 1,34,-1
 331 167 l 1,35,-1
 143 401 l 1,36,-1
 205 424 l 1,33,-1
EndSplineSet
Ligature2: "'half' Half Forms in Devanagari2 lookup 38 subtable" uni092C uni094D
Ligature2: "'half' Half Forms in Devanagari2 lookup 37 subtable" uni092C uni094D
EndChar

StartChar: bhaprehalfdeva
Encoding: 65607 -1 205
Width: 439
Flags: W
LayerCount: 2
Fore
SplineSet
332 250 m 1,0,-1
 332 213 l 2,1,2
 332 180 332 180 317.5 165.5 c 128,-1,3
 303 151 303 151 283 151 c 0,4,5
 264 151 264 151 243 163.5 c 128,-1,6
 222 176 222 176 204 195.5 c 128,-1,7
 186 215 186 215 175 237 c 128,-1,8
 164 259 164 259 164 278 c 0,9,10
 164 296 164 296 177.5 308.5 c 128,-1,11
 191 321 191 321 224 321 c 2,12,-1
 253 321 l 1,13,-1
 253 426 l 2,14,15
 253 473 253 473 248 498 c 128,-1,16
 243 523 243 523 232 538 c 0,17,18
 222 554 222 554 205.5 561 c 128,-1,19
 189 568 189 568 169 568 c 0,20,21
 142 568 142 568 128 555 c 128,-1,22
 114 542 114 542 114 521 c 0,23,24
 114 503 114 503 124 490 c 128,-1,25
 134 477 134 477 157 469.5 c 128,-1,26
 180 462 180 462 218 460 c 1,27,-1
 210 389 l 1,28,29
 135 395 135 395 90.5 425.5 c 128,-1,30
 46 456 46 456 46 520 c 0,31,32
 46 559 46 559 63.5 584 c 128,-1,33
 81 609 81 609 110 620.5 c 128,-1,34
 139 632 139 632 174 632 c 0,35,36
 211 632 211 632 240 621.5 c 128,-1,37
 269 611 269 611 291 586 c 0,38,39
 309 567 309 567 320.5 533 c 128,-1,40
 332 499 332 499 332 437 c 2,41,-1
 332 321 l 1,42,-1
 533 321 l 1,43,-1
 533 250 l 1,44,-1
 332 250 l 1,0,-1
402 622 m 1,45,-1
 454 622 l 1,46,-1
 454 551 l 1,47,-1
 402 551 l 1,48,-1
 402 622 l 1,45,-1
EndSplineSet
Ligature2: "'half' Half Forms in Devanagari2 lookup 38 subtable" uni092D uni094D
Ligature2: "'half' Half Forms in Devanagari2 lookup 37 subtable" uni092D uni094D
EndChar

StartChar: maprehalfdeva
Encoding: 65608 -1 206
Width: 350
Flags: W
LayerCount: 2
Fore
SplineSet
207 321 m 1,0,-1
 428 321 l 1,1,-1
 428 250 l 1,2,-1
 207 250 l 1,3,-1
 207 213 l 2,4,5
 207 180 207 180 192.5 165.5 c 128,-1,6
 178 151 178 151 159 151 c 256,7,8
 140 151 140 151 119 163.5 c 128,-1,9
 98 176 98 176 80 195.5 c 128,-1,10
 62 215 62 215 50.5 237 c 128,-1,11
 39 259 39 259 39 278 c 0,12,13
 39 296 39 296 52.5 308.5 c 128,-1,14
 66 321 66 321 100 321 c 2,15,-1
 126 321 l 1,16,-1
 126 551 l 1,17,-1
 0 551 l 1,18,-1
 0 622 l 1,19,-1
 364 622 l 1,20,-1
 364 551 l 1,21,-1
 207 551 l 1,22,-1
 207 321 l 1,0,-1
EndSplineSet
Ligature2: "'half' Half Forms in Devanagari2 lookup 38 subtable" uni092E uni094D
Ligature2: "'half' Half Forms in Devanagari2 lookup 37 subtable" uni092E uni094D
EndChar

StartChar: yaprehalfdeva
Encoding: 65609 -1 207
Width: 328
Flags: W
LayerCount: 2
Fore
SplineSet
175 551 m 1,0,-1
 198 572 l 1,1,2
 218 544 218 544 229 510.5 c 128,-1,3
 240 477 240 477 240 445 c 0,4,5
 240 393 240 393 212.5 356 c 128,-1,6
 185 319 185 319 129 301 c 1,7,8
 149 252 149 252 179.5 227.5 c 128,-1,9
 210 203 210 203 259 203 c 0,10,11
 309 203 309 203 347 224.5 c 128,-1,12
 385 246 385 246 411 275 c 1,13,-1
 449 208 l 1,14,15
 424 187 424 187 395 169.5 c 128,-1,16
 366 152 366 152 331 142 c 128,-1,17
 296 132 296 132 253 132 c 0,18,19
 193 132 193 132 148 159.5 c 128,-1,20
 103 187 103 187 75.5 237 c 128,-1,21
 48 287 48 287 38 353 c 1,22,23
 100 366 100 366 130 389.5 c 128,-1,24
 160 413 160 413 160 457 c 0,25,26
 160 492 160 492 143.5 520 c 128,-1,27
 127 548 127 548 110 566 c 1,28,-1
 159 551 l 1,29,-1
 0 551 l 1,30,-1
 0 622 l 1,31,-1
 343 622 l 1,32,-1
 343 551 l 1,33,-1
 175 551 l 1,0,-1
EndSplineSet
Ligature2: "'half' Half Forms in Devanagari2 lookup 38 subtable" uni092F uni094D
Ligature2: "'half' Half Forms in Devanagari2 lookup 37 subtable" uni092F uni094D
EndChar

StartChar: raprehalfdeva
Encoding: 65610 -1 208
Width: 399
Flags: W
LayerCount: 2
Fore
SplineSet
0 551 m 1,0,-1
 0 622 l 1,1,-1
 414 622 l 1,2,-1
 414 551 l 1,3,-1
 0 551 l 1,0,-1
446 286 m 1,4,5
 414 266 414 266 374 257.5 c 128,-1,6
 334 249 334 249 290 249 c 0,7,8
 224 249 224 249 161.5 267 c 128,-1,9
 99 285 99 285 27 322 c 1,10,-1
 58 389 l 1,11,12
 114 359 114 359 165 341 c 128,-1,13
 216 323 216 323 271 323 c 0,14,15
 325 323 325 323 360.5 331.5 c 128,-1,16
 396 340 396 340 436 359 c 1,17,-1
 446 286 l 1,4,5
EndSplineSet
Ligature2: "'half' Half Forms in Devanagari2 lookup 38 subtable" uni0931 uni094D
Ligature2: "'half' Half Forms in Devanagari2 lookup 38 subtable" uni0930 uni094D uni200D
Ligature2: "'half' Half Forms in Devanagari2 lookup 37 subtable" uni0931 uni094D
Ligature2: "'half' Half Forms in Devanagari2 lookup 37 subtable" uni0930 uni094D uni200D
EndChar

StartChar: laprehalfdeva
Encoding: 65611 -1 209
Width: 500
Flags: W
LayerCount: 2
Fore
SplineSet
0 622 m 1,0,-1
 515 622 l 1,1,-1
 515 551 l 1,2,-1
 0 551 l 1,3,-1
 0 622 l 1,0,-1
337 292 m 1,4,5
 306 318 306 318 276.5 335.5 c 128,-1,6
 247 353 247 353 209 353 c 0,7,8
 169 353 169 353 147.5 330 c 128,-1,9
 126 307 126 307 126 271 c 0,10,11
 126 233 126 233 147.5 198.5 c 128,-1,12
 169 164 169 164 210 126.5 c 128,-1,13
 251 89 251 89 309 40 c 1,14,-1
 255 -12 l 1,15,16
 197 38 197 38 149 83.5 c 128,-1,17
 101 129 101 129 73 175.5 c 128,-1,18
 45 222 45 222 45 275 c 0,19,20
 45 315 45 315 59.5 343.5 c 128,-1,21
 74 372 74 372 97.5 390.5 c 128,-1,22
 121 409 121 409 149 417.5 c 128,-1,23
 177 426 177 426 204 426 c 0,24,25
 237 426 237 426 265 418 c 128,-1,26
 293 410 293 410 319 394.5 c 128,-1,27
 345 379 345 379 369 357 c 1,28,-1
 337 292 l 1,4,5
537 349 m 1,29,30
 527 353 527 353 516.5 354.5 c 128,-1,31
 506 356 506 356 494 356 c 0,32,33
 470 356 470 356 445 344 c 128,-1,34
 420 332 420 332 397 300.5 c 128,-1,35
 374 269 374 269 356 208 c 1,36,-1
 279 232 l 1,37,38
 304 327 304 327 362 376.5 c 128,-1,39
 420 426 420 426 500 426 c 0,40,41
 514 426 514 426 529.5 424 c 128,-1,42
 545 422 545 422 556 417 c 1,43,-1
 537 349 l 1,29,30
EndSplineSet
Ligature2: "'half' Half Forms in Devanagari2 lookup 38 subtable" uni0932 uni094D
Ligature2: "'half' Half Forms in Devanagari2 lookup 37 subtable" ladevaMAR uni094D
Ligature2: "'half' Half Forms in Devanagari2 lookup 37 subtable" uni0932 uni094D
EndChar

StartChar: llaprehalfdeva
Encoding: 65612 -1 210
Width: 716
Flags: W
LayerCount: 2
Fore
SplineSet
0 622 m 1,0,-1
 731 622 l 1,1,-1
 731 551 l 1,2,-1
 0 551 l 1,3,-1
 0 622 l 1,0,-1
386 272 m 1,4,5
 344 318 344 318 309 343 c 128,-1,6
 274 368 274 368 232 368 c 256,7,8
 190 368 190 368 158 340 c 128,-1,9
 126 312 126 312 126 250 c 256,10,11
 126 188 126 188 153.5 161.5 c 128,-1,12
 181 135 181 135 218 135 c 0,13,14
 244 135 244 135 264 146.5 c 128,-1,15
 284 158 284 158 301 181.5 c 128,-1,16
 318 205 318 205 333 240 c 2,17,-1
 355 289 l 2,18,19
 376 335 376 335 396.5 364 c 128,-1,20
 417 393 417 393 439.5 409.5 c 128,-1,21
 462 426 462 426 487.5 432.5 c 128,-1,22
 513 439 513 439 543 439 c 0,23,24
 591 439 591 439 629.5 417 c 128,-1,25
 668 395 668 395 691 353 c 128,-1,26
 714 311 714 311 714 250 c 0,27,28
 714 197 714 197 692.5 154.5 c 128,-1,29
 671 112 671 112 631.5 87.5 c 128,-1,30
 592 63 592 63 538 63 c 0,31,32
 475 63 475 63 430.5 92 c 128,-1,33
 386 121 386 121 340 167 c 1,34,-1
 374 230 l 1,35,36
 415 184 415 184 450.5 159.5 c 128,-1,37
 486 135 486 135 528 135 c 256,38,39
 570 135 570 135 601.5 162.5 c 128,-1,40
 633 190 633 190 633 252 c 0,41,42
 633 316 633 316 605.5 342 c 128,-1,43
 578 368 578 368 541 368 c 0,44,45
 503 368 503 368 476.5 341.5 c 128,-1,46
 450 315 450 315 426 262 c 2,47,-1
 404 214 l 2,48,49
 385 169 385 169 364 140 c 128,-1,50
 343 111 343 111 320 94 c 128,-1,51
 297 77 297 77 271.5 70 c 128,-1,52
 246 63 246 63 216 63 c 0,53,54
 169 63 169 63 130.5 84.5 c 128,-1,55
 92 106 92 106 69 148.5 c 128,-1,56
 46 191 46 191 46 252 c 0,57,58
 46 308 46 308 68.5 350 c 128,-1,59
 91 392 91 392 131 415.5 c 128,-1,60
 171 439 171 439 222 439 c 0,61,62
 285 439 285 439 329.5 410.5 c 128,-1,63
 374 382 374 382 420 335 c 1,64,-1
 386 272 l 1,4,5
EndSplineSet
Ligature2: "'half' Half Forms in Devanagari2 lookup 38 subtable" uni0933 uni094D
Ligature2: "'half' Half Forms in Devanagari2 lookup 37 subtable" uni0933 uni094D
EndChar

StartChar: vaprehalfdeva
Encoding: 65613 -1 211
Width: 392
Flags: W
LayerCount: 2
Fore
SplineSet
425 193 m 1,0,1
 388 162 388 162 340.5 140 c 128,-1,2
 293 118 293 118 233 118 c 0,3,4
 179 118 179 118 137 139 c 128,-1,5
 95 160 95 160 70.5 197.5 c 128,-1,6
 46 235 46 235 46 286 c 0,7,8
 46 372 46 372 103.5 418 c 128,-1,9
 161 464 161 464 255 464 c 0,10,11
 268 464 268 464 287.5 462.5 c 128,-1,12
 307 461 307 461 325.5 459 c 128,-1,13
 344 457 344 457 354 454 c 1,14,-1
 349 381 l 1,15,16
 330 385 330 385 306 388 c 128,-1,17
 282 391 282 391 259 391 c 0,18,19
 197 391 197 391 162 364 c 128,-1,20
 127 337 127 337 127 287 c 0,21,22
 127 236 127 236 158.5 212 c 128,-1,23
 190 188 190 188 235 188 c 0,24,25
 287 188 287 188 324.5 210.5 c 128,-1,26
 362 233 362 233 387 259 c 1,27,-1
 425 193 l 1,0,1
0 622 m 1,28,-1
 406 622 l 1,29,-1
 406 551 l 1,30,-1
 0 551 l 1,31,-1
 0 622 l 1,28,-1
EndSplineSet
Ligature2: "'half' Half Forms in Devanagari2 lookup 38 subtable" uni0935 uni094D
Ligature2: "'half' Half Forms in Devanagari2 lookup 37 subtable" uni0935 uni094D
EndChar

StartChar: shaprehalfdeva
Encoding: 65614 -1 212
Width: 407
Flags: W
LayerCount: 2
Fore
SplineSet
122 189 m 0,0,1
 87 189 87 189 63.5 206.5 c 128,-1,2
 40 224 40 224 40 255 c 0,3,4
 40 284 40 284 58 299 c 128,-1,5
 76 314 76 314 104 314 c 0,6,7
 125 314 125 314 148 303.5 c 128,-1,8
 171 293 171 293 212 260 c 1,9,-1
 224 246 l 1,10,11
 259 219 259 219 293.5 184.5 c 128,-1,12
 328 150 328 150 359 113.5 c 128,-1,13
 390 77 390 77 414 43 c 1,14,-1
 350 -1 l 1,15,16
 289 86 289 86 240.5 136.5 c 128,-1,17
 192 187 192 187 149 218 c 1,18,-1
 137 267 l 1,19,20
 184 268 184 268 222 289 c 128,-1,21
 260 310 260 310 282.5 349.5 c 128,-1,22
 305 389 305 389 305 443 c 0,23,24
 305 499 305 499 275.5 532.5 c 128,-1,25
 246 566 246 566 199 566 c 0,26,27
 168 566 168 566 153 552.5 c 128,-1,28
 138 539 138 539 138 516 c 0,29,30
 138 504 138 504 143 491.5 c 128,-1,31
 148 479 148 479 161.5 467.5 c 128,-1,32
 175 456 175 456 201.5 448.5 c 128,-1,33
 228 441 228 441 270 440 c 1,34,-1
 253 370 l 1,35,36
 159 376 159 376 112.5 417.5 c 128,-1,37
 66 459 66 459 66 517 c 0,38,39
 66 568 66 568 101.5 600 c 128,-1,40
 137 632 137 632 204 632 c 0,41,42
 251 632 251 632 292 610.5 c 128,-1,43
 333 589 333 589 358.5 546.5 c 128,-1,44
 384 504 384 504 384 440 c 0,45,46
 384 373 384 373 351.5 315.5 c 128,-1,47
 319 258 319 258 260 223.5 c 128,-1,48
 201 189 201 189 122 189 c 0,0,1
EndSplineSet
Ligature2: "'half' Half Forms in Devanagari2 lookup 38 subtable" uni0936 uni094D
Ligature2: "'half' Half Forms in Devanagari2 lookup 37 subtable" uni0936 uni094D
EndChar

StartChar: ssaprehalfdeva
Encoding: 65615 -1 213
Width: 376
Flags: W
LayerCount: 2
Fore
SplineSet
409 286 m 1,0,-1
 446 217 l 1,1,2
 406 189 406 189 363 167.5 c 128,-1,3
 320 146 320 146 254 146 c 0,4,5
 214 146 214 146 181.5 159.5 c 128,-1,6
 149 173 149 173 128 194 c 0,7,8
 111 212 111 212 100 233.5 c 128,-1,9
 89 255 89 255 84 285 c 128,-1,10
 79 315 79 315 79 358 c 2,11,-1
 79 551 l 1,12,-1
 0 551 l 1,13,-1
 0 622 l 1,14,-1
 391 622 l 1,15,-1
 391 551 l 1,16,-1
 205 551 l 1,17,-1
 409 286 l 1,0,-1
262 217 m 0,18,19
 288 217 288 217 313 225 c 128,-1,20
 338 233 338 233 360 245 c 1,21,-1
 159 507 l 1,22,-1
 159 369 l 2,23,24
 159 328 159 328 162 304 c 128,-1,25
 165 280 165 280 171.5 265.5 c 128,-1,26
 178 251 178 251 189 240 c 0,27,28
 201 228 201 228 219 222.5 c 128,-1,29
 237 217 237 217 262 217 c 0,18,19
EndSplineSet
Ligature2: "'half' Half Forms in Devanagari2 lookup 38 subtable" uni0937 uni094D
Ligature2: "'half' Half Forms in Devanagari2 lookup 37 subtable" uni0937 uni094D
EndChar

StartChar: saprehalfdeva
Encoding: 65616 -1 214
Width: 389
Flags: W
LayerCount: 2
Fore
SplineSet
245 551 m 1,0,-1
 273 566 l 1,1,2
 284 550 284 550 291 523 c 128,-1,3
 298 496 298 496 298 458 c 0,4,5
 298 414 298 414 287.5 381.5 c 128,-1,6
 277 349 277 349 258 328 c 1,7,-1
 257 319 l 1,8,9
 239 296 239 296 214.5 279 c 128,-1,10
 190 262 190 262 159 250 c 1,11,-1
 163 259 l 1,12,13
 204 206 204 206 260.5 149 c 128,-1,14
 317 92 317 92 380 42 c 1,15,-1
 326 -12 l 1,16,17
 270 37 270 37 220.5 87 c 128,-1,18
 171 137 171 137 133 181 c 128,-1,19
 95 225 95 225 73 256 c 256,20,21
 51 287 51 287 45.5 305 c 128,-1,22
 40 323 40 323 40 340 c 0,23,24
 40 359 40 359 55 376 c 128,-1,25
 70 393 70 393 104 393 c 0,26,27
 129 393 129 393 147.5 381.5 c 128,-1,28
 166 370 166 370 181 349.5 c 128,-1,29
 196 329 196 329 209 300 c 1,30,-1
 148 331 l 1,31,32
 176 339 176 339 190.5 359 c 128,-1,33
 205 379 205 379 211 405.5 c 128,-1,34
 217 432 217 432 217 458 c 0,35,36
 217 496 217 496 210 523.5 c 128,-1,37
 203 551 203 551 194 564 c 1,38,-1
 237 551 l 1,39,-1
 0 551 l 1,40,-1
 0 622 l 1,41,-1
 403 622 l 1,42,-1
 403 551 l 1,43,-1
 245 551 l 1,0,-1
369 322 m 0,44,45
 400 322 400 322 425 324.5 c 128,-1,46
 450 327 450 327 478 332 c 1,47,-1
 486 260 l 1,48,49
 461 255 461 255 435 253 c 128,-1,50
 409 251 409 251 380 251 c 0,51,52
 347 251 347 251 310.5 255.5 c 128,-1,53
 274 260 274 260 242 268.5 c 128,-1,54
 210 277 210 277 190 287 c 1,55,-1
 210 347 l 1,56,57
 230 340 230 340 256 334 c 128,-1,58
 282 328 282 328 311 325 c 128,-1,59
 340 322 340 322 369 322 c 0,44,45
EndSplineSet
Ligature2: "'half' Half Forms in Devanagari2 lookup 38 subtable" uni0938 uni094D
Ligature2: "'half' Half Forms in Devanagari2 lookup 37 subtable" uni0938 uni094D
EndChar

StartChar: haprehalfdeva
Encoding: 65617 -1 215
Width: 432
Flags: W
LayerCount: 2
Fore
SplineSet
137 229 m 1,0,1
 112 247 112 247 90.5 277.5 c 128,-1,2
 69 308 69 308 69 352 c 0,3,4
 69 380 69 380 79 400 c 128,-1,5
 89 420 89 420 106 433 c 0,6,7
 121 445 121 445 139 452 c 128,-1,8
 157 459 157 459 179.5 462 c 128,-1,9
 202 465 202 465 229 465 c 2,10,-1
 298 465 l 1,11,-1
 298 551 l 1,12,-1
 0 551 l 1,13,-1
 0 622 l 1,14,-1
 447 622 l 1,15,-1
 447 551 l 1,16,-1
 378 551 l 1,17,-1
 378 394 l 1,18,-1
 230 394 l 2,19,20
 199 394 199 394 186 391 c 128,-1,21
 173 388 173 388 164 381 c 0,22,23
 157 375 157 375 153 366.5 c 128,-1,24
 149 358 149 358 149 347 c 0,25,26
 149 323 149 323 163.5 305 c 128,-1,27
 178 287 178 287 197 274 c 1,28,-1
 137 229 l 1,0,1
480 229 m 1,29,-1
 311 229 l 2,30,31
 254 229 254 229 224 221.5 c 128,-1,32
 194 214 194 214 176 201 c 0,33,34
 157 188 157 188 147.5 168.5 c 128,-1,35
 138 149 138 149 138 124 c 0,36,37
 138 101 138 101 144 79.5 c 128,-1,38
 150 58 150 58 167 34 c 128,-1,39
 184 10 184 10 216.5 -20 c 128,-1,40
 249 -50 249 -50 302 -89 c 1,41,-1
 248 -142 l 1,42,43
 187 -94 187 -94 144.5 -51.5 c 128,-1,44
 102 -9 102 -9 80 35 c 128,-1,45
 58 79 58 79 58 130 c 0,46,47
 58 174 58 174 79.5 206 c 128,-1,48
 101 238 101 238 134 260 c 0,49,50
 155 273 155 273 178.5 282 c 128,-1,51
 202 291 202 291 238.5 295.5 c 128,-1,52
 275 300 275 300 334 300 c 2,53,-1
 480 300 l 1,54,-1
 480 229 l 1,29,-1
EndSplineSet
Ligature2: "'half' Half Forms in Devanagari2 lookup 38 subtable" uni0939 uni094D
Ligature2: "'half' Half Forms in Devanagari2 lookup 37 subtable" uni0939 uni094D
EndChar

StartChar: zhaprehalfdeva
Encoding: 65618 -1 216
Width: 572
Flags: W
LayerCount: 2
Fore
SplineSet
0 622 m 1,0,-1
 587 622 l 1,1,-1
 587 551 l 1,2,-1
 0 551 l 1,3,-1
 0 622 l 1,0,-1
310 123 m 256,4,5
 270 123 270 123 233.5 139 c 128,-1,6
 197 155 197 155 162.5 190 c 128,-1,7
 128 225 128 225 95.5 283 c 128,-1,8
 63 341 63 341 31 425 c 1,9,-1
 102 450 l 1,10,11
 133 367 133 367 165 310.5 c 128,-1,12
 197 254 197 254 232 225.5 c 128,-1,13
 267 197 267 197 306 197 c 0,14,15
 338 197 338 197 358.5 212 c 128,-1,16
 379 227 379 227 379 264 c 0,17,18
 379 304 379 304 348.5 339.5 c 128,-1,19
 318 375 318 375 273 401 c 1,20,-1
 302 465 l 1,21,-1
 572 465 l 1,22,-1
 572 394 l 1,23,-1
 435 394 l 2,24,25
 409 394 409 394 393.5 395 c 128,-1,26
 378 396 378 396 369 398 c 1,27,-1
 362 409 l 1,28,29
 404 381 404 381 431 340 c 128,-1,30
 458 299 458 299 458 253 c 0,31,32
 458 209 458 209 437.5 180 c 128,-1,33
 417 151 417 151 383.5 137 c 128,-1,34
 350 123 350 123 310 123 c 256,4,5
213 2 m 256,35,36
 193 2 193 2 178 17.5 c 128,-1,37
 163 33 163 33 163 55 c 0,38,39
 163 76 163 76 178 91.5 c 128,-1,40
 193 107 193 107 213 107 c 256,41,42
 233 107 233 107 248 91.5 c 128,-1,43
 263 76 263 76 263 55 c 0,44,45
 263 33 263 33 248 17.5 c 128,-1,46
 233 2 233 2 213 2 c 256,35,36
398 2 m 0,47,48
 378 2 378 2 363.5 17.5 c 128,-1,49
 349 33 349 33 349 55 c 0,50,51
 349 76 349 76 363.5 91.5 c 128,-1,52
 378 107 378 107 398 107 c 0,53,54
 419 107 419 107 433.5 91.5 c 128,-1,55
 448 76 448 76 448 55 c 0,56,57
 448 33 448 33 433.5 17.5 c 128,-1,58
 419 2 419 2 398 2 c 0,47,48
306 -87 m 0,59,60
 285 -87 285 -87 270.5 -72 c 128,-1,61
 256 -57 256 -57 256 -35 c 256,62,63
 256 -13 256 -13 270.5 2 c 128,-1,64
 285 17 285 17 306 17 c 0,65,66
 326 17 326 17 340.5 2 c 128,-1,67
 355 -13 355 -13 355 -35 c 256,68,69
 355 -57 355 -57 340.5 -72 c 128,-1,70
 326 -87 326 -87 306 -87 c 0,59,60
EndSplineSet
Ligature2: "'half' Half Forms in Devanagari2 lookup 38 subtable" zhadeva uni094D
Ligature2: "'half' Half Forms in Devanagari2 lookup 37 subtable" zhadeva uni094D
EndChar

StartChar: heavyyaprehalfdeva
Encoding: 65619 -1 217
Width: 328
Flags: W
LayerCount: 2
Fore
SplineSet
253 132 m 0,0,1
 193 132 193 132 148 159.5 c 128,-1,2
 103 187 103 187 75.5 237 c 128,-1,3
 48 287 48 287 38 353 c 1,4,5
 100 366 100 366 130 389.5 c 128,-1,6
 160 413 160 413 160 457 c 0,7,8
 160 489 160 489 145 516.5 c 128,-1,9
 130 544 130 544 114 562 c 1,10,-1
 148 551 l 1,11,-1
 0 551 l 1,12,-1
 0 622 l 1,13,-1
 343 622 l 1,14,-1
 343 551 l 1,15,-1
 181 551 l 1,16,-1
 208 556 l 1,17,18
 225 522 225 522 230 497.5 c 128,-1,19
 235 473 235 473 235 445 c 2,20,-1
 232 422 l 2,21,22
 228 373 228 373 196 339.5 c 128,-1,23
 164 306 164 306 99 293 c 1,24,-1
 119 330 l 1,25,26
 139 267 139 267 171 235 c 128,-1,27
 203 203 203 203 259 203 c 0,28,29
 313 203 313 203 349 223.5 c 128,-1,30
 385 244 385 244 411 269 c 2,31,-1
 372 226 l 1,32,-1
 273 346 l 2,33,34
 255 368 255 368 236.5 393 c 128,-1,35
 218 418 218 418 200.5 443 c 128,-1,36
 183 468 183 468 170 487 c 1,37,-1
 210 531 l 1,38,-1
 414 273 l 1,39,-1
 425 186 l 1,40,41
 393 165 393 165 350.5 148.5 c 128,-1,42
 308 132 308 132 253 132 c 0,0,1
EndSplineSet
Ligature2: "'half' Half Forms in Devanagari2 lookup 38 subtable" heavyyadeva uni094D
Ligature2: "'half' Half Forms in Devanagari2 lookup 37 subtable" heavyyadeva uni094D
EndChar

StartChar: kassaprehalfdeva
Encoding: 65620 -1 218
Width: 460
Flags: W
LayerCount: 2
Fore
SplineSet
513 313 m 1,0,1
 491 305 491 305 462 299 c 128,-1,2
 433 293 433 293 390 293 c 0,3,4
 333 293 333 293 286.5 305.5 c 128,-1,5
 240 318 240 318 208 334 c 2,6,-1
 189 346 l 2,7,8
 134 377 134 377 104 416 c 128,-1,9
 74 455 74 455 74 507 c 0,10,11
 74 543 74 543 92 571 c 128,-1,12
 110 599 110 599 145.5 615.5 c 128,-1,13
 181 632 181 632 231 632 c 0,14,15
 293 632 293 632 337.5 603 c 128,-1,16
 382 574 382 574 382 515 c 0,17,18
 382 479 382 479 368.5 451.5 c 128,-1,19
 355 424 355 424 330.5 401.5 c 128,-1,20
 306 379 306 379 271 357 c 1,21,-1
 256 344 l 1,22,23
 215 321 215 321 186.5 300.5 c 128,-1,24
 158 280 158 280 143 258 c 128,-1,25
 128 236 128 236 128 208 c 0,26,27
 128 188 128 188 138 167.5 c 128,-1,28
 148 147 148 147 174 133.5 c 128,-1,29
 200 120 200 120 247 120 c 0,30,31
 261 120 261 120 275 121.5 c 128,-1,32
 289 123 289 123 307 127 c 1,33,-1
 350 85 l 1,34,35
 373 55 373 55 394.5 31 c 128,-1,36
 416 7 416 7 448 -24 c 1,37,-1
 390 -65 l 1,38,39
 359 -29 359 -29 331.5 6 c 128,-1,40
 304 41 304 41 288 69 c 1,41,-1
 282 97 l 1,42,43
 273 108 273 108 268 124.5 c 128,-1,44
 263 141 263 141 263 157 c 0,45,46
 263 189 263 189 283 202.5 c 128,-1,47
 303 216 303 216 328 216 c 0,48,49
 369 216 369 216 391 190 c 128,-1,50
 413 164 413 164 413 136 c 0,51,52
 413 101 413 101 393.5 84 c 128,-1,53
 374 67 374 67 337 57 c 1,54,-1
 317 56 l 2,55,56
 305 53 305 53 284.5 51.5 c 128,-1,57
 264 50 264 50 245 50 c 0,58,59
 186 50 186 50 141 70.5 c 128,-1,60
 96 91 96 91 71 126.5 c 128,-1,61
 46 162 46 162 46 205 c 0,62,63
 46 246 46 246 65.5 276.5 c 128,-1,64
 85 307 85 307 117.5 330.5 c 128,-1,65
 150 354 150 354 187 374 c 1,66,-1
 197 381 l 1,67,68
 234 401 234 401 257.5 421 c 128,-1,69
 281 441 281 441 292 462 c 128,-1,70
 303 483 303 483 303 506 c 0,71,72
 303 530 303 530 286 548 c 128,-1,73
 269 566 269 566 229 566 c 0,74,75
 195 566 195 566 174 549 c 128,-1,76
 153 532 153 532 153 502 c 0,77,78
 153 476 153 476 166 454 c 128,-1,79
 179 432 179 432 202 415.5 c 128,-1,80
 225 399 225 399 253 388 c 2,81,-1
 273 381 l 2,82,83
 296 371 296 371 325 367.5 c 128,-1,84
 354 364 354 364 379 364 c 0,85,86
 413 364 413 364 440.5 369 c 128,-1,87
 468 374 468 374 496 386 c 1,88,-1
 513 313 l 1,0,1
EndSplineSet
Ligature2: "'half' Half Forms in Devanagari2 lookup 38 subtable" kassadeva uni094D
Ligature2: "'half' Half Forms in Devanagari2 lookup 37 subtable" kassadeva uni094D
EndChar

StartChar: janyaprehalfdeva
Encoding: 65621 -1 219
Width: 418
Flags: W
LayerCount: 2
Fore
SplineSet
0 622 m 1,0,-1
 433 622 l 1,1,-1
 433 551 l 1,2,-1
 0 551 l 1,3,-1
 0 622 l 1,0,-1
268 224 m 0,4,5
 268 256 268 256 249.5 282.5 c 128,-1,6
 231 309 231 309 191 332 c 128,-1,7
 151 355 151 355 87 374 c 1,8,-1
 111 441 l 1,9,-1
 457 441 l 1,10,-1
 457 370 l 1,11,-1
 326 370 l 2,12,13
 278 370 278 370 252 372.5 c 128,-1,14
 226 375 226 375 217 378 c 2,15,-1
 202 389 l 1,16,17
 279 356 279 356 313 314 c 128,-1,18
 347 272 347 272 347 218 c 0,19,20
 347 176 347 176 327 145.5 c 128,-1,21
 307 115 307 115 273 99 c 128,-1,22
 239 83 239 83 195 81 c 0,23,24
 191 81 191 81 193.5 77 c 128,-1,25
 196 73 196 73 182 73 c 0,26,27
 140 73 140 73 107 78 c 128,-1,28
 74 83 74 83 54.5 97 c 128,-1,29
 35 111 35 111 35 136 c 0,30,31
 35 159 35 159 48.5 173.5 c 128,-1,32
 62 188 62 188 88 188 c 0,33,34
 116 188 116 188 146.5 169.5 c 128,-1,35
 177 151 177 151 228 99 c 1,36,37
 247 86 247 86 272.5 73.5 c 128,-1,38
 298 61 298 61 326.5 50 c 128,-1,39
 355 39 355 39 381 31 c 1,40,-1
 348 -39 l 1,41,42
 287 -15 287 -15 228 24 c 128,-1,43
 169 63 169 63 125 102 c 1,44,-1
 78 166 l 1,45,46
 104 154 104 154 123 144.5 c 128,-1,47
 142 135 142 135 166 141 c 1,48,49
 214 142 214 142 241 166 c 128,-1,50
 268 190 268 190 268 224 c 0,4,5
EndSplineSet
Ligature2: "'half' Half Forms in Devanagari2 lookup 38 subtable" janyadeva uni094D
Ligature2: "'half' Half Forms in Devanagari2 lookup 37 subtable" janyadeva uni094D
EndChar

StartChar: sanuktaprehalfdeva
Encoding: 65653 -1 251
Width: 389
Flags: W
LayerCount: 2
Fore
SplineSet
53 36 m 0,0,1
 53 60 53 60 69.5 77 c 128,-1,2
 86 94 86 94 108 94 c 0,3,4
 131 94 131 94 147 77 c 128,-1,5
 163 60 163 60 163 36 c 0,6,7
 163 11 163 11 147 -5.5 c 128,-1,8
 131 -22 131 -22 108 -22 c 0,9,10
 86 -22 86 -22 69.5 -5.5 c 128,-1,11
 53 11 53 11 53 36 c 0,0,1
245 551 m 1,12,-1
 273 566 l 1,13,14
 284 550 284 550 291 523 c 128,-1,15
 298 496 298 496 298 458 c 0,16,17
 298 414 298 414 287.5 381.5 c 128,-1,18
 277 349 277 349 258 328 c 1,19,-1
 257 319 l 1,20,21
 239 296 239 296 214.5 279 c 128,-1,22
 190 262 190 262 159 250 c 1,23,-1
 163 259 l 1,24,25
 204 206 204 206 260.5 149 c 128,-1,26
 317 92 317 92 380 42 c 1,27,-1
 326 -12 l 1,28,29
 270 37 270 37 220.5 87 c 128,-1,30
 171 137 171 137 133 181 c 128,-1,31
 95 225 95 225 73 256 c 256,32,33
 51 287 51 287 45.5 305 c 128,-1,34
 40 323 40 323 40 340 c 0,35,36
 40 359 40 359 55 376 c 128,-1,37
 70 393 70 393 104 393 c 0,38,39
 129 393 129 393 147.5 381.5 c 128,-1,40
 166 370 166 370 181 349.5 c 128,-1,41
 196 329 196 329 209 300 c 1,42,-1
 148 331 l 1,43,44
 176 339 176 339 190.5 359 c 128,-1,45
 205 379 205 379 211 405.5 c 128,-1,46
 217 432 217 432 217 458 c 0,47,48
 217 496 217 496 210 523.5 c 128,-1,49
 203 551 203 551 194 564 c 1,50,-1
 237 551 l 1,51,-1
 0 551 l 1,52,-1
 0 622 l 1,53,-1
 403 622 l 1,54,-1
 403 551 l 1,55,-1
 245 551 l 1,12,-1
369 322 m 0,56,57
 400 322 400 322 425 324.5 c 128,-1,58
 450 327 450 327 478 332 c 1,59,-1
 486 260 l 1,60,61
 461 255 461 255 435 253 c 128,-1,62
 409 251 409 251 380 251 c 0,63,64
 347 251 347 251 310.5 255.5 c 128,-1,65
 274 260 274 260 242 268.5 c 128,-1,66
 210 277 210 277 190 287 c 1,67,-1
 210 347 l 1,68,69
 230 340 230 340 256 334 c 128,-1,70
 282 328 282 328 311 325 c 128,-1,71
 340 322 340 322 369 322 c 0,56,57
EndSplineSet
Ligature2: "'half' Half Forms in Devanagari2 lookup 38 subtable" sanuktadeva uni094D
Ligature2: "'half' Half Forms in Devanagari2 lookup 37 subtable" sanuktadeva uni094D
EndChar

StartChar: hanuktaprehalfdeva
Encoding: 65654 -1 252
Width: 432
Flags: W
LayerCount: 2
Fore
SplineSet
71 -184 m 0,0,1
 71 -160 71 -160 87.5 -143 c 128,-1,2
 104 -126 104 -126 126 -126 c 0,3,4
 149 -126 149 -126 165 -143 c 128,-1,5
 181 -160 181 -160 181 -184 c 0,6,7
 181 -209 181 -209 165 -225.5 c 128,-1,8
 149 -242 149 -242 126 -242 c 0,9,10
 104 -242 104 -242 87.5 -225.5 c 128,-1,11
 71 -209 71 -209 71 -184 c 0,0,1
137 229 m 1,12,13
 112 247 112 247 90.5 277.5 c 128,-1,14
 69 308 69 308 69 352 c 0,15,16
 69 380 69 380 79 400 c 128,-1,17
 89 420 89 420 106 433 c 0,18,19
 121 445 121 445 139 452 c 128,-1,20
 157 459 157 459 179.5 462 c 128,-1,21
 202 465 202 465 229 465 c 2,22,-1
 298 465 l 1,23,-1
 298 551 l 1,24,-1
 0 551 l 1,25,-1
 0 622 l 1,26,-1
 447 622 l 1,27,-1
 447 551 l 1,28,-1
 378 551 l 1,29,-1
 378 394 l 1,30,-1
 230 394 l 2,31,32
 199 394 199 394 186 391 c 128,-1,33
 173 388 173 388 164 381 c 0,34,35
 157 375 157 375 153 366.5 c 128,-1,36
 149 358 149 358 149 347 c 0,37,38
 149 323 149 323 163.5 305 c 128,-1,39
 178 287 178 287 197 274 c 1,40,-1
 137 229 l 1,12,13
480 229 m 1,41,-1
 311 229 l 2,42,43
 254 229 254 229 224 221.5 c 128,-1,44
 194 214 194 214 176 201 c 0,45,46
 157 188 157 188 147.5 168.5 c 128,-1,47
 138 149 138 149 138 124 c 0,48,49
 138 101 138 101 144 79.5 c 128,-1,50
 150 58 150 58 167 34 c 128,-1,51
 184 10 184 10 216.5 -20 c 128,-1,52
 249 -50 249 -50 302 -89 c 1,53,-1
 248 -142 l 1,54,55
 187 -94 187 -94 144.5 -51.5 c 128,-1,56
 102 -9 102 -9 80 35 c 128,-1,57
 58 79 58 79 58 130 c 0,58,59
 58 174 58 174 79.5 206 c 128,-1,60
 101 238 101 238 134 260 c 0,61,62
 155 273 155 273 178.5 282 c 128,-1,63
 202 291 202 291 238.5 295.5 c 128,-1,64
 275 300 275 300 334 300 c 2,65,-1
 480 300 l 1,66,-1
 480 229 l 1,41,-1
EndSplineSet
Ligature2: "'half' Half Forms in Devanagari2 lookup 38 subtable" hanuktadeva uni094D
Ligature2: "'half' Half Forms in Devanagari2 lookup 37 subtable" hanuktadeva uni094D
EndChar

StartChar: karadeva
Encoding: 65655 -1 253
Width: 762
GlyphClass: 2
Flags: W
AnchorPoint: "Anchor-2" 411 0 basechar 0
AnchorPoint: "Anchor-1" 371 0 basechar 0
AnchorPoint: "Anchor-0" 371 622 basechar 0
LayerCount: 2
Fore
SplineSet
777 551 m 1,0,-1
 452 551 l 1,1,-1
 452 341 l 1,2,-1
 427 322 l 1,3,4
 456 359 456 359 490.5 379 c 128,-1,5
 525 399 525 399 569 399 c 0,6,7
 634 399 634 399 675 357.5 c 128,-1,8
 716 316 716 316 716 239 c 0,9,10
 716 193 716 193 701 141 c 128,-1,11
 686 89 686 89 651 39 c 1,12,-1
 579 80 l 1,13,14
 604 112 604 112 620 154 c 128,-1,15
 636 196 636 196 636 237 c 0,16,17
 636 284 636 284 616.5 307 c 128,-1,18
 597 330 597 330 562 330 c 0,19,20
 528 330 528 330 493.5 301 c 128,-1,21
 459 272 459 272 424 219 c 1,22,-1
 452 305 l 1,23,-1
 452 0 l 1,24,-1
 371 0 l 1,25,-1
 371 218 l 1,26,-1
 385 186 l 1,27,28
 364 166 364 166 324.5 143.5 c 128,-1,29
 285 121 285 121 226 121 c 0,30,31
 179 121 179 121 137.5 139.5 c 128,-1,32
 96 158 96 158 71 195.5 c 128,-1,33
 46 233 46 233 46 290 c 0,34,35
 46 344 46 344 71 383 c 128,-1,36
 96 422 96 422 141 443 c 128,-1,37
 186 464 186 464 244 464 c 0,38,39
 267 464 267 464 295.5 460.5 c 128,-1,40
 324 457 324 457 339 454 c 1,41,-1
 333 381 l 1,42,43
 317 385 317 385 292.5 388 c 128,-1,44
 268 391 268 391 249 391 c 0,45,46
 191 391 191 391 159 365 c 128,-1,47
 127 339 127 339 127 292 c 0,48,49
 127 239 127 239 157.5 213.5 c 128,-1,50
 188 188 188 188 228 188 c 0,51,52
 262 188 262 188 290 200.5 c 128,-1,53
 318 213 318 213 342 233.5 c 128,-1,54
 366 254 366 254 388 278 c 1,55,-1
 371 224 l 1,56,-1
 371 551 l 1,57,-1
 0 551 l 1,58,-1
 0 622 l 1,59,-1
 777 622 l 1,60,-1
 777 551 l 1,0,-1
46 53 m 1,61,-1
 309 204 l 1,62,-1
 357 164 l 1,63,-1
 93 -12 l 1,64,-1
 46 53 l 1,61,-1
EndSplineSet
Ligature2: "'rkrf' Rakar Forms in Devanagari2 lookup 31 subtable" uni0915 uni094D uni0930
EndChar

StartChar: kharadeva
Encoding: 65656 -1 254
Width: 818
Flags: W
LayerCount: 2
Fore
SplineSet
245 551 m 1,0,-1
 273 566 l 1,1,2
 284 550 284 550 291 523 c 128,-1,3
 298 496 298 496 298 458 c 0,4,5
 298 402 298 402 281.5 362 c 128,-1,6
 265 322 265 322 234 295 c 128,-1,7
 203 268 203 268 159 250 c 1,8,-1
 163 257 l 1,9,10
 212 199 212 199 261.5 159 c 128,-1,11
 311 119 311 119 368.5 99 c 128,-1,12
 426 79 426 79 497 79 c 0,13,14
 505 79 505 79 514 80 c 128,-1,15
 523 81 523 81 533 82 c 1,16,-1
 452 10 l 1,17,18
 407 13 407 13 362 26.5 c 128,-1,19
 317 40 317 40 271.5 66.5 c 128,-1,20
 226 93 226 93 179.5 135.5 c 128,-1,21
 133 178 133 178 85 239 c 0,22,23
 58 274 58 274 49 296.5 c 128,-1,24
 40 319 40 319 40 338 c 0,25,26
 40 359 40 359 55 376 c 128,-1,27
 70 393 70 393 104 393 c 0,28,29
 129 393 129 393 147.5 381.5 c 128,-1,30
 166 370 166 370 181 349.5 c 128,-1,31
 196 329 196 329 209 300 c 1,32,-1
 148 331 l 1,33,34
 176 339 176 339 190.5 359 c 128,-1,35
 205 379 205 379 211 405.5 c 128,-1,36
 217 432 217 432 217 458 c 0,37,38
 217 496 217 496 210 524 c 128,-1,39
 203 552 203 552 193 563 c 1,40,-1
 237 551 l 1,41,-1
 0 551 l 1,42,-1
 0 622 l 1,43,-1
 491 622 l 1,44,-1
 491 551 l 1,45,-1
 245 551 l 1,0,-1
729 551 m 1,46,-1
 729 0 l 1,47,-1
 648 0 l 1,48,-1
 648 551 l 1,49,-1
 461 551 l 1,50,-1
 461 622 l 1,51,-1
 833 622 l 1,52,-1
 833 551 l 1,53,-1
 729 551 l 1,46,-1
668 211 m 1,54,55
 646 194 646 194 608.5 179 c 128,-1,56
 571 164 571 164 521 164 c 0,57,58
 474 164 474 164 436.5 183.5 c 128,-1,59
 399 203 399 203 377.5 238 c 128,-1,60
 356 273 356 273 356 319 c 0,61,62
 356 368 356 368 378 402 c 128,-1,63
 400 436 400 436 439.5 454.5 c 128,-1,64
 479 473 479 473 531 473 c 0,65,66
 548 473 548 473 575 470.5 c 128,-1,67
 602 468 602 468 616 463 c 1,68,-1
 610 394 l 1,69,70
 595 398 595 398 576.5 401 c 128,-1,71
 558 404 558 404 540 404 c 0,72,73
 492 404 492 404 464.5 382 c 128,-1,74
 437 360 437 360 437 316 c 0,75,76
 437 273 437 273 464.5 252.5 c 128,-1,77
 492 232 492 232 534 232 c 0,78,79
 581 232 581 232 616.5 256.5 c 128,-1,80
 652 281 652 281 672 306 c 1,81,-1
 668 211 l 1,54,55
238 -46 m 1,82,-1
 416 41 l 1,83,-1
 424 47 l 1,84,-1
 648 162 l 1,85,-1
 669 172 l 1,86,-1
 704 113 l 1,87,-1
 279 -118 l 1,88,-1
 238 -46 l 1,82,-1
EndSplineSet
Ligature2: "'rkrf' Rakar Forms in Devanagari2 lookup 31 subtable" uni0916 uni094D uni0930
EndChar

StartChar: garadeva
Encoding: 65657 -1 255
Width: 563
Flags: W
LayerCount: 2
Fore
SplineSet
208 551 m 1,0,-1
 208 234 l 2,1,2
 208 208 208 208 195.5 193 c 128,-1,3
 183 178 183 178 160 178 c 0,4,5
 141 178 141 178 120 190 c 128,-1,6
 99 202 99 202 81 222 c 128,-1,7
 63 242 63 242 52 264.5 c 128,-1,8
 41 287 41 287 41 308 c 0,9,10
 41 331 41 331 54.5 345 c 128,-1,11
 68 359 68 359 102 359 c 2,12,-1
 127 359 l 1,13,-1
 127 551 l 1,14,-1
 0 551 l 1,15,-1
 0 622 l 1,16,-1
 578 622 l 1,17,-1
 578 551 l 1,18,-1
 474 551 l 1,19,-1
 474 0 l 1,20,-1
 393 0 l 1,21,-1
 393 551 l 1,22,-1
 208 551 l 1,0,-1
172 -24 m 1,23,-1
 125 43 l 1,24,-1
 394 206 l 1,25,-1
 435 150 l 1,26,-1
 172 -24 l 1,23,-1
EndSplineSet
Ligature2: "'rkrf' Rakar Forms in Devanagari2 lookup 31 subtable" uni0917 uni094D uni0930
EndChar

